<svg xmlns="http://www.w3.org/2000/svg" viewBox="0 0 512 512">
  <path d="M457 386a23 23 0 00-2-5c-1-3-1-6-3-8C367 108 306 75 306 75a180 180 0 10-194 297h1l9 4c100 39 147 73 168 90 4 5 8 11 13 15v1c16 10 37 20 60 20a96 96 0 0094-116z" fill="#cd2a00"/>
  <g fill="#f97c55">
    <path d="M108 127c-39 39-44 102-11 145 22 29 54 43 86 44 29 0 46-34 27-56l-4-5c-5-6-16-14-23-17-4-1-7-3-9-6-10-12-7-31 7-39 6-3 14-3 20-1 11 3 15 12 16 20 2 9 6 16 11 23l5 5c19 22 54 12 59-16a109 109 0 00-184-97zM384 431c-25 29-54 15-83-10-29-26-47-53-21-82a69 69 0 11104 92z"/>
  </g>
  <g fill="#ef663c">
    <path d="M488 279l-26 8c-2 1-5-1-6-3L397 94c-1-2 0-5 3-6l25-8c3-1 5 1 6 3l60 190c1 3-1 5-3 6z"/>
    <path d="M486 331h-27c-3 0-5-2-5-4l-3-211c0-3 2-5 4-5h27c3 0 5 2 5 4l3 211c0 2-2 5-4 5z"/>
  </g>
  <g fill="#f25733">
    <circle cx="470.6" cy="232.9" r="33.7"/>
    <circle cx="363.2" cy="42.6" r="33.7"/>
  </g>
  <path d="M456 381l-3-8c-11-35-22-65-32-92 0 0-62 55-188 55-149 0-214-55-214-55 19 41 53 74 93 91h1l9 4c100 39 148 73 168 90 4 5 8 11 13 15v1c17 10 38 20 61 20a96 96 0 0092-121z" fill="#781900" opacity=".3"/>
  <path d="M463 378l-3-9c-15-47-30-89-45-127-56-137-96-167-102-171a186 186 0 10-200 307v1h1l9 3c98 39 144 72 163 88a119 119 0 0014 16c19 14 42 22 65 22a102 102 0 0098-130zm-98 114c-19 0-38-6-53-17a8 8 0 00-2-2 96 96 0 01-13-14 589 589 0 00-169-91 173 173 0 01-10-4A171 171 0 11305 84c4 3 41 30 95 164a1803 1803 0 0148 135h1a20 20 0 010 4 87 87 0 01-85 105z"/>
  <path d="M302 226a116 116 0 10-230-27 116 116 0 00115 124c16 0 30-9 37-24 7-14 5-31-6-44l-3-4c-6-7-17-16-26-19l-6-4c-3-4-5-9-4-14 1-6 4-10 9-13 4-2 9-2 14-1 8 3 10 9 11 14 1 9 5 19 12 26l5 6c10 12 27 17 42 13 16-4 27-17 30-33zm-61 10l-4-6c-5-5-8-12-9-18-2-13-10-23-22-26a32 32 0 00-42 25c-2 9 1 19 7 26 3 4 7 7 12 9 6 2 15 9 20 15l4 4c6 8 8 18 3 28-3 7-11 15-24 15a101 101 0 01-69-173 100 100 0 0175-29 101 101 0 0195 118c-2 10-9 17-19 20s-20 0-27-8zM384 327a76 76 0 00-108 7c-36 41 8 79 22 91 10 8 32 28 56 28 13 0 25-5 37-19 28-31 25-80-7-107zm-4 97c-18 21-40 18-72-10s-38-49-20-70a61 61 0 1192 80zM512 234c0-14-6-25-16-33l-1-80a16 16 0 00-17-16h-18c-5 0-9 3-12 6l-8-24a16 16 0 00-20-11l-17 6c-5 1-8 4-10 8s-3 8-1 13l39 120a41 41 0 0015 43l1 56a16 16 0 0016 16h19c9 0 16-8 16-17l-1-56c9-7 15-19 15-31zm-52-113l18-1 1 1 1 73a41 41 0 00-20 0l-1-45v-27l1-1zm-54-23v-1h1l17-6h1l1 1 18 58 1 52-3 3-36-107zm50 115c4-3 10-5 15-5a26 26 0 11-15 5zm27 109l-1 1h-19l-1-1-1-49a41 41 0 0021 0l1 49zM365 86a41 41 0 100-82 41 41 0 000 82zm0-66a26 26 0 110 51 26 26 0 010-51z"/>
</svg>