<svg xmlns="http://www.w3.org/2000/svg" viewBox="0 0 512 512">
  <path d="M503 444v8c0 10-7 17-17 17h-15l-25 31c-1 2-4 3-6 3H73c-3 0-5-1-7-3l-25-31H26c-10 0-17-7-17-17v-8c0-5 3-9 8-9h478c5 0 8 4 8 9z" fill="#00838f"/>
  <path d="M452 444v8c0 10-7 17-17 17h-15l-25 31c-2 2-4 3-7 3H73c-3 0-5-1-7-3l-25-31H26c-10 0-17-7-17-17v-8c0-5 3-9 8-9h427c4 0 8 4 8 9z" fill="#00bcd4"/>
  <path d="M427 299v136H85V299c0-14 12-26 26-26h290c14 0 26 12 26 26z" fill="#fdd834"/>
  <path d="M393 299v136H85V299c0-14 10-25 23-26h261c14 1 24 12 24 26z" fill="#ffeb3a"/>
  <g fill="#fec108">
    <path d="M239 273v60a17 17 0 11-34 0v-60h34zM307 273v26a17 17 0 11-34 0v-26h34zM273 273v94a17 17 0 11-34 0v-94h34z"/>
  </g>
  <path d="M94 478h-9a9 9 0 010-17h9a9 9 0 010 17zM196 478h-68a9 9 0 010-17h68a9 9 0 010 17zM427 444H85c-4 0-8-4-8-9V299c0-19 15-34 34-34h290c19 0 34 15 34 34v136c0 5-4 9-8 9zM94 427h324V299c0-10-8-17-17-17H111c-9 0-17 7-17 17v128z"/>
  <path d="M222 358c-14 0-26-11-26-25v-60c0-5 4-8 9-8h34c5 0 8 3 8 8v60c0 14-11 25-25 25zm-9-76v51a9 9 0 0017 0v-51h-17zM290 324c-14 0-25-11-25-25v-26c0-5 3-8 8-8h34c5 0 9 3 9 8v26c0 14-12 25-26 25zm-8-42v17a9 9 0 0017 0v-17h-17z"/>
  <path d="M256 393c-14 0-26-12-26-26v-94c0-5 4-8 9-8h34c5 0 9 3 9 8v94c0 14-12 26-26 26zm-9-111v85a9 9 0 0018 0v-85h-18zM119 316l-3-1-3-2a9 9 0 01-1-9l1-3c2-2 5-3 8-2h2l1 1 1 1 3 6a9 9 0 01-9 9z"/>
  <path d="M493 68L391 169l12 12c7 7 7 18 0 24v1l-12 12c-3 3-8 3-12 0l-54-55c-7-6-7-17 0-24L445 19l10-7c14-7 31-3 41 9 11 14 10 35-3 47z" fill="#4e342e"/>
  <path d="M467 70L366 171l12 12c6 6 6 17 0 24l-5 4-48-48c-7-7-7-17 0-24L445 19l10-7c6 2 11 6 15 11 11 14 10 34-3 47z" fill="#795548"/>
  <path d="M385 229c-4 0-9-2-12-5l-54-55a26 26 0 010-36L439 13a43 43 0 0164 3c13 17 12 42-4 58l-96 95 6 6c10 10 10 26 0 37l-12 12c-3 3-7 5-12 5zm84-212c-7 0-13 3-18 8L331 145c-3 3-3 9 0 12l54 54 12-12c4-3 4-8 0-12l-12-12c-3-3-3-9 0-12L486 62c10-9 11-25 3-36-4-5-11-8-18-9h-2z"/>
  <path d="M452 68h-3l-3-2c-2-1-2-4-2-6a9 9 0 015-8h6l2 1 1 1c2 1 3 4 3 6l-3 6-3 2h-3zM440 512H73c-5 0-10-2-14-6l-22-28H26c-15 0-26-12-26-26v-8c0-10 8-17 17-17h478c9 0 17 7 17 17v8c0 14-11 26-26 26h-11l-22 27c-3 4-8 7-13 7zM17 444v8c0 5 4 9 9 9h15c3 0 5 1 7 3l24 31h367l25-31c2-2 4-3 7-3h15c5 0 9-4 9-9v-8H17z"/>
  <path fill="#607d8b" d="M373 212l-62 61H202l101-100 16-16 6 6z"/>
  <path d="M335 218l-55 55h-78l101-100 32 33a9 9 0 010 12z" fill="#cfd8dc"/>
  <path d="M311 282H202a9 9 0 01-6-15l117-116c3-3 9-3 12 0l54 55c3 3 3 8 0 12l-62 61c-1 2-3 3-6 3zm-88-17h85l53-53-42-43-96 96zM171 316h-17a9 9 0 010-17h17a9 9 0 010 17z"/>
</svg>