<svg xmlns="http://www.w3.org/2000/svg" viewBox="0 0 470 470" width="512" height="512">
  <path fill="#fd7555" d="M418 278l-50-40v160h50z"/>
  <path fill="#fda162" d="M73 238h315v160H73z"/>
  <path fill="#fe9f88" d="M73 143v60l315 75h30V143z"/>
  <path d="M367 183c-26 0-26 20-51 20s-25-20-51-20c-25 0-25 20-50 20-26 0-26-20-51-20s-25 20-51 20H73v75h315v-89c-6-4-12-6-21-6z" fill="#fec8bb"/>
  <path d="M158 38v90a45 45 0 100-90z" fill="#ef431d"/>
  <path d="M173 83c0-25-7-45-15-45a45 45 0 100 90c8 0 15-21 15-45z" fill="#fd7555"/>
  <path d="M418 113l-20 30 20 30a30 30 0 100-60z" fill="#975d50"/>
  <path d="M83 113c-17 0-30 13-30 30v180a30 30 0 100 60h30V173h30c26 0 26-20 51-20s25 20 51 20c25 0 25-20 50-20 19 0 24 11 36 16v124a15 15 0 0030 0V169c12-5 17-16 36-16 25 0 25 20 51 20v-60H83z" fill="#b1786b"/>
  <path d="M408 398l-52 65h30c16 0 34-13 39-29l12-36h-29z" fill="#fdce6e"/>
  <path d="M33 398l12 36c5 16 23 29 39 29h272c16 0 34-13 39-29l13-36H33z" fill="#fdfa7b"/>
  <path d="M448 383H23a15 15 0 000 30h425a15 15 0 000-30z" fill="#fefdca"/>
  <circle cx="210" cy="240" r="7.5"/>
  <circle cx="350" cy="345" r="7.5"/>
  <circle cx="150" cy="315" r="7.5"/>
  <circle cx="120" cy="345" r="7.5"/>
  <path d="M448 375h-23V179a38 38 0 00-7-74H205a52 52 0 00-40-75c-2-10-7-20-15-28a8 8 0 00-10 11c5 5 8 11 9 18-25 4-44 25-44 52a7 7 0 1015 0 38 38 0 1167 22H83c-21 0-38 17-38 38v173a38 38 0 00-22 59 23 23 0 000 45h9l6 16c6 19 26 34 46 34h302c20 0 40-15 46-34l6-16h10a23 23 0 000-45zm-358 0v-90h204v8a23 23 0 0045 0v-8h71v90H90zm204-105H90v-90h23c15 0 24-6 30-12 6-4 11-8 21-8s15 4 21 8c6 6 14 12 30 12 15 0 23-6 30-12 6-4 10-8 20-8s15 4 21 8l8 6v96zm116 0h-71v-96l7-6c6-4 11-8 21-8s15 4 20 8c6 5 12 10 23 11v91zM30 353c0-13 10-23 23-23 4 0 7-3 7-7V143c0-13 10-23 23-23h335a23 23 0 010 45c-11 0-15-4-21-8-7-6-15-12-30-12s-24 6-30 12l-9 6c-3 1-4 3-4 6v124a8 8 0 01-15 0V169c0-3-2-5-5-6l-9-6c-6-6-14-12-30-12-15 0-23 6-30 12-6 4-10 8-20 8s-15-4-21-8c-7-6-15-12-30-12s-24 6-30 12c-6 4-11 8-21 8H83c-5 0-8 3-8 8v202H53c-13 0-23-10-23-22zm418 52H98a7 7 0 100 15h324l-4 12c-4 12-19 23-32 23H84c-13 0-28-11-32-23l-4-12h20a7 7 0 100-15H23a8 8 0 010-15h425a8 8 0 010 15z"/>
</svg>