<svg height="512" viewBox="0 0 128 128" width="512" xmlns="http://www.w3.org/2000/svg">
  <path d="M95.9 46.3c17.6-2.9 24.8-12 25.6-13.8-5.6-4.4-13-2.7-13-2.7 4.3-4.8 7-10.3 6-16.2-6-1-11.5 1.6-16.3 5.9 0 0 1.7-7.4-2.7-13-1.8.8-11 8-13.8 25.6z" fill="#bae543"/>
  <path d="M83 76a207.6 207.6 0 01-14.4 13.1C45.3 108.5 15 127 8 120c-8.6-8.6 21.1-52.2 44-75a85.4 85.4 0 0113.6-11.5c1-.7 2-1.3 2.9-1.7 10.7-5.7 16.1-.6 22.2 5.5 8.6 8.6 15.2 16-7.6 38.7z" fill="#fc4b00"/>
  <g fill="#111b35">
    <path d="M122.6 31.1a16.7 16.7 0 00-10.2-3.4c3.3-4.8 4.6-9.6 3.8-14.4a1.7 1.7 0 00-1.5-1.5c-4.8-.8-9.6.5-14.4 3.8a16.7 16.7 0 00-3.4-10.2 1.8 1.8 0 00-2.1-.5C92 6.2 84.2 13 80.8 28.1c-7-2-15.7 1.2-30 15.6a235.5 235.5 0 00-18 20.5 1.8 1.8 0 002.7 2.2 232.7 232.7 0 0117.7-20.2 83.5 83.5 0 0113.4-11.3l4.4 4.4a1.8 1.8 0 102.5-2.5L69.7 33c9.6-4.8 14.3 0 19.8 5.4 8 8 14.3 14.3-7.7 36.3-3.5 3.5-7.5 7.1-11.7 10.8l-4-4a1.8 1.8 0 10-2.4 2.6l3.7 3.7a261.3 261.3 0 01-28.1 20.4c-18.4 11.4-27.6 12.9-30 10.4-3.2-3.1.8-16.7 17-39.9a1.8 1.8 0 00-3-2C14 90.2-.5 113.8 6.9 121.2a7.8 7.8 0 005.7 2c16.2 0 53.2-27.3 71.8-46 14.4-14.3 17.7-23 15.6-30a52.7 52.7 0 006.6-1.9 1.8 1.8 0 00-1.2-3.3 49.4 49.4 0 01-6.8 2 38.8 38.8 0 00-6.6-8 38.8 38.8 0 00-8-6.5C86.7 17.5 92.4 11.1 95 9a15.7 15.7 0 011.5 10.2 1.8 1.8 0 002.8 1.7c4.7-4.1 9.1-6 13.6-5.7.3 4.5-1.6 9-5.7 13.6a1.8 1.8 0 001.7 2.8s5.5-1.2 10.2 1.4a26.3 26.3 0 01-6.2 5.4 1.8 1.8 0 001.9 3 24 24 0 008.3-8 1.8 1.8 0 00-.5-2.2z"/>
    <path d="M90.3 19.2a40 40 0 00-2.6 6.3 1.7 1.7 0 001.1 2.2 1.7 1.7 0 00.5 0 1.7 1.7 0 001.7-1.1 36.6 36.6 0 012.4-5.8 1.8 1.8 0 10-3.1-1.6zM27.2 74.5a1.7 1.7 0 002.4-.4l2-2.8a1.8 1.8 0 00-2.7-2L26.8 72a1.8 1.8 0 00.4 2.5zM30.9 94.7a1.7 1.7 0 000 2.5l5 5a1.8 1.8 0 102.4-2.5l-5-5a1.7 1.7 0 00-2.4 0zM15.7 102.6a1.8 1.8 0 000 2.4l3.3 3.4a1.7 1.7 0 002.5-2.5l-3.3-3.3a1.8 1.8 0 00-2.5 0zM54.2 62.8a1.8 1.8 0 001.3-3l-3.3-3.3a1.8 1.8 0 10-2.5 2.5l3.3 3.3a1.7 1.7 0 001.2.5zM77.2 55.7a1.8 1.8 0 102.5-2.4l-5-5a1.8 1.8 0 00-2.4 2.5zM41.7 83.3a1.8 1.8 0 001.3-3l-5-5a1.8 1.8 0 10-2.5 2.5l5 5a1.7 1.7 0 001.2.5zM69.6 63.6a1.7 1.7 0 000 2.5l5 5a1.8 1.8 0 102.5-2.5l-5-5a1.8 1.8 0 00-2.5 0z"/>
  </g>
</svg>