<svg xmlns="http://www.w3.org/2000/svg" viewBox="0 0 470 470" width="512" height="512">
  <path d="M205 423a20 20 0 010 40c-10 0-20-2-30-4l-30-352h60v316z" fill="#ef431d"/>
  <path d="M175 107v352c-55-14-95-63-95-121V107h95z" fill="#fd7555"/>
  <path d="M185 58h-30l30 76c9 8 19 13 30 16V88c0-17-13-30-30-30z" fill="#84b044"/>
  <path d="M155 58h-55c-16 0-30 13-30 30v62c14-3 28-12 38-24 6 18 19 33 35 42 15-9 28-24 34-42l8 8V88c0-17-13-30-30-30z" fill="#a2c352"/>
  <path d="M360 363L257 9l8-1c69 0 125 55 125 125v230h-30z" fill="#ef431d"/>
  <path d="M360 363V133c0-62-45-113-103-124a20 20 0 008 39v315h95z" fill="#fd7555"/>
  <path d="M370 413h-30l30-77c9-8 19-13 30-16v62c0 17-13 31-30 31z" fill="#84b044"/>
  <path d="M340 413h-55c-16 0-30-14-30-30v-63c14 3 28 12 38 24 6-18 19-33 34-41 16 8 29 23 35 41l8-8v47c0 16-13 30-30 30z" fill="#a2c352"/>
  <circle cx="110" cy="306.8" r="7.5"/>
  <circle cx="140" cy="336.8" r="7.5"/>
  <path d="M213 416V157a7 7 0 009-7l1-62c0-21-17-38-38-38h-35V8a7 7 0 10-15 0v42h-35c-21 0-37 17-37 38l-1 62a8 8 0 0010 7c12-3 24-9 33-18 8 15 20 28 34 35a8 8 0 007 0c14-7 26-20 34-35l17 13v271c0 4 4 7 8 7a13 13 0 010 25c-65 0-117-53-117-117V177a7 7 0 10-15 0v161c0 73 59 132 132 132a28 28 0 008-54zm-30-295a7 7 0 00-13 3c-5 15-15 27-28 35-12-8-22-20-27-35a8 8 0 00-13-3c-7 8-15 15-25 19l1-52c0-13 10-23 22-23h85c12 0 23 10 23 23l-1 52c-9-4-17-11-24-19zM405 314c-2-2-5-2-7-1V133C398 59 338 0 265 0a28 28 0 00-7 54v239a7 7 0 1015 0V48c0-5-4-8-8-8a13 13 0 010-25c65 0 118 53 118 118v185c-7 4-13 8-18 13-8-15-20-28-34-35h-7c-14 7-26 20-34 35-9-9-21-15-33-18a8 8 0 00-9 7v63c0 20 16 37 37 37h35v43a7 7 0 1015 0v-43h35c21 0 38-17 38-37v-63l-3-6zm-12 69c0 12-11 22-23 22h-85c-12 0-22-10-22-22v-53c9 4 17 11 24 19a7 7 0 0013-3c5-15 15-27 28-35 12 8 22 20 27 35a8 8 0 0013 3c7-8 15-15 25-19v53z"/>
  <circle cx="350" cy="132.5" r="7.5"/>
</svg>