<svg xmlns="http://www.w3.org/2000/svg" viewBox="0 0 512.4 512.4">
  <path d="M432 9l-44 17c-21 6-41 8-62 8H186c-20 0-41-2-60-8L81 9C68 6 57 19 61 32l25 62a797 797 0 000 324l-21 62c-5 12 5 25 18 23l50-9 23-3c15-3 29-5 45-5h109c15 0 30 2 45 5l22 3 51 9c13 2 23-11 18-23l-19-62c23-118 23-227 0-324l25-62c4-13-7-26-20-23" fill="#ffdd09"/>
  <path d="M432 9l-9 4c6 4 7 12 5 19l-22 63c20 97 21 205 0 324l18 61c3 9-1 17-7 22l12 1c12 3 23-11 18-23l-20-61c23-119 23-227 0-324l25-63c4-12-7-26-20-23" fill="#fd9808"/>
  <path d="M88 480l18-61a899 899 0 010-324L85 32c-3-7 0-15 4-19l-9-4C68 6 57 20 61 32l25 63a797 797 0 000 324l-21 61c-5 12 5 26 18 23l11-1c-5-5-8-13-6-22" fill="#fff"/>
  <g fill="#fcc309">
    <path d="M248 103s-17 45-46 74c-28 26-55 48-55 123 0 10-5 18-15 23-7 4-12 9-10 21 0 1 5 11 13 20 0 0 26 28 41-5 4-9 7-19 7-30 0-10 2-26 13-40 10-11 18-23 24-36 14-36 39-97 28-150"/>
    <path d="M359 248c-23-36-137 57-137 57s-20 13-38 19v5l-1 11 2 2c40 17 87 5 112-30l1-1c16-23 37-47 61-63"/>
    <path d="M296 255c66-66 103-135 83-155-17-17-72 8-130 60-6 35-19 69-29 93-5 13-13 25-23 36l-4 7-1 2-2 5-1 2-3 6v2l-1 5v6c18-6 38-19 38-19s37-30 73-50"/>
  </g>
  <path d="M157 384c-14 0-26-13-28-15a50 50 0 01-14-23c-6-22 10-29 14-31 6-3 9-9 9-15 0-75 28-101 54-126l4-3c27-27 43-70 43-70 2-4 5-6 9-6s7 3 7 7c11 54-13 116-28 152v2c-5 13-13 25-24 39-9 11-11 25-11 35 0 11-2 22-7 34-6 11-14 18-24 20h-4zm85-247c-8 14-20 32-34 46l-4 3c-26 25-48 46-48 114 0 13-7 25-19 30-6 3-7 5-6 12 1 1 4 10 10 16 3 2 10 10 17 8 4-1 8-6 10-10 5-10 6-18 7-27 0-12 4-30 16-45 10-13 17-24 21-34l1-2c10-28 27-71 29-111z"/>
  <path d="M223 358c-14 0-27-2-41-8l-3-2c-4-2-6-5-6-9l1-10v-6c0-3 3-6 6-7 18-5 36-18 36-18 9-7 91-73 131-67 7 2 14 5 18 12 1 2 2 4 1 7l-3 5c-19 12-38 32-58 61l-1 1a99 99 0 01-81 41zm-32-23c36 14 76 3 99-28l1-1c19-25 35-44 52-57-24-2-84 38-116 63-2 1-18 12-36 19v4zM356 134c-3 3-8 3-12 0-3-3-3-9 0-12 4-3 9-3 12 0s3 9 0 12M322 151c-3 3-9 3-12 0s-3-8 0-12 9-3 12 0c3 4 3 9 0 12M339 168c-3 4-9 4-12 0s-3-8 0-12 9-3 12 0c3 4 3 9 0 12M313 194c-3 3-8 3-12 0s-3-9 0-12 9-4 12 0 4 8 0 12M296 168c-3 4-8 4-12 0s-3-8 0-12 9-3 12 0 4 9 0 12M296 228c-3 3-8 3-12 0s-3-9 0-12 9-4 12 0 4 8 0 12M279 202c-3 4-8 4-12 0s-3-8 0-12 9-3 12 0 4 9 0 12M262 236c-3 4-8 4-12 0s-3-8 0-12 9-3 12 0 4 9 0 12M254 262c-4 3-9 3-12 0s-4-9 0-12 8-3 12 0 3 9 0 12"/>
  <path d="M184 333l-5-2c-3-2-4-4-4-8l1-5v-1l1-6v-2l2-8 1-1 4-7 1-3 5-8c10-12 17-23 21-34l1-1c9-24 22-56 27-90 0-2 2-3 3-5 49-44 117-85 142-60 28 27-20 105-83 167l-1 2c-35 19-73 49-73 50-2 0-21 14-41 20l-2 2zm4-28l8 3-1 3 22-12c1-1 38-31 74-51 69-70 94-129 82-141-9-10-53 2-117 58-6 35-19 68-28 90l-1 1c-5 13-13 25-24 39l-3 5-1 1-3 5-8-1zm108-50zM299 418h-85c-6 0-9-3-9-8s3-9 9-9h85c5 0 8 3 8 9s-3 8-8 8z"/>
  <path d="M80 511a25 25 0 01-24-35l21-59a793 793 0 010-323L54 34c-4-8-3-18 4-25 6-7 16-11 25-8h1l44 17c19 5 39 8 58 8h140c20 0 39-3 58-8l45-17c10-3 19 1 25 8 7 7 9 17 4 26l-23 60c23 97 23 205 0 323l20 60c3 8 2 18-4 25s-15 11-24 9l-50-9-11-1-12-2c-14-3-30-5-43-5H202c-14 0-29 2-44 4l-12 2-10 2-50 8h-6zM76 17c-2 0-4 2-5 3-3 2-3 6-2 9l25 62v5a781 781 0 000 320v5l-20 61c-2 4-1 7 0 10 1 0 4 3 8 2l50-8 11-2 12-2c16-2 31-4 47-4h109c14 0 31 2 47 4l12 2 10 2 50 8c5 1 7-2 8-2 2-3 3-6 2-9l-22-62v-5c23-116 23-224 0-320v-6l25-62c2-2 1-6-2-8 0-1-3-4-7-3l-45 17h-1c-19 6-40 9-62 9H186c-21 0-42-3-63-8h-1L78 17h-2zm311 9z"/>
  <path d="M316 452H196c-5 0-8-3-8-8s3-9 8-9h120c5 0 8 4 8 9s-3 8-8 8z"/>
</svg>