<svg height="512" viewBox="0 0 504.1 504.1" width="512" xmlns="http://www.w3.org/2000/svg">
  <path d="M271 464l13 4c41 10 71 5 71 5s143-15 139-200S388 66 388 66s-38-12-90 18" fill="#fff"/>
  <path d="M359 215C304 20 191 25 191 25S77 20 22 215s93 250 93 250c45 20 106 20 151 0 0 0 149-55 93-250z" fill="#fff"/>
  <circle cx="190.7" cy="316.3" fill="#ffc144" r="99.3"/>
  <g>
    <path d="M504 273c-1-27-3-52-8-74-3-13-22-9-20 4 5 21 7 45 8 70 1 41-5 76-19 105-21 46-63 76-112 85-1 0-24 4-57-3 14-8 30-22 45-41 47-59 48-137 28-207-12-43-30-87-58-124 43-21 73-13 74-13h1c2 1 35 9 63 54 7 11 24 0 17-10-31-51-71-62-75-63-5-1-42-10-92 16-25-27-59-53-97-57-29-3-57 8-80 23-22 15-42 34-59 59-21 31-38 70-51 115-19 70-19 148 28 207 30 39 67 53 71 55 49 22 110 19 159 0a168 168 0 00213-88c15-31 22-69 21-113zM119 456c-1-1-36-14-64-50-42-54-41-125-23-188 27-97 69-142 99-162a116 116 0 0160-22c1 0 106-1 159 184 18 63 19 134-24 188-28 36-63 49-63 50-44 16-100 20-144 0z"/>
    <path d="M300 316a109 109 0 00-157-98c-12 6-3 24 8 18a89 89 0 11-46 54c4-12-15-18-19-6a109 109 0 10214 32z"/>
    <path d="M106 257c2 4 6 6 10 6 4-1 8-4 9-8 2-9-8-16-16-10-3 2-5 7-3 12zM466 156c-5 7 2 17 10 15 4-1 8-4 8-9 0-4-2-8-6-10s-10 0-12 4z"/>
  </g>
</svg>