<svg xmlns="http://www.w3.org/2000/svg" viewBox="0 0 472.9 472.9" width="512" height="512">
  <path fill="#5389a9" d="M344 435l-30 30h-30l-20-15 20-15z"/>
  <path fill="#5ca8d3" d="M284 435v30H159l-30-30z"/>
  <path fill="#3f4c53" d="M159 252v60l-22 30-22-30 9-30zM349 282l9 30-22 30-22-30v-60z"/>
  <path d="M125 12c-6 6-6 15 0 21l54 54v50l42-50-75-75c-6-6-16-6-21 0zM37 12c-6 6-6 15 0 21l54 54v50l43-50-76-75c-6-6-15-6-21 0zM348 12c6 6 6 15 0 21l-54 54v50l-43-50 76-75c6-6 15-6 21 0zM436 12c6 6 6 15 0 21l-54 54v50l-43-50 76-75c6-6 15-6 21 0z" fill="#fdce6e"/>
  <path d="M425 194L409 87h-30l-60 195h30c49 0 84-40 76-88z" fill="#ef431d"/>
  <path d="M395 194c8 48-27 88-76 88H124c-50 0-84-40-76-88L64 87h315l16 107z" fill="#fd7555"/>
  <path fill="#496a7e" d="M69 465h90V312h-44zM358 312h-44v153h90z"/>
  <path d="M272 364l-36-49v120a45 45 0 0036-71z" fill="#fd7555"/>
  <path d="M248 364c2 7 3 16 3 27 0 24-6 44-15 44a45 45 0 01-35-71l35-49 12 49z" fill="#fda162"/>
  <circle cx="129" cy="200" r="7.5"/>
  <circle cx="344" cy="140" r="7.5"/>
  <circle cx="159" cy="230" r="7.5"/>
  <path d="M434 458h-24l-51-169c22-2 41-12 55-28 16-18 23-43 19-69L416 86c0-3-3-6-7-6h-52l63-63a8 8 0 0111 11l-25 24a7 7 0 1011 11l24-25a23 23 0 00-32-31l-73 73h-66l62-63a8 8 0 0111 11l-24 24a7 7 0 1010 11l25-25a23 23 0 00-32-31l-74 73h-23L151 7a23 23 0 00-32 31l25 25a7 7 0 1010-11l-24-24a8 8 0 0111-11l62 63h-66L63 7a23 23 0 00-31 31l24 25a7 7 0 1011-11L42 28a8 8 0 0111-11l63 63H64c-4 0-7 3-7 6L40 192a83 83 0 0074 97L63 458H39a7 7 0 100 15h395a7 7 0 100-15zM70 251a69 69 0 01-15-56L70 95h333l15 100c3 21-2 41-15 56a69 69 0 01-54 24H124c-22 0-41-8-54-24zm60 39h213l51 168h-73V312a7 7 0 10-15 0v116h-33a52 52 0 005-69l-36-48a8 8 0 00-12 0l-35 48a52 52 0 005 69h-34V312a7 7 0 10-15 0v146H79l51-168zm36 153h140v15H166v-15zm33-52c0-9 3-16 8-23l29-40 30 40a37 37 0 11-67 22z"/>
</svg>