<svg width="24" height="24" xmlns="http://www.w3.org/2000/svg">
  <g>
    <path style="stroke:none;stroke-width:1;stroke-dasharray:none;stroke-linecap:butt;stroke-dashoffset:0;stroke-linejoin:miter;stroke-miterlimit:4;fill:#b77748;fill-rule:nonzero;opacity:1" transform="matrix(.2 0 0 .2 2 2)" d="M85 73c2-1 4-2 4-4s-2-3-4-4c-8-4-15-13-30-13-13 0-24 8-24 17s11 17 24 17c15 0 22-8 30-13z"/>
    <path style="stroke:none;stroke-width:1;stroke-dasharray:none;stroke-linecap:butt;stroke-dashoffset:0;stroke-linejoin:miter;stroke-miterlimit:4;fill:#1f212b;fill-rule:nonzero;opacity:1" transform="matrix(.2 0 0 .2 2 2)" d="M55 87c-14 0-25-8-25-18s11-18 25-18c11 0 18 5 24 9l6 4c3 1 5 2 5 5s-2 4-5 5l-6 4c-6 4-13 9-24 9zm0-34c-13 0-23 7-23 16s10 16 23 16c11 0 17-4 23-8l6-5 4-3-4-3-6-5c-6-4-12-8-23-8z"/>
    <path style="stroke:none;stroke-width:1;stroke-dasharray:none;stroke-linecap:butt;stroke-dashoffset:0;stroke-linejoin:miter;stroke-miterlimit:4;fill:#1f212b;fill-rule:nonzero;opacity:1" transform="matrix(.2 0 0 .2 2 2)" d="m55 81-12-3h1l11 2 6-1 1 1-7 1zM74 75a1 1 0 0 1-1-1l1-1 1 1h-1v1zM69 78l-1-1 3-2h1v1a42 42 0 0 1-3 2z"/>
    <path style="stroke:none;stroke-width:1;stroke-dasharray:none;stroke-linecap:butt;stroke-dashoffset:0;stroke-linejoin:miter;stroke-miterlimit:4;fill:#eaa871;fill-rule:nonzero;opacity:1" transform="matrix(.2 0 0 .2 2 2)" d="M78 15c-1-2-4-1-6 0-8 3-19 1-29 12-10 9-12 22-5 28 6 7 19 5 28-5 11-10 9-21 12-29 1-2 2-5 0-6z"/>
    <path style="stroke:none;stroke-width:1;stroke-dasharray:none;stroke-linecap:butt;stroke-dashoffset:0;stroke-linejoin:miter;stroke-miterlimit:4;fill:#1f212b;fill-rule:nonzero;opacity:1" transform="matrix(.2 0 0 .2 2 2)" d="M48 60c-4 0-8-1-11-4-7-7-5-20 5-30 8-8 16-9 23-11l7-1c2-1 5-2 7 0s1 5 0 7l-1 7c-2 7-3 15-11 23-6 6-13 9-19 9zm28-45-3 1-8 1c-7 2-14 3-22 11-9 8-11 20-5 27 7 6 19 4 27-5 8-8 9-15 11-22l1-8v-4l-1-1z"/>
    <path style="stroke:none;stroke-width:1;stroke-dasharray:none;stroke-linecap:butt;stroke-dashoffset:0;stroke-linejoin:miter;stroke-miterlimit:4;fill:#1f212b;fill-rule:nonzero;opacity:1" transform="matrix(.2 0 0 .2 2 2)" d="m71 29-1-1 1-1 1 1-1 1zM70 35a1 1 0 0 1-1-1l1-3 1 1-1 3zM61 48v-1l1-1 5-7h1v1a29 29 0 0 1-7 8z"/>
    <path style="stroke:none;stroke-width:1;stroke-dasharray:none;stroke-linecap:butt;stroke-dashoffset:0;stroke-linejoin:miter;stroke-miterlimit:4;fill:#f7c498;fill-rule:nonzero;opacity:1" transform="matrix(.2 0 0 .2 2 2)" d="M32 25c-1-2-2-4-4-4s-3 2-4 4c-4 8-13 15-13 30 0 13 8 24 17 24s17-11 17-24c0-15-8-22-13-30z"/>
    <path style="stroke:none;stroke-width:1;stroke-dasharray:none;stroke-linecap:butt;stroke-dashoffset:0;stroke-linejoin:miter;stroke-miterlimit:4;fill:#1f212b;fill-rule:nonzero;opacity:1" transform="matrix(.2 0 0 .2 2 2)" d="M28 80c-10 0-18-11-18-25 0-11 5-18 9-24l4-6c1-3 2-5 5-5s4 2 5 5l4 6c4 6 9 13 9 24 0 14-8 25-18 25zm0-58-3 4-5 6c-4 6-8 12-8 23 0 13 7 23 16 23s16-10 16-23c0-11-4-17-8-23l-5-6-3-4z"/>
    <path style="stroke:none;stroke-width:1;stroke-dasharray:none;stroke-linecap:butt;stroke-dashoffset:0;stroke-linejoin:miter;stroke-miterlimit:4;fill:#1f212b;fill-rule:nonzero;opacity:1" transform="matrix(.2 0 0 .2 2 2)" d="m28 74-5-2h1l4 1c4 0 9-5 10-12h1v1c-2 7-6 12-11 12zM39 48h-1v-1a1 1 0 0 1 1-1v2zM39 55v-5h1v4l-1 1z"/>
  </g>
</svg>