<svg height="512" width="512" xmlns="http://www.w3.org/2000/svg">
  <path d="M389 64V24c0-9-8-17-17-17h-50v57h67z" fill="#ece6e3"/>
  <path d="M372 8h-23c9 0 17 7 17 16v40h23V24c0-9-8-16-17-16z" fill="#e6ded9"/>
  <path d="M355 64H123V24c0-9 8-16 16-16h200c9 0 16 7 16 16z" fill="#f8f6f6"/>
  <path d="M273 57h116l42 86c5 9 7 19 7 29v299c0 19-15 33-33 33H273z" fill="#ece6e3"/>
  <path d="M431 143l-42-86h-23l42 86c5 9 7 19 7 29v299c0 19-15 33-33 33h23c18 0 33-14 33-33V172c0-10-2-20-7-29z" fill="#e6ded9"/>
  <path d="M306 172v299c0 19-15 33-33 33H107c-18 0-33-14-33-33V172c0-10 2-20 7-29l42-86h232l-42 86c-5 9-7 19-7 29z" fill="#f8f6f6"/>
  <path d="M165 471h-50c-5 0-8-3-8-8v-17c0-4 3-8 8-8h50c5 0 8 4 8 8v17c0 5-3 8-8 8z" fill="#9cd2fc"/>
  <path d="M165 438h-23c5 0 8 4 8 8v17c0 5-3 8-8 8h23c5 0 8-3 8-8v-17c0-4-3-8-8-8z" fill="#8cb7e8"/>
  <path d="M74 190h364v116H74zM74 339h364v33H74z" fill="#d0eafd"/>
  <path d="M306 190h132v116H306z" fill="#9cd2fc"/>
  <path d="M415 190h23v116h-23z" fill="#8cb7e8"/>
  <path d="M306 339h132v33H306z" fill="#9cd2fc"/>
  <path d="M415 339h23v33h-23z" fill="#8cb7e8"/>
  <g>
    <path d="M165 431h-50c-9 0-16 7-16 15v17c0 9 7 16 16 16h50c9 0 16-7 16-16v-17c0-8-7-15-16-15zm1 32l-1 1h-50l-1-1v-17h52z"/>
    <path d="M438 139l-42-84V24c0-13-11-24-24-24H188a8 8 0 000 15h151c5 0 9 4 9 8v27h-18v-9a8 8 0 00-15 0v9h-18v-9a8 8 0 00-15 0v9h-18v-9a8 8 0 00-15 0v9h-19v-9a8 8 0 00-15 0v9h-18v-9a8 8 0 00-15 0v9h-18v-9a8 8 0 00-15 0v9h-18V23c0-4 4-8 8-8h19a8 8 0 000-15h-19c-12 0-23 11-23 23v32l-42 84c-5 10-8 22-8 33v299c0 23 18 41 41 41h298c23 0 41-18 41-41V172c0-11-3-23-8-33zM313 331v-18h118v18zm118 15v18H313v-18zM81 313h217v18H81zm217-15H83V197h215zm15-101h118v101H313zm118-25v10H313v-10c0-9 2-18 6-26l41-81h24l41 81c4 8 6 17 6 26zM372 15c5 0 9 4 9 9v26h-18V24l-2-9zM128 65h215l-37 74c-5 10-8 22-8 33v10H81v-10l1-8h91a8 8 0 000-15H86l1-3zm145 432H107c-14 0-26-11-26-26v-92h143a8 8 0 000-15H81v-18h217v18h-44a8 8 0 000 15h44v92c0 15-11 26-25 26zm132 0H304c6-7 9-16 9-26v-92h118v92c0 15-12 26-26 26z"/>
    <path d="M115 264c4 0 8-4 8-8v-15l3 4a8 8 0 0011 0l4-4v15a8 8 0 0015 0v-33a7 7 0 00-13-5l-11 11-11-12a7 7 0 00-13 5v34c0 4 3 8 7 8zM173 264c4 0 8-4 8-8v-33a8 8 0 00-15 0v33c0 4 3 8 7 8zM198 264h17a8 8 0 000-15h-9v-26a8 8 0 00-15 0v33c0 4 3 8 7 8zM232 239v17a8 8 0 0015 0v-3l13 9a7 7 0 0011-2c2-3 1-8-3-10l-15-11 15-10a7 7 0 10-8-12l-13 8v-2a8 8 0 00-15 0v16z"/>
  </g>
</svg>