<svg height="512" viewBox="0 0 44 60" width="512" xmlns="http://www.w3.org/2000/svg">
  <g fill-rule="nonzero" fill="none">
    <path d="M43 31v22a6 6 0 01-6 6H7a6 6 0 01-6-6V32a4.3 4.3 0 016-4s3-5 9-2c0 0 1-4 6-4s6 4 6 4 4-2 7 1c0 0 7-2 8 4z" fill="#ffeb3a"/>
    <path d="M36 26.8c2.1.3 3.8 2 4 4.2v22a6 6 0 01-6 6h3a6 6 0 006-6V31c-.8-4.6-5.1-4.5-7-4.2z" fill="#fdd834"/>
    <path d="M43 19v12c-1-6-8-4-8-4-3-3-7-1-7-1s-1-4-6-4-6 4-6 4c-6-3-9 2-9 2a4.3 4.3 0 00-6 4V19a6 6 0 016-6h30a6 6 0 016 6z" fill="#02a9f4"/>
    <path d="M37 13h-3a6 6 0 016 6v8c1.7.7 2.8 2.2 3 4V19a6 6 0 00-6-6z" fill="#0377bc"/>
    <path d="M9 9h26v4H9z" fill="#3f51b5"/>
    <path d="M32 9h3v4h-3z" fill="#283593"/>
    <path d="M37 3v2H7V3c0-1.1.9-2 2-2h26a2 2 0 012 2z" fill="#7f8e94"/>
    <path d="M35 1h-3a2 2 0 012 2v2h3V3a2 2 0 00-2-2z" fill="#545c60"/>
    <path d="M37 5v3c0 .6-.4 1-1 1H8a1 1 0 01-1-1V5z" fill="#607d8b"/>
    <path d="M34 5v3c0 .6-.4 1-1 1h3c.6 0 1-.4 1-1V5z" fill="#37474f"/>
    <g fill="#ff9801">
      <path d="M13 43a1 1 0 01-1-1 1 1 0 00-1-1 1 1 0 01-1-1c0-.6.5-1 1-1a3 3 0 013 3c0 .6-.4 1-1 1zM34 37a1 1 0 01-1-1 3 3 0 013-3 1 1 0 010 2 1 1 0 00-1 1c0 .6-.4 1-1 1zM10 53a1 1 0 01-1-1 1 1 0 00-1-1 1 1 0 01-1-1c0-.6.5-1 1-1a3 3 0 013 3 1 1 0 01-1 1zM17 35a1 1 0 01-1-1c0-3 2-3 2-3a1 1 0 01.2 2c-.2.3-.2.6-.2 1 0 .6-.4 1-1 1zM26 45a1 1 0 01-1-1 1 1 0 00-1-1 1 1 0 01-1-1c0-.6.5-1 1-1a3 3 0 013 3 1 1 0 01-1 1zM26 55a1 1 0 01-1-1 1 1 0 00-1-1 1 1 0 010-2 3 3 0 013 3c0 .6-.4 1-1 1zM35 51a1 1 0 01-1-1 3 3 0 013-3 1 1 0 010 2 1 1 0 00-1 1c0 .6-.5 1-1 1z"/>
    </g>
    <path d="M7 18H6a1 1 0 010-2h1a1 1 0 010 2zM18 18h-7a1 1 0 010-2h7a1 1 0 010 2z" fill="#f5f5f5"/>
    <path d="M7 12a7 7 0 00-7 7v34a7 7 0 007 7h30a7 7 0 007-7V19a7 7 0 00-7-7h-1v-2a2 2 0 002-2V3a3 3 0 00-3-3H9a3 3 0 00-3 3v5c0 1.1.9 2 2 2v2zm30 46H7a5 5 0 01-5-5V32c0-1.1.5-2.2 1.4-2.8 1-.6 2.1-.7 3.2-.3.4.2 1 0 1.3-.4 0-.2 2.5-4.2 7.7-1.6a1 1 0 001.4-.7s.8-3.2 5-3.2c4.1 0 5 3.1 5 3.2a1 1 0 001.4.7c.2 0 3.5-1.6 5.9.8.2.3.6.4 1 .3 0 0 3-.9 5 .4C41.4 29 42 30 42 31V53a5 5 0 01-5 5zm5-39v8.1l-.6-.4c-2.1-1.4-5-1-6.1-.8a7 7 0 00-6.7-1.2A7 7 0 0022 21a7 7 0 00-6.5 3.7c-3.1-1.4-6.8-.5-8.9 2.1-1.4-.4-3-.1-4.2.7l-.4.2V19a5 5 0 015-5h30a5 5 0 015 5zM35 8H8V6h28v2zM9 2h26c.6 0 1 .4 1 1v1H8V3c0-.6.4-1 1-1zm1 8h24v2H10z" fill="#191919"/>
  </g>
</svg>