<svg height="512" width="512" xmlns="http://www.w3.org/2000/svg">
  <path d="M291 8h-70c-6 0-10 4-10 10v53h90V18c0-6-4-10-10-10z" fill="#aee69c"/>
  <path d="M291 8h-30c6 0 10 4 10 10v53h30V18c0-6-4-10-10-10z" fill="#89daa4"/>
  <path d="M138 124v-7c0-10 5-20 14-25l52-32c5-3 10-4 15-4h74c5 0 10 1 15 4l52 32c9 5 14 15 14 25v7c0 17-13 30-30 30H167c-16 0-29-13-29-30z" fill="#fef0ae"/>
  <path d="M345 154c16 0 30-13 30-30v-7c0-10-6-20-15-25l-52-32c-5-3-10-5-15-5h-30c5 0 10 2 15 5l52 32c9 5 14 15 14 25v7c0 17-13 30-30 30h31z" fill="#fee97d"/>
  <path d="M375 297v178c0 16-14 30-30 30H168c-17 0-30-14-30-30V297c0-17 13-30 30-30h177c16 0 30 13 30 30z" fill="#fef0ae"/>
  <path d="M345 267h-30c16 0 30 13 30 30v178c0 16-14 30-30 30h30c16 0 30-14 30-30V297c0-17-14-30-30-30z" fill="#fee97d"/>
  <path d="M357 192H155c-6 0-10-5-10-10v-18c0-6 4-10 10-10h202c6 0 10 4 10 10v18c0 5-4 10-10 10z" fill="#ffe179"/>
  <path d="M357 154h-30c6 0 10 4 10 10v18c0 5-4 10-10 10h30c6 0 10-5 10-10v-18c0-6-4-10-10-10z" fill="#fbd268"/>
  <path d="M357 229H155c-6 0-10-4-10-10v-17c0-6 4-10 10-10h202c6 0 10 4 10 10v17c0 6-4 10-10 10z" fill="#fef0ae"/>
  <path d="M357 192h-30c6 0 10 4 10 10v17c0 6-4 10-10 10h30c6 0 10-4 10-10v-17c0-6-4-10-10-10z" fill="#fee97d"/>
  <path d="M357 267H155c-6 0-10-4-10-10v-18c0-5 4-10 10-10h202c6 0 10 5 10 10v18c0 6-4 10-10 10z" fill="#ffe179"/>
  <path d="M357 229h-30c6 0 10 5 10 10v18c0 6-4 10-10 10h30c6 0 10-4 10-10v-18c0-5-4-10-10-10z" fill="#fbd268"/>
  <g>
    <path d="M317 429c-4-1-7-4-7-8v-71a7 7 0 1115 0v64h18a7 7 0 010 15h-26zM278 429c-5 0-8-4-8-8v-71a7 7 0 1115 0v71c0 4-3 8-7 8zM205 429a43 43 0 110-86 43 43 0 010 86zm0-71a28 28 0 100 56 28 28 0 000-56z" fill="#fff"/>
  </g>
  <path d="M162 386a43 43 0 1086 0 43 43 0 00-86 0zm71 0a28 28 0 11-56 0 28 28 0 0156 0zm37-36v71a7 7 0 1015 0v-71a7 7 0 10-15 0zm48-7c-4 0-8 3-8 7v71c0 4 3 7 7 8h26a8 8 0 000-15h-18v-64c0-4-3-7-7-7zm64-219v-7c0-13-7-25-18-32l-52-31-3-2V18c0-10-8-18-18-18h-70c-10 0-17 8-17 18v34l-4 2-52 31c-11 7-18 19-18 32v7c0 11 5 21 12 28-3 3-4 7-4 12v18c0 3 1 7 3 10-2 2-3 6-3 10v17c0 4 1 8 3 10-2 3-3 7-3 10v18c0 5 1 9 4 12-7 7-12 17-12 28v178c0 20 17 37 38 37h177c20 0 37-17 37-37v-50a7 7 0 10-15 0v50c0 12-10 22-22 22H168c-13 0-23-10-23-22V297c0-11 8-20 19-22h184c11 2 19 11 19 22v93a7 7 0 1015 0v-93c0-11-5-21-12-28 3-3 5-7 5-12v-18c0-3-2-7-4-10 2-2 4-6 4-10v-17c0-4-2-8-4-10 2-3 4-7 4-10v-18c0-5-2-9-5-12 7-7 12-17 12-28zM219 18c0-2 1-3 2-3h70c1 0 3 1 3 3v30h-75zm141 239c0 2-3 3-3 3H155l-2-3v-18l2-2h202l3 2zm0-75l-3 2H234a8 8 0 000 15h123c1 0 3 1 3 3v17c0 2-2 3-3 3H155c-1 0-2-1-2-3v-17c0-2 1-3 2-3h44a8 8 0 000-15h-44l-2-2v-18c0-2 1-3 2-3h202c1 0 3 1 3 3zm7-58c0 11-8 20-19 22H164c-11-2-19-11-19-22v-7c0-7 4-15 11-19l52-32c3-2 7-3 11-3h74c4 0 8 1 11 3l52 32c7 4 11 12 11 19z"/>
</svg>