<svg height="512" width="512" xmlns="http://www.w3.org/2000/svg">
  <path d="M297 8l-10 6c-13 8-24 18-33 29l-3 4-12 23v88l45-19V90c0-26 5-52 15-76l1-3c1-2-1-4-3-3z" fill="#c1e9af"/>
  <path d="M269 84a90 90 0 00-29-53l-23-20c-2-2-5 0-4 3 10 24 15 50 15 76v49l15 19h26l8-19z" fill="#97da7b"/>
  <path d="M301 165c-10-3-17-12-17-22v-4h-28l-29 61v249l29 55c102 0 185-77 185-172 0-81-59-148-140-167z" fill="#cb97e7"/>
  <path d="M276 503V139h-20l-29 61v249l29 55 20-1z" fill="#bd80e1"/>
  <path d="M256 139v365c-102 0-185-77-185-172 0-81 59-148 140-167 10-3 17-12 17-22v-4z" fill="#d9b1ee"/>
  <path d="M256 200h-33v264h33c80 0 145-59 145-132s-65-132-145-132z" fill="#d9b1ee"/>
  <path d="M235 464h21l20-1V201l-20-1h-29v249z" fill="#cb97e7"/>
  <g>
    <path d="M256 246h-36v170l36 2c55 0 99-38 99-86s-44-86-99-86z" fill="#e5caf3"/>
    <path d="M227 246v170l29 2 20-1V247l-20-1z" fill="#d9b1ee"/>
    <path d="M256 295l-29-2v75l29 1c27 0 50-17 50-37s-23-37-50-37z" fill="#ebd5f6"/>
    <path d="M276 366v-68c-6-2-13-3-20-3l-29-2v75l29 1c7 0 14-1 20-3z" fill="#e5caf3"/>
    <g fill="#cb97e7">
      <path d="M256 504c-13 0-26-1-38-3-21-29-35-93-35-169 0-78 15-144 37-171 5-5 8-11 8-18v-4h28z"/>
      <path d="M185 492c-67-26-114-88-114-160s47-134 115-159c-38 31-63 91-63 159s25 128 62 160z"/>
    </g>
  </g>
  <g>
    <path d="M241 139h-13v4l-1 6 14-10z" fill="#cb97e7"/>
  </g>
  <path d="M381 195a7 7 0 10-10 12c40 31 63 77 63 125 0 89-76 161-171 165v-25c81-4 146-65 146-140s-65-136-146-140v-46h13c2 13 11 23 23 26 17 4 32 10 47 18a7 7 0 0010-3c2-4 0-9-3-11-16-8-33-14-50-19-7-1-12-7-12-14V90v-7c1-23 6-45 15-66l1-3a10 10 0 00-14-13l-10 6c-11 7-22 16-30 26l-8-7-24-21c-3-3-8-3-12 0a10 10 0 00-3 12c9 22 14 45 15 69 0 4 3 7 7 7 5 0 8-4 8-8-1-19-4-37-9-55l8 7c14 12 24 30 27 48l7 46h-33v-14a7 7 0 10-15 0v26c0 7-5 13-12 14-41 10-78 32-104 63-27 32-42 71-42 112 0 99 87 180 193 180s193-81 193-180c0-53-25-103-68-137zM263 377c12-2 24-6 33-13 11-8 18-20 18-32s-7-24-18-32c-9-7-21-11-33-12v-35c48 4 85 38 85 79s-37 75-85 79zm0-74c20 2 36 15 36 29s-16 27-36 29zm131 29c0 67-58 121-131 125v-31c56-4 100-44 100-94s-44-90-100-94v-31c73 4 131 58 131 125zM248 497l-26-3c-14-21-25-63-29-112a8 8 0 00-15 2c4 43 13 80 24 105l-13-4c-36-32-59-90-59-153s23-121 59-153l13-4a395 395 0 00-26 176 8 8 0 0015 0v-19c0-73 14-140 34-166 6-5 10-12 11-20h12v351zm40-475c-7 20-11 40-12 60v1c-2-14-7-26-14-37 7-10 16-17 26-24zM78 332c0-37 14-73 38-102 11-12 24-23 38-33-8 12-15 25-21 39a261 261 0 0021 231c-46-30-76-79-76-135z"/>
</svg>