<svg xmlns="http://www.w3.org/2000/svg" viewBox="0 0 512 512">
  <path d="M467 318a185 185 0 11-370 0 185 185 0 01370 0z" fill="#ff7400"/>
  <g fill="#fe4100">
    <path d="M426 202a115 115 0 01-91-12h-1a116 116 0 01-76-56 187 187 0 01168 68zM328 356a163 163 0 01-85 143c-76-16-135-79-145-158h215c8 0 15 7 15 15z"/>
    <path d="M467 318a185 185 0 01-196 185 185 185 0 000-370h11c102 0 185 83 185 185z"/>
  </g>
  <path d="M347 162l-10 13A101 101 0 01284 8a101 101 0 0163 154z" fill="#00c37a"/>
  <g fill="#009655">
    <path d="M337 175l-18-6a117 117 0 0143-77c5 30-5 61-25 83z"/>
    <path d="M337 175A101 101 0 01284 8l8 2a101 101 0 0052 156l-7 9z"/>
  </g>
  <path d="M436 183h-2c-34 15-72 9-100-12l2-14a101 101 0 01159-55c-4 35-26 66-59 81z" fill="#00c37a"/>
  <path d="M495 102a101 101 0 01-161 69c0-5 1-9 3-14a101 101 0 00157-56l1 1z" fill="#009655"/>
  <path d="M303 356c5 0 10 5 9 10a148 148 0 01-295 0c-1-5 4-10 9-10h277z" fill="#ff7400"/>
  <path d="M296 356a132 132 0 01-263 0h263z" fill="#fe4100"/>
  <path d="M281 356a117 117 0 11-233 0h233z" fill="#ff9300"/>
  <path d="M164 457c-50 0-92-44-99-101h199c-7 57-49 101-100 101z" fill="#fec007"/>
  <path d="M391 458a176 176 0 01-149 33 156 156 0 0078-124 17 17 0 00-17-18h-65a7 7 0 100 15h35c-1 25-12 48-28 66l-65-66h27a7 7 0 100-15H107a179 179 0 0141-148 8 8 0 10-11-10 192 192 0 00-46 158H26a17 17 0 00-17 18 155 155 0 00213 134 192 192 0 00178-31 7 7 0 10-9-12zm-234 7c-24-1-46-11-63-25l63-63v88zm15-88l63 63c-18 14-39 24-63 25v-88zm-72-13h49l-66 66c-16-18-26-41-28-66h45zm-76 2a2 2 0 012-2h14a124 124 0 00248 0h16l1 2a141 141 0 01-281 0zM503 103c0-2-1-5-3-7a109 109 0 00-130-1 109 109 0 00-84-95c-3 0-6 0-8 2-16 19-26 42-28 65v3a108 108 0 0012 56c-37 4-73 19-102 43a8 8 0 009 11c30-23 65-37 102-39a109 109 0 0066 41 109 109 0 0075 15 177 177 0 011 241 8 8 0 0011 10 192 192 0 004-255 108 108 0 0075-90zm-76 75l-33-25 36-15 29 21a93 93 0 01-32 19zM281 23l15 48-30-8c2-14 7-28 15-40zm14-4c12 4 22 11 31 19l-18 21-13-40zm-26 85c-2-8-4-17-4-25l37 9 11 37-39-9-5-12zm61 25l26-28v7c-9 9-17 21-22 33l-4-12zm40-14l-5 34-21 9c4-16 14-31 26-43zm68-25c14 0 29 4 41 11l-46 20 5-31zm31 57l-23-16 39-16c-3 12-9 23-16 32zm-71-50c8-4 16-6 25-7l-6 38-36 15 6-40c3-3 7-4 11-6zm-45-15l-28 31-11-37 22-27a93 93 0 0117 33zm-68 52l33 7 8 23c-17-7-31-17-41-30zm65 38l29-12 30 23c-20 3-41-1-59-11z"/>
</svg>