<svg xmlns="http://www.w3.org/2000/svg" viewBox="0 0 512 512">
  <path d="M496 407c12-12 11-33-2-44l-5-5c-3-3-4-7-3-10l3-11c6-18-3-38-21-45l-11-4c-3-2-5-4-6-8l-2-12c-3-19-19-32-38-30h-13c-3 1-6-1-8-4l-7-10a36 36 0 00-48-10l-11 6c-3 2-7 2-10 0l-10-6c-17-10-37-5-48 10l-8 10c-1 3-5 5-8 4h-12c-19-2-36 11-39 30l-2 12c0 4-2 6-5 8l-12 4c-17 7-27 27-21 45l4 11c1 3 0 7-3 10l-6 5a31 31 0 00-1 44c6 6 14 10 22 10h308c9 0 17-4 23-10z" fill="#feda44"/>
  <g fill="#f91">
    <path d="M190 363l5-5c3-3 4-7 3-10l-4-11c-5-18 4-38 21-45l12-4c3-2 5-4 6-8l2-12c2-19 19-32 38-30h12c4 1 7-1 9-4l7-10 7-7-4-3c-17-10-37-5-48 10l-8 10c-1 3-5 5-8 4h-12c-19-2-36 11-39 30l-2 12c0 4-2 6-5 8l-12 4c-17 7-27 27-21 45l4 11c1 3 0 7-3 10l-6 5a31 31 0 00-1 44c6 6 14 10 22 10h45c-8 0-16-4-22-10a31 31 0 012-44zM349 214l11 6c3 2 6 2 9 0l6-3c-9-8-22-10-33-6 2 0 5 1 7 3z"/>
  </g>
  <g fill="#feda44">
    <path d="M170 292l12-4c3-2 5-4 5-8l2-12c3-19 20-32 39-30h12c3 1 7-1 8-4l8-10c11-15 31-20 48-10l10 6c3 2 7 2 10 0l11-6c9-6 20-6 30-3-1-14-10-27-23-32l-12-5c-3-1-5-4-5-7l-2-12c-3-19-20-32-39-31l-12 1c-3 0-7-1-8-4l-8-10a36 36 0 00-48-11l-10 7h-10l-11-7c-16-9-37-5-48 11l-7 10c-2 3-5 4-8 4l-13-1c-19-1-35 12-38 31l-2 12c-1 3-3 6-6 7l-11 5c-18 7-27 26-21 44l3 11c1 4 0 8-3 10l-5 5a31 31 0 00-2 45c6 6 14 9 23 9h116c4-4 9-8 15-11z"/>
    <path d="M226 100l11 7h9l4-3c-9-8-21-11-33-7l9 3z"/>
  </g>
  <path d="M65 294a31 31 0 012-45l5-5c3-2 4-6 3-10l-4-11c-5-18 4-37 21-44l12-5c3-1 5-4 5-7l2-12c3-19 20-32 39-31l12 1c4 0 7-1 9-4l7-10 6-7-7-4c-16-9-37-5-48 11l-7 10c-2 3-5 4-8 4l-13-1c-19-1-35 12-38 31l-2 12c-1 3-3 6-6 7l-11 5c-18 7-27 26-21 44l3 11c1 4 0 8-3 10l-5 5a31 31 0 00-2 45c6 6 14 9 23 9h48c-8 0-16-3-22-9z" fill="#f91"/>
  <g fill="#fff">
    <path d="M254 163l7-14a144 144 0 00-205 83l14 5a128 128 0 01184-74zM290 192l12-10c-8-9-17-17-26-24l-9 13c8 6 16 13 23 21zM319 246a142 142 0 00-136 100l14 4a128 128 0 01220-45l11-9c-27-32-67-50-109-50zM426 318c7 10 12 21 16 32l14-4c-4-13-10-26-18-37l-12 9z"/>
  </g>
  <path d="M512 384c0-10-5-20-13-27l-5-5-1-2 4-11c6-22-5-45-26-54l-11-4-1-2-2-12c-4-22-24-39-47-37l-12 1-2-1-7-10c-5-7-11-12-18-15-2-15-12-27-26-33l-12-5-1-1-2-12c-3-23-24-39-46-37h-13-1l-8-11a44 44 0 00-57-12l-11 6h-2l-11-6c-20-12-45-6-58 12l-7 11h-14c-23-2-43 14-47 37l-2 12-1 1-11 5c-21 9-32 32-26 54l4 11-1 2-5 5c-8 7-13 16-13 27a39 39 0 0039 40h104c-4 8-4 18-1 28l3 11v2l-6 5c-8 7-12 17-13 27 0 11 4 21 11 28 8 8 18 12 28 12h308c11 0 21-4 28-12 7-7 11-17 11-28zM39 296a24 24 0 01-23-16h38v-15H16l7-10 5-5c5-4 7-11 5-18l-3-11c-5-14 2-30 16-35l12-5c5-2 9-7 10-13l2-12c2-15 16-26 31-24h12c6 1 12-2 15-7l7-10c9-12 25-16 38-8l11 6c6 3 12 3 17 0l11-6c5-3 9-4 14-4l-4 19 15 3 3-19c4 2 8 5 10 9l7 10c4 5 10 8 16 7h12c15-2 28 9 30 24l2 12c1 6 5 11 11 13l11 5c7 3 13 8 16 15-8 0-16 2-24 6l-11 7h-2l-11-7c-19-11-44-6-57 13l-8 10-1 1-13-1c-22-2-43 15-46 37l-2 12-1 2-12 4c-6 3-11 6-15 11H39zm451 106c-4 5-10 7-17 7h-47v-23h-15v23h-14v-33h-15v33H165a23 23 0 01-24-24c1-7 3-12 8-17l6-5c5-4 7-11 5-17l-4-11c-4-15 3-30 17-36l11-4c6-3 10-8 11-14l2-12a29 29 0 0130-24l12 1c6 0 12-2 16-7l7-10c2-4 5-6 8-8l7 16 13-5-6-16c5 0 11 1 16 4l11 7c5 3 11 3 17 0l11-7c13-7 29-4 38 9l7 10c3 5 9 7 15 7l12-1c15-1 29 10 31 24l2 12c1 6 5 11 10 14l12 4c14 6 21 21 16 36l-3 11c-2 6 0 13 5 17l5 5c5 5 8 10 8 17s-2 12-7 17z"/>
</svg>