<svg xmlns="http://www.w3.org/2000/svg" viewBox="0 0 512 512">
  <path d="M359 99V75H153v24c0 21-9 40-23 51a63 63 0 00-24 51v265c0 21 14 38 32 38h236c18 0 32-17 32-38V201c0-21-9-40-24-51a63 63 0 01-23-51z" fill="#ce8951"/>
  <path d="M406 201v265c0 21-14 38-32 38h-35c17 0 31-17 31-38V201c0-21-9-40-23-51-8-5-13-13-18-22-4-9-6-19-6-29V75h36v24c0 10 2 20 6 29s10 17 17 22c15 11 24 30 24 51z" fill="#c4773d"/>
  <path d="M368 75H144c-3 0-5-2-5-5V12c0-2 2-4 5-4h224c3 0 5 2 5 4v58c0 3-2 5-5 5z" fill="#ffd04f"/>
  <path d="M368 75h-45V8h45c3 0 5 2 5 4v58c0 3-2 5-5 5z" fill="#f9bd16"/>
  <path fill="#ffd04f" d="M106 220h300v190H106z"/>
  <path fill="#f9bd16" d="M370 220h36v190h-36z"/>
  <path d="M215 289c-6-1-11-6-13-12l-7-10c-12-13-30-15-40-5-11 10-11 29 1 41l10 8c5 2 9 8 11 14 1 7 4 13 10 19 13 15 35 17 48 5s12-33-2-48c-5-6-11-10-18-12z" fill="#eea33e"/>
  <path d="M235 349c-5 4-10 7-16 8 11-13 10-33-3-47-5-6-11-10-18-12-6-2-11-6-13-12l-7-11c-7-7-17-11-26-10l3-3c10-10 28-8 40 5l7 10c2 6 7 11 13 12 7 2 13 6 18 12 14 15 14 36 2 48z" fill="#df862a"/>
  <path d="M387 144c-13-9-21-27-21-45V82h2c7 0 12-5 12-12V12c0-6-5-12-12-12H244a8 8 0 100 15h121v52H147V15h42a8 8 0 100-15h-45c-7 0-12 6-12 12v58c0 7 5 12 12 12h2v17c0 18-8 36-21 45a71 71 0 00-26 57v265c0 25 17 46 39 46h236c22 0 39-21 39-46V201c0-23-10-45-26-57zm-253 12c17-12 27-34 27-57V82h190v17c0 23 10 45 27 57 13 9 20 26 20 45v11h-72a8 8 0 100 16h72v175H114V228h157a8 8 0 100-16H114v-11c0-19 7-36 20-45zm240 341H138c-14 0-24-14-24-31v-48h284v48c0 17-10 31-24 31z"/>
  <path d="M217 282c-4-1-7-4-8-7-2-5-5-9-9-13-14-16-37-18-51-5-13 13-13 36 1 51l12 9c4 2 6 5 7 9 2 9 6 17 12 23a47 47 0 0034 15c9 0 18-3 25-9 16-15 15-41-1-59-6-7-14-11-22-14zm12 62c-4 4-10 6-17 5-8-1-15-4-20-10-4-5-7-10-8-16-2-8-7-15-15-19l-8-6c-8-9-9-23-1-30 3-3 7-4 11-4 7 0 13 2 18 8 3 2 4 5 6 8 3 8 9 14 18 17 5 1 11 5 15 9 10 12 11 29 1 38zM289 281h46a8 8 0 100-15h-46a8 8 0 100 15zM289 307h84a8 8 0 100-15h-84a8 8 0 100 15zM289 333h74a8 8 0 100-15h-74a8 8 0 100 15zM289 359h37a8 8 0 100-15h-37a8 8 0 100 15zM161 28v25a8 8 0 1015 0V28a8 8 0 10-15 0zM190 28v25a8 8 0 1015 0V28a8 8 0 10-15 0zM227 61c4 0 7-4 7-8V28a8 8 0 10-15 0v25c0 4 4 8 8 8zM264 53V28a8 8 0 10-16 0v25a8 8 0 1016 0zM293 53V28a8 8 0 10-15 0v25a8 8 0 1015 0zM322 53V28a8 8 0 10-15 0v25a8 8 0 1015 0zM351 53V28a8 8 0 10-15 0v25a8 8 0 1015 0z"/>
</svg>