<svg height="512" width="512" xmlns="http://www.w3.org/2000/svg">
  <path d="M364 190C249 266 235 328 46 424c-10 5-6 19 5 19 87 0 289-20 398-181z" fill="#fca62f"/>
  <g fill="#f98824">
    <path d="M325 218c-16 83-59 150-107 202-39 11-77 17-109 20 14-26 25-50 34-72 86-56 119-101 182-150zM449 262c-9 14-19 27-30 39a50 50 0 01-24-32c-11 6-23 11-34 12-4 0-8-3-8-7 0-11 3-23 8-35l-4-1c-16-4-25-12-31-21l38-27z"/>
    <path d="M449 262C340 423 138 443 51 443c-11 0-15-14-5-19l8-4c96-5 271-35 369-180z"/>
  </g>
  <path d="M454 270c-6-7-7-17-1-24l6-7a49 49 0 00-73-66l-7 8c-6 7-16 7-23 1-5-4-12 0-11 7 4 10 12 23 34 29l4 1c-5 11-8 22-8 33 0 4 4 7 7 6 11-1 22-5 32-11l2 4c8 21 22 28 33 30 6 1 10-7 5-11z" fill="#a3e440"/>
  <path d="M449 281c-5-1-11-3-16-7 3-2 4-7 1-10-7-6-8-17-2-23l7-8a49 49 0 00-14-76 49 49 0 0131 12c20 18 22 49 3 70l-6 7c-6 7-5 17 1 24 5 4 1 12-5 11z" fill="#8dc637"/>
  <g>
    <path d="M423 175l21 8c13-26 17-51 19-64 0-5-3-9-8-9l-17-1c-5-1-10 4-9 10 4 24-2 46-6 56z" fill="#a3e440"/>
  </g>
  <g>
    <path d="M207 127c-61 123-43 183-158 361-6 10 4 21 14 15 75-44 240-163 254-357z" fill="#fb4a59"/>
    <g fill="#f82f40">
      <path d="M317 146l-7 48a50 50 0 01-37-15c-6 11-14 21-24 28-3 2-7 1-9-2-6-10-10-22-11-35l-4 1c-16 5-28 2-37-2 5-13 11-27 19-42z"/>
      <path d="M317 146C303 340 138 459 63 503c-10 6-20-5-14-15l5-7c81-53 217-166 229-341z"/>
    </g>
    <path d="M325 150c-9-2-15-10-13-19l2-10a49 49 0 00-97-20l-2 10c-2 9-10 14-20 12-6-1-10 7-5 12 8 7 22 14 44 8l4-1c1 12 4 23 10 33 2 3 6 4 9 2 9-7 16-16 22-26l3 2c17 14 33 13 44 9 6-2 5-11-1-12z" fill="#1ca56f"/>
    <path d="M326 162c-5 2-11 3-17 3 1-4 0-9-5-10-9-2-15-10-13-19l2-10a49 49 0 00-50-59 49 49 0 0132-4c27 5 44 31 39 58l-2 9c-2 10 4 18 13 20 6 1 7 10 1 12z" fill="#158f5e"/>
    <g>
      <path d="M256 80h23c3-28-2-53-5-66-1-5-6-8-11-6l-15 4c-6 2-8 8-5 13 11 22 13 44 13 55z" fill="#1ca56f"/>
    </g>
  </g>
  <g>
    <path d="M306 377c-36 19-77 34-122 44l33-34a7 7 0 10-11-9A619 619 0 0155 496v-3c72-111 92-177 112-240l12-39a7 7 0 10-14-5l-13 39c-12 41-25 83-53 138-17 10-36 21-57 31-7 4-11 12-9 20s9 14 17 14h14l-21 33c-5 7-4 16 2 22a18 18 0 0022 3c26-15 61-38 96-68 55-10 106-27 150-50a8 8 0 00-7-14zM50 436l-2-2c-1-1-1-3 1-4l38-19-14 24-23 1z"/>
    <path d="M465 244a56 56 0 00-5-80c6-18 9-34 10-44a16 16 0 00-15-18l-16-1a16 16 0 00-17 19v29c-16 0-31 7-42 19l-6 8c-4 3-9 3-13 0-5-4-12-4-17-1s-8 10-6 16l3 6-29 22c4-16 7-31 9-48l7-2c6-2 10-7 9-13 0-7-4-12-10-13-6-2-9-6-8-11l2-10c6-26-9-53-34-64 0-19-3-36-6-46a16 16 0 00-20-11l-15 4a16 16 0 00-10 23c5 10 9 20 10 29-18 7-32 23-36 42l-2 10c-1 5-6 8-11 7-6-1-12 2-15 8-3 5-2 12 3 16l5 4-13 31a8 8 0 0014 5l13-29c7 2 16 3 27 1 2 10 6 19 10 27a14 14 0 0020 4c7-5 14-12 20-21 9 6 17 9 25 10-9 63-35 123-78 178a8 8 0 0012 9c28-36 49-74 63-113 16-14 31-25 46-36 5 5 13 11 24 14-4 10-6 20-5 28a14 14 0 0015 14c8-1 18-4 27-8 5 10 11 17 17 21-25 31-55 58-90 81a8 8 0 008 12c38-23 70-52 96-86a51 51 0 009 2c5 0 10-2 12-7 3-6 2-12-2-17-4-4-5-9-2-13zm-181-99a8 8 0 00-12 2c-5 10-12 18-19 23-4-8-7-17-8-29a7 7 0 00-10-6l-3 1c-14 4-25 2-34-5 12 1 22-7 25-19l2-10c2-13 11-24 23-29l1 7c0 5 3 8 7 8s8-3 8-8a126 126 0 00-15-60h1l15-5h1l1 1c3 12 7 36 4 64a8 8 0 0015 1l1-6c15 9 23 27 19 44l-2 10c-2 12 5 23 16 27-11 3-22 0-33-8l-3-3zm170 89l-7 7c-8 9-8 22 0 32-11-3-19-12-24-25l-2-3a8 8 0 00-11-4c-10 5-19 9-27 10 0-9 2-18 7-29a7 7 0 00-6-10l-3-1c-14-4-23-11-27-22 10 7 23 6 31-3l7-8c7-8 16-13 27-14l-3 9a7 7 0 1014 5 126 126 0 007-62h1l16 1 1 1v1c-1 12-5 36-17 61a7 7 0 0013 7l4-8a41 41 0 01-1 55z"/>
  </g>
</svg>