<svg xmlns="http://www.w3.org/2000/svg" viewBox="0 0 512 512">
  <path d="M328 503H184c-5 0-10-5-10-10v-45h164v45c0 5-5 10-10 10z" fill="#ef2929"/>
  <path d="M328 503h-16v-55h26v45c0 5-5 10-10 10z" fill="#d31a1a"/>
  <path d="M322 448H190C89 448 8 367 8 266v-28c0-4 2-7 6-7h484c4 0 6 3 6 7v28c0 101-81 182-182 182z" fill="#ef2929"/>
  <path d="M504 238v28c0 101-81 182-182 182 0 0 139-34 155-175v-42h21c4 0 6 3 6 7z" fill="#d31a1a"/>
  <path d="M35 231c0-13-5-22-2-34 2-13 15-23 19-35s1-28 8-39c6-12 21-17 30-26 8-10 10-26 20-35 10-8 26-7 37-14 12-6 19-21 31-25s27 1 40-1 25-13 38-13 25 11 38 13 28-3 40 1 19 19 31 25c11 7 27 6 37 14 10 9 12 25 20 35 9 9 24 14 30 26 7 11 4 27 8 39s17 22 19 35c3 12-2 21-2 34H35z" fill="#f9e8d4"/>
  <path d="M294 22c13 2 28-3 40 1s19 19 31 25c11 7 27 6 37 14 10 9 12 25 20 35 9 9 24 14 30 26 7 11 4 27 8 39s17 22 19 35c3 12-2 21-2 34h-22l-1-12c-2-14-15-25-20-37-5-13-1-30-8-42s-23-17-32-28c-9-10-11-27-22-36-10-9-27-8-39-15-9-5-14-13-22-19-7-7-16-9-17-20z" fill="#e8d0ba"/>
  <path d="M498 224h-13l1-6c1-7 2-14 1-23-2-9-7-16-12-23l-8-13-2-15c-1-9-2-17-6-25-5-8-12-13-19-18l-12-9-8-14c-3-8-7-16-13-21-7-6-16-8-24-10l-15-5-11-11c-6-6-12-12-21-15-8-3-17-2-25-1h-16l-14-6c-8-3-16-7-25-7s-17 4-25 7l-14 6h-16c-8-1-17-2-25 1s-14 8-18 13a8 8 0 1010 11c4-4 8-8 13-10s12-1 19-1c6 1 13 2 20 1l18-7c6-3 12-6 18-6s12 3 18 6l18 7c7 1 14 0 20-1 7 0 14-1 19 1s10 7 15 12l15 13c6 3 12 5 19 6 6 2 13 4 17 7 4 4 7 10 10 16 2 6 5 12 10 17 4 5 9 9 15 13s11 8 14 12c3 5 3 12 4 19 0 6 1 13 3 19 2 7 6 12 10 17 4 6 8 11 9 17s0 11-1 17l-1 9H42l-1-9c-1-6-2-11-1-17s5-11 9-17c4-5 8-10 10-17 2-6 3-13 3-19 1-7 1-14 4-19 3-4 8-8 14-12s11-8 15-13c5-5 8-11 10-17 3-6 6-12 10-16l10-5a8 8 0 00-5-14c-4 1-10 3-15 8-6 5-10 13-13 21l-8 14-12 9c-7 5-14 10-19 18-4 8-5 16-6 25l-2 15-8 13c-5 7-10 14-12 23-1 9 0 16 1 23l1 6H14c-8 0-14 6-14 14v28c0 97 73 177 167 188v39c0 9 7 17 17 17h144c10 0 17-8 17-17v-39c54-6 102-35 133-80a8 8 0 10-12-9c-31 45-81 73-136 76H181c-92-5-166-81-166-175v-27h482v27c0 21-4 41-11 60a8 8 0 0014 5c8-20 12-42 12-65v-28c0-8-6-14-14-14zM330 493l-2 2H184l-2-2v-37h148v37z"/>
  <circle cx="354.1" cy="114.4" r="8.5"/>
  <circle cx="308.8" cy="69.1" r="8.5"/>
  <circle cx="300.3" cy="120.3" r="8.5"/>
  <circle cx="138.4" cy="146.2" r="8.5"/>
  <circle cx="115.9" cy="191.4" r="8.5"/>
</svg>