<svg xmlns="http://www.w3.org/2000/svg" viewBox="0 0 512 512">
  <g fill="#a9dad9">
    <path d="M414 391l-52-285-32-12-192 381 6 10c8 12 21 19 35 19h155c14 1 27-7 34-19l40-66a40 40 0 006-28zM361 266l23 130z"/>
  </g>
  <path d="M330 94l-74-28-106 40-52 285a40 40 0 006 28l34 56h41l182-209-31-172z" fill="#c2e2dd"/>
  <path d="M390 79c0-39-60-71-134-71S122 40 122 79c1 15 13 27 28 27h212c15 0 27-12 28-27z" fill="#a9a499"/>
  <path d="M156 76h150c15 0 27-12 27-27v-1c-1-18-14-33-31-36-14-3-30-4-46-4-48 0-89 13-113 33-14 12-5 35 13 35z" fill="#d4cfc2"/>
  <path d="M128 396a10 10 0 001 7l2 3 39 64c2 3 5 5 9 5h155c3 0 7-2 8-5l39-64 2-3a10 10 0 001-7l-23-130H151l-23 130z" fill="#fff9eb"/>
  <path d="M361 266h-23l18 104a70 70 0 01-69 82H159l11 18c2 3 5 4 9 4h155c3 1 7-1 8-4l39-64 2-3a10 10 0 001-7l-23-130z" fill="#d4cfc2"/>
  <path d="M421 390l-50-278c15-3 26-17 26-33 0-22-15-42-43-57-26-14-61-22-98-22s-72 8-98 22c-28 15-43 35-43 57 0 16 11 30 26 33L91 390a47 47 0 006 33l41 66c9 14 24 23 41 23h155c16 0 32-9 40-23l41-66a47 47 0 006-33zM130 79c0-35 58-64 126-64s126 29 126 64c0 11-9 20-20 20H150c-11 0-20-9-20-20zm232 402c-6 10-17 16-28 16h-9l14-70a8 8 0 00-15-2l-14 72H202l-18-88a7 7 0 10-14 3l17 85h-8c-12 0-22-6-28-16l-41-66-4-10v-13l50-278h39l-6 61a7 7 0 1015 2l6-63h92l11 123a8 8 0 0015-2l-11-121h39l26 145H151a7 7 0 100 15h234l21 118a32 32 0 01-4 23l-40 66z"/>
  <circle cx="188.5" cy="58.5" r="7.5"/>
  <circle cx="233.5" cy="58.5" r="7.5"/>
  <circle cx="278.5" cy="58.5" r="7.5"/>
  <circle cx="323.5" cy="58.5" r="7.5"/>
  <circle cx="213.5" cy="28.5" r="7.5"/>
  <circle cx="258.5" cy="28.5" r="7.5"/>
  <circle cx="303.5" cy="28.5" r="7.5"/>
  <circle cx="153.5" cy="313.5" r="7.5"/>
  <circle cx="143.5" cy="373.5" r="7.5"/>
  <circle cx="228.5" cy="343.5" r="7.5"/>
  <circle cx="228.5" cy="298.5" r="7.5"/>
  <circle cx="273.5" cy="313.5" r="7.5"/>
  <circle cx="258.5" cy="373.5" r="7.5"/>
  <circle cx="303.5" cy="358.5" r="7.5"/>
  <circle cx="356.5" cy="313.5" r="7.5"/>
  <circle cx="288.5" cy="433.5" r="7.5"/>
  <circle cx="243.5" cy="433.5" r="7.5"/>
  <circle cx="273.5" cy="463.5" r="7.5"/>
  <circle cx="158.5" cy="433.5" r="7.5"/>
  <circle cx="358.5" cy="433.5" r="7.5"/>
  <circle cx="371.5" cy="373.5" r="7.5"/>
</svg>