<svg xmlns="http://www.w3.org/2000/svg" viewBox="0 0 470 470" width="512" height="512">
  <path d="M223 36l-63 30-64-30a86 86 0 01127 0z" fill="#a2c352"/>
  <path d="M350 36l-63 30-64-30a86 86 0 01127 0z" fill="#ef431d"/>
  <path d="M247 434l63-30 64 30a86 86 0 01-64 28c-25 0-47-11-63-28z" fill="#a2c352"/>
  <path d="M120 434l63-30 64 30a86 86 0 01-64 28c-25 0-47-11-63-28z" fill="#ef431d"/>
  <path d="M36 223l30 64-30 63a86 86 0 01-28-63c0-25 11-48 28-64z" fill="#a2c352"/>
  <path d="M36 96l30 64-30 63a86 86 0 01-28-63c0-25 11-48 28-64z" fill="#ef431d"/>
  <path d="M434 247l-30-64 30-63c17 16 28 38 28 63s-11 48-28 64z" fill="#a2c352"/>
  <path d="M434 374l-30-64 30-63c17 15 28 38 28 63s-11 48-28 64z" fill="#ef431d"/>
  <path d="M350 36H96c-33 0-60 27-60 60v254l2 16 28-28L338 66l28-28-16-2z" fill="#fda162"/>
  <path d="M66 338l-28 28c3 10 9 19 16 26l21-21-9-33zM366 38l-28 28 33 9 22-21c-8-8-17-13-27-16z" fill="#cb9385"/>
  <path d="M371 75L75 371c-6-5-9-13-9-21v-12l69-203 203-69h12c8 0 16 3 21 9z" fill="#fdfa7b"/>
  <path d="M338 66L66 338V96c0-8 3-15 9-21s13-9 21-9h242z" fill="#fefdca"/>
  <path d="M416 77l-21 22-51 335h30c33 0 60-27 60-60V120c0-17-7-32-18-43z" fill="#cb9385"/>
  <path d="M99 395l-22 21c11 11 26 18 43 18h224c33 0 60-27 60-60L99 395z" fill="#fda162"/>
  <path d="M395 99l-21 21-30 284h30c8 0 15-4 21-9 6-6 9-13 9-21V120c0-8-3-16-9-21z" fill="#fdfa7b"/>
  <path d="M374 120v254c0 8-3 15-9 21-6 5-13 9-21 9H120c-8 0-16-4-21-9l275-275z" fill="#fefdca"/>
  <path d="M398 59a8 8 0 000-10 67 67 0 00-45-20 94 94 0 00-66-29c-24 0-46 9-64 26a94 94 0 00-63-26c-25 0-49 10-67 29-35 2-62 29-64 64a94 94 0 00-29 67c0 23 9 46 26 63a94 94 0 00-26 64c0 24 10 49 29 66 1 17 8 33 20 45a8 8 0 0010 0L398 59zm-68-30h-87c13-9 28-14 44-14 15 0 30 5 43 14zm-127 0h-87c13-9 28-14 44-14 15 0 30 5 43 14zM15 160c0-16 5-31 14-44v87c-9-13-14-28-14-43zm0 127c0-16 5-31 14-44v87c-9-13-14-28-14-43zm39 95c-7-9-10-20-10-32V96c0-29 23-52 52-52h254c12 0 23 3 32 10l-11 11c-6-4-13-6-21-6H238a7 7 0 100 15h112l10 2L76 360l-2-10V96c0-6 2-11 6-16 5-4 10-6 16-6h112a7 7 0 100-15H96c-10 0-19 4-26 11S59 86 59 96v254c0 8 2 15 6 21l-11 11zM470 183c0-24-10-49-29-66-1-17-8-33-20-45a8 8 0 00-10 0l-21 21L93 390l-21 21c-3 3-3 7 0 10 12 12 28 19 45 20 17 18 42 29 66 29s46-9 64-26c17 17 40 26 63 26 25 0 49-10 67-29 35-2 62-29 64-64 18-18 29-42 29-67 0-23-9-46-26-63 17-18 26-41 26-64zm-15 0c0 16-5 31-14 44v-87c9 13 14 28 14 43zM140 441h87c-13 9-28 14-44 14-15 0-30-5-43-14zm127 0h87c-13 9-28 14-44 14-15 0-30-5-43-14zm159-67c0 29-23 52-52 52H120c-12 0-23-3-32-10l11-11c6 4 13 6 21 6h254c10 0 19-4 26-11s11-16 11-26V262a7 7 0 10-15 0v112c0 6-2 11-6 16-5 4-10 6-16 6H120l-10-2 284-284 2 10v112a7 7 0 1015 0V120c0-8-2-15-6-21l11-11c7 9 10 20 10 32v254zm29-64c0 16-5 31-14 44v-87c9 13 14 28 14 43z"/>
  <circle cx="116.3" cy="176.3" r="7.5"/>
  <circle cx="146.3" cy="206.3" r="7.5"/>
  <circle cx="353.7" cy="351.8" r="7.5"/>
</svg>