<svg height="512" width="512" xmlns="http://www.w3.org/2000/svg">
  <path d="M472 210H40c-7 0-13 6-13 13v26c0 7 6 12 13 12h432c7 0 13-5 13-12v-26c0-7-6-13-13-13zM462 261H50c0 86 52 160 127 191 4 2 6 6 5 10l-9 35c-1 4 1 7 5 7h156c4 0 6-3 5-7l-9-35c-1-4 1-8 5-10 75-31 127-105 127-191z" fill="#75cef9"/>
  <path d="M472 210h-27v1c0 17-14 30-31 30H27v8c0 7 6 12 13 12h432c7 0 13-5 13-12v-26c0-7-6-13-13-13zM335 452c75-31 127-105 127-191h-40c-7 73-52 135-115 166-11 5-16 17-13 29 4 14-7 28-22 28h-96l-3 13c-1 4 1 7 5 7h156c4 0 6-3 5-7l-9-35c-1-4 1-8 5-10z" fill="#6bbef6"/>
  <g fill="#f4fbff">
    <path d="M132 100l56 32c4 3 6 7 6 12v-19c0-7 6-13 13-13h56l-25-95c-2-7-9-11-16-9l-95 25c-7 2-11 9-9 16zM263 112h42c7 0 13 6 13 13v19c0-5 2-9 6-12l56-32 14-51c2-7-2-14-9-16L290 8c-7-2-14 2-16 9l-18 68z"/>
    <path d="M41 190l34 20h83l34-60c4-6 2-14-4-18l-85-49c-6-3-14-1-18 5l-49 85c-3 6-1 14 5 17z"/>
    <path d="M318 210v-85c0-7-6-13-13-13h-98c-7 0-13 6-13 13v85z"/>
    <path d="M354 210h83l34-20c6-3 8-11 5-17l-49-85c-4-6-12-8-18-5l-85 49c-6 4-8 12-4 18z"/>
  </g>
  <path d="M263 112l-25-95c-2-7-9-11-16-9l-20 5 10 38c6 23-8 41-32 41h-13c-7 0-13 6-13 13v8l34 19c4 3 6 7 6 12v-19c0-7 6-13 13-13h56zM385 33l-31-8v4l-6 22c-5 19-17 35-34 44l-29 17h20c7 0 13 6 13 13v19c0-5 2-9 6-12l56-32 14-51c2-7-2-14-9-16z" fill="#e4f6ff"/>
  <path d="M188 132l-85-49c-3-1-6-2-8-1l53 30c6 4 8 12 4 18l-19 33a55 55 0 01-47 27H40h1l34 20h83l34-60c4-6 2-14-4-18zM305 112h-27v51c0 15-12 27-27 27h-57v20h124v-85c0-7-6-13-13-13zM476 173l-49-85c-4-6-12-8-18-5l-10 6 37 64c3 6 1 14-5 17l-10 6c-16 9-34 14-52 14h-26l11 20h83l34-20c6-3 8-11 5-17z" fill="#e4f6ff"/>
  <path d="M456 314c4 1 8-1 9-6 3-12 4-26 5-39h2c11 0 20-9 20-20v-26c0-11-9-20-20-20h-7l10-6c10-6 13-18 7-28l-49-85c-5-9-18-13-28-7l-13 8 9-34c3-11-3-22-14-25L292 1c-11-3-22 3-25 14l-3 10a8 8 0 1015 4l3-10c0-3 3-5 6-4l95 26c3 0 4 3 4 6l-13 48-49 28c-1-10-9-18-20-18h-36l-5-20 6-23a8 8 0 00-14-5l-11-42c-3-11-14-17-25-14l-95 25c-11 3-17 14-14 25l9 34-13-8c-10-6-23-2-28 7l-49 85c-6 10-3 22 7 28l10 6h-7c-11 0-20 9-20 20v26c0 11 9 20 20 20h2a213 213 0 00132 190l1 1-10 36c-2 8 4 16 13 16h156c9 0 15-8 13-16l-10-36 1-1c52-22 94-64 116-116a7 7 0 10-14-6c-20 49-59 88-108 108-7 3-11 11-9 19l9 33H180l9-33c2-8-2-16-9-19-72-30-120-98-123-176h43a7 7 0 100-15H40c-3 0-5-2-5-5v-26c0-3 2-5 5-5h432c3 0 5 2 5 5v26c0 3-2 5-5 5H135a7 7 0 100 15h320c-1 12-2 24-5 36-1 4 2 8 6 9zM328 139l85-49c3-2 6-1 7 2l49 85c2 2 1 6-2 7l-32 19h-76l-33-57c-1-2-1-6 2-7zm-3 36l16 28h-16zm-15-50v78H202v-78c0-3 2-5 5-5h98c3 0 5 2 5 5zm-123 78h-16l16-28zM125 47c0-3 1-6 4-6l95-26c3-1 6 1 6 4l19 68 4 18h-46c-11 0-19 8-20 18l-49-28zM45 184c-3-1-4-5-2-7l49-85c1-3 4-4 7-2l85 49c3 1 3 5 2 7l-33 57H77z"/>
  <path d="M220 447a7 7 0 100 15h72a7 7 0 100-15z"/>
</svg>