<svg xmlns="http://www.w3.org/2000/svg" viewBox="0 0 470 470" width="512" height="512">
  <path fill="#fda162" d="M388 430h60v-30l-30-20-30 20z"/>
  <path fill="#fd7555" d="M388 340h60v60h-60z"/>
  <path fill="#fda162" d="M23 430h60v-30l-30-20-30 20z"/>
  <path fill="#fd7555" d="M23 340h60v60H23zM433 290l-30 40 30 40h30v-80z"/>
  <path fill="#fda162" d="M8 290h425v80H8z"/>
  <path d="M128 50h-15L83 155l30 105h15c49 0 90-41 90-90v-30c0-50-41-90-90-90z" fill="#3f4c53"/>
  <path d="M98 50C48 50 8 90 8 140v30c0 49 40 90 90 90h15V50H98z" fill="#496a7e"/>
  <path d="M128 80H98c-34 0-60 27-60 60v30c0 33 26 60 60 60h30c33 0 60-27 60-60v-30c0-33-27-60-60-60z" fill="#fff"/>
  <path d="M113 120c15 0 29 11 33 25l-43 44a35 35 0 0110-69z" fill="#c1d560"/>
  <path d="M146 145a35 35 0 01-43 44c0-24 19-43 43-44z" fill="#fd7555"/>
  <path d="M8 320c227 0 227 20 455 20" fill="none" stroke="#fefdca" stroke-width="15" stroke-linecap="round" stroke-linejoin="round" stroke-miterlimit="10"/>
  <path d="M463 187c0-16-14-30-30-30l-10-60-60-20 40 183h30a30 30 0 0021-51c5-6 9-13 9-22z" fill="#fdce6e"/>
  <path d="M433 230c0-8-4-16-9-21a30 30 0 00-21-52V77L293 87l-10 70a30 30 0 00-22 52 30 30 0 0022 51h120c16 0 30-13 30-30z" fill="#fff"/>
  <path d="M358 50v40c35 0 65 29 65 65a20 20 0 1040 0c0-58-48-105-105-105z" fill="#fd7555"/>
  <path d="M253 155a20 20 0 1040 0c0-36 29-65 65-65V50c-58 0-105 47-105 105z" fill="#fda162"/>
  <path d="M378 42a115 115 0 00-40 0v218h40V42z" fill="#3f4c53"/>
  <path d="M463 282H8c-5 0-8 4-8 8v80c0 4 3 7 8 7h7v53c0 4 3 7 8 7h60c4 0 7-3 7-7v-30a7 7 0 10-15 0v22H30v-45h410v45h-45v-22a7 7 0 10-15 0v30c0 4 3 7 8 7h60c4 0 7-3 7-7v-53h8c4 0 7-3 7-7v-80c0-4-3-8-7-8zm-8 15v35c-108 0-165-5-219-9-55-5-112-10-221-10v-16h440zM15 362v-34c108 0 165 5 219 9 55 5 112 10 221 10v15H15zM101 196a42 42 0 0052-53 43 43 0 00-55-28 7 7 0 105 14 27 27 0 0132 10c-19 5-34 20-38 38a27 27 0 01-10-31 8 8 0 00-15-5 42 42 0 0029 55zm39-43v2a28 28 0 01-29 27c3-14 14-26 29-29z"/>
  <path d="M98 267h30c53 0 97-43 97-97v-30c0-54-44-98-97-98H98C44 42 0 86 0 140v30c0 54 44 97 98 97zM15 140c0-45 37-83 83-83h30c45 0 82 38 82 83v30c0 45-37 82-82 82H98c-46 0-83-37-83-82v-30z"/>
  <path d="M98 237h30c37 0 67-30 67-67v-30c0-37-30-68-67-68H98c-38 0-68 31-68 68v30c0 37 30 67 68 67zm-53-97c0-29 24-53 53-53h30c28 0 52 24 52 53v30c0 29-24 52-52 52H98c-29 0-53-23-53-52v-30zM466 170c2-4 4-10 4-15 0-12-2-24-5-34l-1-1c-7-22-21-42-40-56h-1c-11-8-24-15-38-18v-4c0-4-3-7-6-8-14-2-29-2-43 0-3 1-6 4-6 8v4c-14 3-27 10-38 18h-1c-19 14-33 34-40 56l-1 1c-3 10-5 22-5 34 0 5 2 11 4 15a37 37 0 003 39c-5 6-7 13-7 21 0 21 17 37 38 37h95c4 0 7-3 7-7V105c18 9 30 29 30 50a28 28 0 0039 25 22 22 0 01-6 23 7 7 0 000 11c5 4 7 10 7 16 0 12-10 22-22 22h-25a7 7 0 100 15h25a38 38 0 0030-58 37 37 0 003-39zM370 48v204h-25V52v-4h25zm-76 33l2 2a7 7 0 1012-9l-2-2c8-5 16-8 24-11v27a72 72 0 00-45 67 13 13 0 01-21 9c-3-2-4-6-4-9 0-8 1-16 3-23l2 1a8 8 0 104-14l-2-1c6-15 16-27 27-37zm-34 149c0-6 2-12 7-16a7 7 0 000-11 22 22 0 01-6-23c4 2 7 2 11 2 16 0 28-12 28-27 0-21 12-41 30-50v147h-47c-13 0-23-10-23-22zm170-75c0-30-18-56-45-67V61c8 3 16 6 24 11l-2 2a7 7 0 1012 9l2-2c11 10 21 22 27 37l-2 1a7 7 0 104 14l2-1c2 7 3 15 3 23 0 3-1 7-4 9a12 12 0 01-21-9z"/>
</svg>