<svg id="Layer_1" data-name="Layer 1" xmlns="http://www.w3.org/2000/svg" viewBox="0 0 1080 1080">
  <defs>
    <clipPath id="clip-path">
      <path class="cls-1" d="M475 416c46-50 114-80 194-72 107-20 303 42 266 251-24 132-141 205-266 148-31 14-61 22-89 23"/>
    </clipPath>
    <clipPath id="clip-path-2">
      <path class="cls-1" d="M622 647c0 135-127 212-244 155-131 67-244-20-244-155s103-259 244-244c133-18 244 109 244 244z"/>
    </clipPath>
    <style>
      .cls-1{fill:none}.cls-5{fill:#49321d}.cls-6{fill:#ef523d}.cls-9{fill:#fbcd0b}
    </style>
  </defs>
  <path d="M475 416c46-50 114-80 194-72 107-20 303 42 266 251-24 132-141 205-266 148-31 14-61 22-89 23" fill="#ce2027"/>
  <g clip-path="url(#clip-path)">
    <path d="M405 435c47-50 115-80 194-72 108-19 303 43 266 251-23 133-140 205-266 148-30 15-60 22-88 23" fill="#e62527"/>
  </g>
  <path class="cls-5" d="M481 421a225 225 0 0171-51 219 219 0 0191-19 238 238 0 0125 1h2a218 218 0 0139-3 273 273 0 0175 11c38 11 75 31 102 61a169 169 0 0132 53c8 21 13 44 13 71a276 276 0 01-5 48c-9 49-31 89-61 117s-68 44-111 44c-26 0-54-6-82-19l-4-2-3 2c-30 14-59 21-85 22a9 9 0 100 17c29-1 60-8 92-24l-3-7-4 8c30 13 61 20 89 20a178 178 0 00123-48c33-31 57-75 66-127a293 293 0 005-51c0-39-9-71-23-99a190 190 0 00-42-52c-25-22-54-37-84-48a290 290 0 00-90-14 236 236 0 00-42 3l2 9v-9a256 256 0 00-26-1 237 237 0 00-98 21 242 242 0 00-77 55 9 9 0 0013 11z"/>
  <path class="cls-6" d="M622 647c0 135-127 212-244 155-131 67-244-20-244-155s103-259 244-244c133-18 244 109 244 244z"/>
  <g clip-path="url(#clip-path-2)">
    <path d="M581 639c0 112-106 176-203 129-108 55-202-17-202-129s85-215 202-202c110-16 203 90 203 202z" fill="#d32027"/>
  </g>
  <path class="cls-5" d="M622 647h-8c0 50-19 91-47 120a153 153 0 01-109 46c-25 0-51-6-76-18l-4-2-4 2c-29 15-58 22-84 22a138 138 0 01-59-13c-26-12-48-33-64-60s-24-60-24-97c0-61 22-121 60-164a210 210 0 0167-53 191 191 0 0184-19 206 206 0 0123 1h2a177 177 0 0125-2 179 179 0 0181 20c38 19 70 50 93 88s36 84 36 129h17c0-65-25-128-66-175-21-24-45-44-72-57a196 196 0 00-89-22 194 194 0 00-27 2l1 8 1-8a224 224 0 00-25-2 208 208 0 00-92 22c-42 20-76 54-99 94a276 276 0 00-37 138c0 53 17 100 46 133a154 154 0 00118 54c29 0 60-8 92-24l-4-8-3 8c27 14 55 20 83 20a170 170 0 00121-51c32-32 52-78 52-132zM799 701a154 154 0 01-47 18 9 9 0 003 16 171 171 0 0053-19 9 9 0 00-9-15zM820 435c33 38 52 88 52 139 0 28-7 54-19 75a9 9 0 0014 9c14-24 22-53 22-84 0-55-21-109-56-150a9 9 0 10-13 11z"/>
  <path class="cls-6" d="M344 505l-10-13a32 32 0 00-25-12 32 32 0 00-6 1 99 99 0 00-39 16c-17 12-32 29-42 50a164 164 0 00-16 71c0 35 11 67 28 92a121 121 0 0031 31 99 99 0 0039 16 33 33 0 005 0 32 32 0 0025-11l10-12a9 9 0 00-13-11l-10 12a15 15 0 01-12 5 15 15 0 01-2 0 81 81 0 01-33-13c-15-11-27-26-36-44a147 147 0 01-15-64c0-32 10-60 25-82a105 105 0 0126-26 81 81 0 0132-14 14 14 0 013 0 15 15 0 0111 6l11 13a9 9 0 0013-11z"/>
  <path class="cls-9" d="M290 577c-4 5-13 3-19-3s-4-20-4-20 13-2 19 4 8 15 4 19zM295 622c0 6-8 11-17 11s-16-11-16-11 8-11 16-11 17 5 17 11zM290 667c4 4 3 13-4 19s-19 4-19 4-3-13 4-19 15-8 19-4z"/>
  <path class="cls-6" d="M429 516l10-13a15 15 0 0112-6 14 14 0 013 0 81 81 0 0132 14c14 10 27 25 36 44a147 147 0 0114 64c0 31-9 60-24 81a104 104 0 01-27 27 81 81 0 01-32 13 15 15 0 01-3 0 15 15 0 01-11-5l-10-12a9 9 0 10-13 11l10 12a32 32 0 0024 11 33 33 0 006 0 99 99 0 0039-16c18-12 32-30 42-51a164 164 0 0016-71c0-35-10-67-27-91a122 122 0 00-31-31 99 99 0 00-38-16 32 32 0 00-6-1 32 32 0 00-25 12l-11 13a9 9 0 1014 11z"/>
  <path class="cls-9" d="M470 577c4 5 13 3 19-3s4-20 4-20-13-2-20 4-8 15-3 19zM465 622c0 6 7 11 16 11s16-11 16-11-7-11-16-11-16 5-16 11zM470 667c-5 4-3 13 3 19s20 4 20 4 2-13-4-19-15-8-19-4z"/>
  <path fill="#7e973c" d="M752 445l-114-29-110 29 11-54-53-37 106-16 46-66 52 68 107 10-54 42 9 53z"/>
  <path class="cls-5" d="M752 445l2-9-116-29-99 26 10-46-40-28 88-13 42-59 47 61 89 8-42 33 11 57 8-1 2-9-2 9 9-2-9-47 67-53-124-11-57-74-51 72-124 18 67 46-13 63 121-32 125 31-2-13-9 2z"/>
</svg>