<svg xmlns="http://www.w3.org/2000/svg" viewBox="0 0 465 465" width="512" height="512">
  <path d="M361 66v40a40 40 0 01-63-2 40 40 0 01-65 0 40 40 0 01-65 0 40 40 0 01-64 2V66h257z" fill="#fff"/>
  <path d="M361 66H104c0-33 26-58 58-58h141c32 0 58 25 58 58z" fill="#fff8ed"/>
  <path d="M330 121c-13 0-25-7-32-17a40 40 0 01-65 0 40 40 0 01-65 0 40 40 0 01-64 2v147c0 30 24 56 54 58h149c30-2 54-28 54-58V106c-8 9-19 15-31 15z" fill="#6ecdfb"/>
  <path d="M307 311H158c-30 2-54 27-54 57h257c0-30-24-55-54-57z" fill="#1895c2"/>
  <path d="M84 368l8 74c0 8 8 16 17 16h247c9 0 17-8 17-16l8-74H84z" fill="#cfc8ab"/>
  <path d="M391 361h-23c-3-22-16-41-35-50 19-10 32-29 35-51h4a8 8 0 000-15h-4v-78h4a8 8 0 000-15h-4V73h4a8 8 0 000-15h-4c-4-33-32-58-65-58H162c-33 0-61 25-65 58h-4a8 8 0 000 15h4v79h-3a8 8 0 000 15h3v78h-3a8 8 0 000 15h3c3 22 16 41 35 51a66 66 0 00-35 50H74a8 8 0 000 15h3l7 67c1 12 12 22 25 22h247c13 0 24-10 25-22l7-67h3a8 8 0 000-15zM112 73h22a8 8 0 000-15h-22c4-24 25-43 50-43h141c25 0 46 19 50 43H164a8 8 0 000 15h189v79H112V73zm0 187h189a8 8 0 000-15H112v-78h241v78h-22a8 8 0 000 15h22c-4 23-23 41-46 43a66 66 0 00-6 0H164h-6c-23-2-42-20-46-43zm46 58h149c23 2 42 20 46 43H112c4-23 23-41 46-43zm208 123c0 5-5 9-10 9H109c-5 0-10-4-10-9l-7-65h281l-7 65z" fill="#191919"/>
  <path d="M330 113c-11 0-20-5-26-13a7 7 0 00-13 0 33 33 0 01-53 0 7 7 0 00-12 0 33 33 0 01-52 0 7 7 0 00-13 0c-6 8-16 13-26 13a8 8 0 000 15c12 0 24-5 33-13a48 48 0 0065 0 48 48 0 0065 0c8 8 20 13 32 13a8 8 0 000-15z" fill="#191919"/>
</svg>