<svg xmlns="http://www.w3.org/2000/svg" data-name="Layer 1 copy" width="512" height="512">
  <path d="M488 416c0 33-104 88-232 88S24 449 24 416V172h464v244z" fill="#f4dfcb"/>
  <path d="M56 269h400v128c0 40-90 72-200 72S56 437 56 397z" fill="#efd5ab"/>
  <ellipse cx="256" cy="268" rx="200" ry="76" fill="#d3ba8d"/>
  <path d="M414 129c44 11 74 26 74 43v4c0 12-17 9-39 19-13 5-23 29-42 33-15 3-35-14-53-12-15 2-30 24-48 25-16 1-33-19-50-19s-34 20-50 19c-18-1-33-23-48-25-18-2-38 15-53 12-19-4-29-28-42-33-22-10-39-7-39-19v-4c0-17 29-33 73-44" fill="#af4732"/>
  <path d="M96 64v57c0 30 72 55 160 55s160-25 160-55V64z" fill="#af4732"/>
  <path d="M96 64v25a8 8 0 00-8 8c0 7 3 14 8 20v4a20 20 0 001 7c-44 11-73 27-73 44v244c0 20 38 48 96 67V224c16-56 112-64 112-64V64z" fill="#fcfcfc" opacity=".2"/>
  <ellipse cx="256" cy="64" rx="160" ry="56" fill="#631c18"/>
  <path d="M221 119c-71-6-125-28-125-55s54-49 125-55c-30 6-53 28-53 55s23 49 53 55z" fill="#fcfcfc" opacity=".2"/>
  <path d="M112 455c38 14 90 22 144 22s106-8 144-22c39-14 62-33 64-55V269c0-12-6-24-19-35l-10 13c9 7 13 14 13 22 0 15-20 31-53 43-37 13-86 21-139 21s-102-8-139-21c-33-12-53-28-53-43 0-8 4-15 13-22l-10-13c-13 11-19 23-19 35v131c2 22 25 41 64 55zM64 301c11 10 27 19 48 26 38 14 90 22 144 22s106-8 144-22c21-7 37-16 48-26v96c0 15-20 31-53 43-37 13-86 21-139 21s-102-8-139-21c-33-12-53-28-53-43z"/>
  <path d="M89 480a437 437 0 00334 0c46-20 73-43 73-64V172c0-20-24-36-72-49V64c0-13-9-32-52-47C341 6 300 0 256 0s-85 6-116 17C97 32 88 51 88 64v58c-59 16-72 36-72 50v244c0 21 27 44 73 64zm57-448c29-10 68-16 110-16s81 6 110 16c26 9 42 21 42 32s-16 23-42 32c-29 10-68 16-110 16s-81-6-110-16c-26-9-42-21-42-32s16-23 42-32zm-42 60c8 7 20 13 36 19 31 11 72 17 116 17s85-6 116-17c16-6 28-12 36-19v5c0 11-15 22-41 31-30 10-69 16-111 16s-81-6-111-16c-25-9-41-20-41-31zm303 34c-4 9-19 19-40 26-30 10-69 16-111 16s-81-6-111-16c-21-7-36-17-40-26 29 22 92 34 151 34s122-12 151-34zM93 137c20 31 93 47 163 47 69 0 142-16 162-46 46 12 62 26 62 34v4c-1 2-7 3-12 4a154 154 0 00-22 7c-7 3-13 9-19 16-7 8-13 15-22 17-5 1-12-2-20-5-10-4-21-8-32-7-9 1-17 8-25 13-8 6-15 11-22 12-6 0-13-4-21-8-9-6-18-11-29-11s-20 5-29 11c-8 4-15 8-21 8-7-1-14-6-22-12-8-5-16-11-25-13-11-1-22 3-32 7-8 3-15 6-20 5-9-2-15-9-22-17-6-7-12-13-19-16a154 154 0 00-22-7c-5-1-11-2-12-4v-4c0-9 19-24 61-35zm-61 57l8 2a138 138 0 0120 6c4 2 8 7 13 12 8 9 17 19 30 22 10 2 20-2 30-6 8-3 17-7 24-6 5 1 11 5 18 10 9 7 19 14 30 15 10 0 20-5 29-11 8-4 16-8 22-8s14 4 22 8c8 5 18 11 27 11h2c11-1 21-8 30-15 7-5 13-9 18-10 7-1 16 3 24 6 10 4 20 8 30 6 13-3 22-13 30-22 5-5 9-10 13-12a138 138 0 0120-6l8-2v222c0 3-1 10-15 22-12 9-28 19-48 27-27 12-84 31-161 31s-134-19-161-31c-20-8-36-18-48-27-13-12-15-19-15-22z"/>
  <path d="M132 268a4 4 0 014 4h16a20 20 0 00-40 0h16a4 4 0 014-4zM256 296a4 4 0 014 4h16a20 20 0 00-40 0h16a4 4 0 014-4zM364 268a4 4 0 014 4h16a20 20 0 00-40 0h16a4 4 0 014-4z"/>
</svg>