<svg xmlns="http://www.w3.org/2000/svg" viewBox="0 0 512 512"><g fill="#a5dc69"><path d="M388 87h39v62h-39z"/><path d="M364 38h39v70h-39z"/></g><g fill="#f5b955"><path d="M96 292l12 1 36 6a218 218 0 00220-103l28-47h6l-11-41h-20l-33 35a191 191 0 01-207 51l-29-11c-13-4-27-5-40-3l-26-10-22 20c14 26 36 73 86 102z"/><path d="M112 381c14-7 29-11 44-11h36a218 218 0 00202-135l21-51h2l-2-35h-23l-28 47a218 218 0 01-220 103l-36-6c-15-2-31 0-45 5l-32-5-20 28c21 26 48 46 78 60h23z"/></g><path fill="#a5dc69" d="M415 184v-62h33l18 60z"/><path d="M466 182l-51 2-21 51a218 218 0 01-201 135h-37c-15 0-30 4-44 11H80l-15 31c25 22 55 39 87 48l9 3c68 19 140 14 204-14 46-20 84-53 112-94l3-4c28-42 30-96 3-140l-17-29z" fill="#f5b955"/><path fill="#46c373" d="M448 122l-44-84h-40l51 84z"/><path d="M492 206l-17-28-17-59-1-1-44-85c-2-3-5-5-9-5h-40a10 10 0 00-10 10v69l-27 30c-14 15-30 28-48 37a10 10 0 009 18c20-11 38-25 54-42l29-32h7v34l-23 39a208 208 0 01-210 98l-36-6-10-1c-22-13-38-29-50-46l11-14a10 10 0 00-16-13l-7 10-15-26 12-11 21 7 5 1c11-2 23-1 34 3l30 11c28 10 56 13 85 11a10 10 0 10-2-20c-26 2-51-1-76-10l-30-11c-13-5-28-6-42-4l-24-9c-3-2-7-1-10 2L3 183c-3 3-4 8-2 12l3 5c12 23 30 58 65 86l-7 2-29-5c-4 0-8 1-10 4L3 315c-2 4-2 9 1 12 18 22 40 41 65 55l-13 25c-2 4-1 9 2 12a231 231 0 0092 51l9 3a310 310 0 00210-15c47-21 88-54 117-97l2-4c31-45 32-104 4-151zm-94-92l7 11v14h-7v-25zm27 18h16l11 41-27 1v-42zm-27-84l34 64h-11l-40-64h17zm-24 50V73l5 8-1 1v16h-4zM24 320l12-16 26 4 5-1c12-4 26-6 39-4l36 6a229 229 0 00230-108l26-42h7v23l-20 49a208 208 0 01-193 129h-36c-16 0-32 4-46 12H92c-9-4-17-9-24-14l5-11a10 10 0 10-17-9l-5 8c-10-8-19-16-27-26zm448 26l-3 4c-27 39-64 70-108 90-62 27-132 32-197 13l-9-2-34-13 4-14a10 10 0 10-18-7l-4 11-26-19 9-18h26l5-1c12-7 25-10 39-10h36a229 229 0 00211-141l19-45 38-2 15 24c24 40 23 91-3 130z"/><path d="M249 207a10 10 0 0010-13 10 10 0 00-19 6c1 5 5 7 9 7zM450 325c-5-3-11-2-14 2l-1 1a10 10 0 0017 11c4-5 2-11-2-14zM410 358c-19 19-41 34-65 45-30 13-62 21-94 21a10 10 0 000 20c36-1 70-8 102-22 27-12 51-29 71-49a10 10 0 10-14-15z"/></svg>