<svg xmlns="http://www.w3.org/2000/svg" viewBox="0 0 470 470" width="512" height="512">
  <path d="M150 180h-30v135h30a68 68 0 000-135z" fill="#fd7555"/>
  <path d="M188 248c0-38-31-68-68-68H75a68 68 0 000 135h45c37 0 68-30 68-67z" fill="#fda162"/>
  <path d="M395 180h-30v135h30a68 68 0 000-135z" fill="#fd7555"/>
  <path d="M433 248c0-38-31-68-68-68h-45a68 68 0 000 135h45c37 0 68-30 68-67z" fill="#fda162"/>
  <path d="M408 360l-52 65h30c16 0 34-13 39-28l13-37h-30z" fill="#fdce6e"/>
  <path d="M33 360l12 37c5 15 23 28 39 28h272c16 0 34-13 39-28l13-37H33z" fill="#fdfa7b"/>
  <path d="M448 345H23a15 15 0 000 30h425a15 15 0 000-30z" fill="#fefdca"/>
  <path d="M75 323h75a75 75 0 000-150h-30V45a7 7 0 10-15 0v128H75a75 75 0 000 150zm0-135h75a60 60 0 010 120H75a60 60 0 010-120z"/>
  <circle cx="157.5" cy="277.5" r="7.5"/>
  <circle cx="67.5" cy="217.5" r="7.5"/>
  <path d="M320 323h75a75 75 0 000-150h-30V45a7 7 0 10-15 0v128h-30c-14 0-28 3-40 11a8 8 0 008 13c10-6 21-9 32-9h75a60 60 0 010 120h-75a60 60 0 01-51-92 8 8 0 10-12-8 75 75 0 0063 115zM448 338H23a23 23 0 000 45h9l6 16c6 19 26 34 46 34h302c20 0 40-15 46-34l6-16h9a23 23 0 001-45zm0 30h-15H98a7 7 0 100 15h324l-4 11c-4 13-19 23-32 23H84c-13 1-28-10-32-23l-4-11h20a7 7 0 100-15H37 23a8 8 0 010-15h425a8 8 0 010 15z"/>
  <circle cx="312.5" cy="217.5" r="7.5"/>
  <circle cx="402.5" cy="247.5" r="7.5"/>
  <circle cx="372.5" cy="277.5" r="7.5"/>
</svg>