<svg height="512" width="512" xmlns="http://www.w3.org/2000/svg">
  <path d="M502 230v9a16 16 0 01-17 16c-23 0-23-16-46-16s-23 16-46 16-23-16-45-16c-23 0-23 16-46 16s-23-16-46-16-23 16-46 16-23-16-46-16-23 16-46 16-23-16-46-16-23 16-46 16c-9 0-16-7-16-16v-9c0-9 7-16 16-16 23 0 23-16 46-16s23 16 46 16 23-16 46-16 23 16 46 16 23-16 46-16 23 16 46 16 23-16 46-16 22 16 45 16 23-16 46-16 23 16 46 16h1c9 0 16 7 16 16z" fill="#fff7bf"/>
  <path d="M478 254l-15 132c-3 21-20 36-41 36H90c-21 0-38-15-41-36L34 254c16-3 18-15 38-15 23 0 23 16 46 16s23-16 46-16 23 16 46 16 23-16 46-16 23 16 46 16 23-16 46-16c22 0 22 16 45 16s23-16 46-16c20 0 23 12 39 15z" fill="#ddb9a3"/>
  <path d="M474 213c-13-4-16-15-35-15-23 0-23 16-46 16s-23-16-45-16-23 16-46 16-23-16-46-16-23 16-46 16-23-16-46-16-23 16-46 16-23-16-46-16c-18 0-22 10-34 14C56 143 147 90 256 90s200 53 218 123z" fill="#ffee80"/>
  <g>
    <path d="M504 212c-5-5-11-8-18-8h-4c-8-24-24-47-46-66a10 10 0 00-13 15c13 12 24 24 31 37l-15-2c-14 0-22 6-28 10s-9 6-18 6c-8 0-11-2-17-6s-14-10-28-10c-15 0-23 6-29 10s-9 6-17 6c-9 0-12-2-18-6s-14-10-28-10c-15 0-23 6-29 10-5 4-9 6-17 6s-12-2-17-6c-7-4-14-10-29-10s-22 6-29 10c-5 4-9 6-17 6s-12-2-17-6c-6-4-14-10-29-10l-14 2c12-21 33-41 60-56a302 302 0 01238-17 10 10 0 107-20c-33-11-70-17-107-17-109 0-203 52-226 124h-4a26 26 0 00-26 26v9c0 14 11 25 25 26h1l13 122c3 26 25 45 51 45h332c26 0 48-19 51-45l13-122h1c14-1 25-12 25-26v-9c0-7-3-13-8-18zm-51 173c-2 16-15 27-31 27H90c-16 0-29-11-31-27L45 261l10-6c5-4 9-6 17-6s12 2 17 6c7 4 14 10 29 10s23-6 29-10c5-4 9-6 17-6s12 2 17 6c6 4 14 10 29 10s22-6 29-10c5-4 8-6 17-6 8 0 12 2 17 6 6 4 14 10 29 10s22-6 28-10 9-6 18-6c8 0 11 2 17 6s14 10 28 10c15 0 23-6 29-10s9-6 17-6 12 2 17 6l11 6zm39-146c0 3-2 6-6 6a38 38 0 01-6-1c-5-1-8-3-12-6-6-4-14-9-29-9-14 0-22 5-28 9s-9 7-18 7c-8 0-11-3-17-7s-14-9-28-9c-15 0-23 5-29 9s-9 7-17 7-12-3-18-7-14-9-28-9c-15 0-23 5-29 9-5 4-9 7-17 7s-12-3-17-7c-7-4-14-9-29-9s-22 5-29 9c-5 4-9 7-17 7s-12-3-17-7c-6-4-14-9-29-9-14 0-22 5-29 9a29 29 0 01-11 6l-6 1c-3 0-6-3-6-6v-9l2-4 4-2a46 46 0 0029-10c5-4 9-6 17-6s12 2 17 6c7 5 14 10 29 10s23-5 29-10c5-4 9-6 17-6s12 2 17 6c6 5 14 10 29 10 14 0 22-5 29-10 5-4 8-6 17-6 8 0 12 2 17 6 6 5 14 10 29 10 14 0 22-5 28-10 6-4 9-6 18-6s11 2 17 6c6 5 14 10 28 10 15 0 23-5 29-10 5-4 9-6 17-6 9 0 12 2 17 6a46 46 0 0030 10 6 6 0 016 6v9z"/>
    <circle cx="395.9" cy="123.1" r="10"/>
    <path d="M256 278c-6 0-10 5-10 10v66a10 10 0 0020 0v-66c0-5-4-10-10-10zM344 278c-6 0-11 4-11 10l-4 65a10 10 0 1020 1l4-65c0-6-4-10-9-11zM432 278c-5 0-10 4-11 9l-7 65a10 10 0 1020 2l7-64c0-6-3-11-9-12zM179 288a10 10 0 10-20 1l4 65a10 10 0 1020-1zM91 287a10 10 0 10-20 3l7 64a10 10 0 0020-2zM246 137v16a10 10 0 0020 0v-16a10 10 0 00-20 0zM333 131a10 10 0 10-12 16l16 12a10 10 0 0014-2c3-5 2-11-2-14zM179 131l-16 12a10 10 0 1012 16l16-12a10 10 0 10-12-16z"/>
  </g>
</svg>