<svg xmlns="http://www.w3.org/2000/svg" viewBox="0 0 470 470" width="512" height="512">
  <path fill="#ffcfb2" d="M204 235L7 38l29-28 196 196zM238 206L434 10l28 28-196 197z"/>
  <path d="M286 433l-50 10 10-55h30l10 45z" fill="#99d9ff"/>
  <path d="M256 433l-36 20-36-20 10-45 26-20 26 20 10 45zM320 433h-30l30 30h30c0-17-13-30-30-30z" fill="#ccecff"/>
  <path d="M290 433H150c-17 0-30 13-30 30h200c0-17-13-30-30-30z" fill="#edf8ff"/>
  <path d="M235 236h165c0 75-53 138-124 152h-41l-40-76 40-76z" fill="#ccecff"/>
  <path d="M235 236v152h-41c-71-14-124-77-124-152h165z" fill="#edf8ff"/>
  <path d="M340 236l-76 122h8c57-13 98-63 98-122h-30z" fill="#fdfa7b"/>
  <path d="M100 236l135-30 105 30c0 59-32 109-76 122h-67c-56-13-97-64-97-122z" fill="#fefdca"/>
  <path d="M235 68v170a85 85 0 000-170z" fill="#84b044"/>
  <path d="M235 68c30 0 55 38 55 85s-25 85-55 85a85 85 0 010-170z" fill="#a2c352"/>
  <path d="M305 151l55 85h30c0-47-38-85-85-85z" fill="#c1d560"/>
  <path d="M305 151c-47 0-85 38-85 85h140c0-47-25-85-55-85z" fill="#fdfa7b"/>
  <path d="M250 236v60a15 15 0 11-30 0v-60l-55-85c47 0 85 38 85 85z" fill="#975d50"/>
  <path d="M220 236h-30v30a15 15 0 11-30 0v-30H80c0-47 38-85 85-85 30 0 55 38 55 85z" fill="#b1786b"/>
  <circle cx="235" cy="37.5" r="30" fill="#ef431d"/>
  <path d="M368 259c-4-1-8 1-9 5-11 43-45 77-87 87h-74c-42-10-77-44-87-87a8 8 0 10-15 4 133 133 0 00101 98h75l2-1a132 132 0 00100-97c1-4-2-8-6-9zM256 425h-42a7 7 0 100 15h42a7 7 0 100-15z"/>
  <path d="M468 33L440 5c-3-3-8-3-11 0l-95 94a8 8 0 0011 11l89-89 18 17-112 112-13-4c-2-39-29-71-65-82a37 37 0 00-27-64 38 38 0 00-27 64 93 93 0 00-65 82l-13 4L18 38l18-17 89 89a8 8 0 0011-11L41 5c-3-3-8-3-11 0L2 33c-3 3-3 8 0 11l114 114a93 93 0 00-43 71h-3c-4 0-7 3-7 7a163 163 0 00122 158l-7 31h-28c-21 0-37 17-37 38 0 4 3 7 7 7h230c4 0 8-3 8-7 0-21-17-38-38-38h-28c-2-8-6-22-7-31 71-18 122-83 122-158 1-4-3-7-7-7h-3c-2-30-19-56-43-71L468 44c3-3 3-8 0-11zm-255 5a23 23 0 1145 0 23 23 0 01-45 0zm22 37c40 0 73 30 77 69a93 93 0 00-77 32 92 92 0 00-77-32c4-39 37-69 77-69zm-70 84c43 0 78 34 78 77v60a8 8 0 01-15 0v-60c0-4-4-7-8-7h-30c-4 0-7 3-7 7v30a8 8 0 01-15 0v-30c0-4-4-7-8-7H88c4-40 37-70 77-70zm155 281c10 0 18 6 21 15H129c3-9 11-15 21-15h34c4 0 7-2 8-6l8-38h70l8 38c1 6 7 6 8 6h34zm-45-59h-80c-66-14-114-71-117-137h75v22a23 23 0 0045 0v-22h15v52a23 23 0 0045 0v-52h134c-3 66-51 123-117 137zm107-152H257c-1-15-6-29-13-41a78 78 0 01138 41z"/>
</svg>