<svg height="512" width="512" xmlns="http://www.w3.org/2000/svg">
  <path d="M235 10c107 0 142 79 142 133-1 49-27 80-44 95-9 7-13 18-12 29l29 195c3 21-14 40-35 40H76c-21 0-37-19-34-40l28-195c2-11-2-22-11-29-17-15-43-46-44-95C14 89 50 10 157 10z" fill="#f9f5f3"/>
  <path d="M251 231a29 29 0 000 41l13 13c11 12 11 30 0 42a29 29 0 000 41l25 25c11 11 11 30 0 41l-20 20a29 29 0 01-41 0l-6-5a29 29 0 00-41 0l-5 5a29 29 0 01-41 0l-32-31a29 29 0 010-42l28-27c11-11 11-30 0-41l-6-6a29 29 0 010-41l16-16c11-11 11-30 0-41l-54-54a34 34 0 010-47l41-43c13-13 34-14 48 0l17 17c13 13 34 13 47 0s35-13 48 0l29 29c15 15 15 39 0 54z" fill="#ffc135"/>
  <path d="M420 173c5-64 30-108 50-134 9-12 27-5 27 9v425a29 29 0 01-58 0V315s-26-38-19-142z" fill="#bdd3dd"/>
  <path d="M470 39c9-12 27-5 27 9v171a21 21 0 01-21 21c-12 0-21-10-21-21v-29c0-10-8-17-18-17-7 0-13-5-16-11 6-58 30-99 49-123z" fill="#ffc135"/>
  <path d="M339 245c18-15 47-48 48-102 0-38-15-75-40-101-27-28-66-42-112-42h-78C111 0 72 14 45 42 19 68 4 105 5 143c1 54 30 87 48 102 6 5 8 13 7 20l-8 61a10 10 0 1019 2l9-60c2-14-3-29-14-38-15-13-41-41-41-87 0-33 12-65 34-87 24-24 57-36 98-36h78c41 0 74 12 97 36 22 22 35 54 35 87-1 46-26 74-41 87a42 42 0 00-14 38l28 196a25 25 0 01-25 28H76a25 25 0 01-24-28l7-48a10 10 0 10-20-3l-7 48a45 45 0 0044 51h239a45 45 0 0044-51l-28-196c-1-7 2-15 8-20z"/>
  <path d="M96 374a39 39 0 000 56l32 31a39 39 0 0055 0l5-5c8-7 20-7 27 0l5 5c16 15 41 15 56 0l20-20a39 39 0 000-55l-25-25a19 19 0 010-27 39 39 0 000-56l-13-13a19 19 0 010-27 10 10 0 00-15-14 39 39 0 000 55l14 14a19 19 0 010 27 39 39 0 000 55l25 25a19 19 0 010 27l-20 20c-8 8-20 8-27 0l-6-5a39 39 0 00-55 0l-5 5c-8 8-20 8-27 0l-32-31a19 19 0 010-27l28-28a39 39 0 000-55l-6-6a19 19 0 010-27l16-16a39 39 0 000-55l-54-54c-9-9-9-24 0-33l41-43a23 23 0 0133 0l18 17c17 17 44 17 61 0 10-9 25-9 34 0l29 29a28 28 0 010 40 10 10 0 1014 14 48 48 0 000-68l-29-29a44 44 0 00-62 0c-9 9-24 9-33 0l-17-17a43 43 0 00-63 0l-41 43a44 44 0 001 61l54 54a19 19 0 010 27l-16 16a39 39 0 000 55l6 6a19 19 0 010 27zM47 376c5 7 17 5 18-4 2-9-10-15-16-9-4 3-5 9-2 13zM507 48a25 25 0 00-30-25c-6 2-12 4-15 9-31 39-48 89-52 139-6 92 13 135 19 146v156a39 39 0 0078 0zm-70 115c-2 0-4-1-5-3 4-42 20-83 46-116 3-4 9-2 9 3v172a11 11 0 01-11 11c-6 0-11-5-11-11v-29c0-16-12-27-28-27zm31 329c-10 0-19-9-19-19V315c0-2 0-4-2-6 0 0-22-35-17-127l7 1c5 0 8 3 8 7v29a31 31 0 0042 29v225c0 10-8 19-19 19z"/>
  <path d="M292 192c-2-4-6-5-11-4-4 1-7 5-7 9 0 9 11 14 17 7 4-3 4-8 1-12z"/>
</svg>