<svg height="512" width="512" xmlns="http://www.w3.org/2000/svg">
  <g clip-rule="evenodd" fill-rule="evenodd">
    <path d="M135 74a570 570 0 00242 0c-33-40-75-64-121-64s-88 24-121 64z" fill="#fff"/>
    <path d="M256 87a570 570 0 01-147-19c-14-4-28 4-32 18s5 28 19 32a632 632 0 00320 0 26 26 0 10-13-50 578 578 0 01-147 19z" fill="#c68a65"/>
    <path d="M256 139c-54 0-108-8-160-21-41 78-37 224-6 307a56 56 0 00-33 63 57 57 0 0091-23c29 13 66 21 108 21s79-8 108-21c4 12 13 23 25 30 21 12 48 8 66-7 5-26-8-52-33-63 31-83 35-228-6-307-52 13-106 21-160 21zm0 171c0-25 20-45 45-45h35c0 25-20 45-45 45zm-22-74c0-17 9-31 22-39a45 45 0 010 78c-13-8-22-22-22-39zm22 139c0-25 20-45 45-45h45c0 25-20 45-45 45zm0-65h-35c-25 0-45-20-45-45h35c25 0 45 20 45 45zm-90 20h45c25 0 45 20 45 45h-45c-25 0-45-20-45-45z" fill="#ddb9a3"/>
    <g fill="#ffc144">
      <path d="M256 197a45 45 0 000 78 45 45 0 000-78zM256 310c0-25-20-45-45-45h-35c0 25 20 45 45 45zM301 265c-25 0-45 20-45 45h35c25 0 45-20 45-45zM301 330c-25 0-45 20-45 45h45c25 0 45-20 45-45zM256 375c0-25-20-45-45-45h-45c0 25 20 45 45 45z"/>
    </g>
  </g>
  <path d="M435 420a485 485 0 00-5-297 36 36 0 0014-39c-5-19-25-31-44-26l-20 5C345 22 301 0 256 0s-89 22-124 63l-20-5c-19-5-39 7-44 26a35 35 0 0015 39 486 486 0 00-5 298 66 66 0 00-31 69l4 5a67 67 0 00102-17c30 12 66 18 103 18s74-6 103-18a66 66 0 0058 34c16 0 32-6 44-17l4-5c5-27-7-55-30-70zM256 20c36 0 72 17 102 48a558 558 0 01-204 0c30-31 66-48 102-48zm190 462a47 47 0 01-73-21 10 10 0 00-14-5c-28 13-64 20-103 20s-75-7-103-20a10 10 0 00-14 5 47 47 0 01-72 21c-3-20 8-39 27-48 5-2 7-7 5-12-28-77-34-214 2-292 36 8 72 14 109 17a10 10 0 102-20c-39-3-77-9-114-19-4-1-7-4-9-7-3-4-3-8-2-12 2-9 11-14 20-11a576 576 0 00298 0c9-3 18 2 20 11 1 4 1 8-2 12-2 3-5 6-9 7-37 10-75 16-114 19a10 10 0 002 20c37-3 73-9 109-17 36 78 30 215 2 292-2 5 0 10 5 12 19 9 30 28 28 48z"/>
  <path d="M346 320h-45c-13 0-25 5-35 13v-13h25c30 0 55-25 55-55 0-6-4-10-10-10h-35c-6 0-12 1-17 3a55 55 0 00-23-70h-10a55 55 0 00-23 70c-5-2-11-3-17-3h-35c-6 0-10 4-10 10 0 30 25 55 55 55h25v13c-10-8-22-13-35-13h-45c-6 0-10 4-10 10 0 30 25 55 55 55h35v10a10 10 0 1020 0v-10h35c30 0 55-25 55-55 0-6-4-10-10-10zm-21-45c-5 14-18 25-34 25h-24c5-15 18-25 34-25zm-69-66a35 35 0 010 54 35 35 0 010-54zm-35 91c-16 0-29-11-34-25h24c16 0 29 10 34 25zm-10 65c-16 0-29-11-34-25h34c16 0 29 10 34 25zm90 0h-34c5-15 18-25 34-25h34c-5 14-18 25-34 25zM256 149a10 10 0 100-20 10 10 0 100 20z"/>
</svg>