<?xml version="1.0" encoding="iso-8859-1"?>
<!-- Uploaded to: SVG Repo, www.svgrepo.com, Generator: SVG Repo Mixer Tools -->
<svg version="1.1" id="Layer_1" xmlns="http://www.w3.org/2000/svg" xmlns:xlink="http://www.w3.org/1999/xlink" 
	 viewBox="0 0 512 512" xml:space="preserve">
<rect x="81.618" y="233.227" style="fill:#8CC63F;" width="349.841" height="217.707"/>
<polyline style="fill:#FBB03B;" points="391.443,448.334 438.41,448.334 438.41,502.607 74.156,502.607 74.156,448.334 
	303.772,448.334 "/>
<rect x="335.98" y="447.897" style="fill:#FCC062;" width="103.432" height="55.661"/>
<g>
	<polygon style="fill:#F15A24;" points="438.41,424.328 391.704,424.328 351.95,464.082 312.195,424.328 74.156,424.328 
		74.156,400.323 438.41,400.323 	"/>
	<polygon style="fill:#F15A24;" points="439.41,304.783 280.393,304.783 240.638,344.538 200.883,304.783 73.669,304.783 
		73.669,269.004 439.41,269.004 	"/>
</g>
<rect x="73.665" y="447.897" style="fill:#F7931E;" width="103.432" height="55.661"/>
<g>
	<polygon style="fill:#FBB03B;" points="439.41,233.225 73.669,233.225 73.669,177.568 256.54,10.6 439.41,177.568 	"/>
	<polygon style="fill:#FBB03B;" points="73.669,176.969 256.54,10 439.41,176.969 	"/>
</g>
<polygon style="fill:#F7931E;" points="177.031,233.225 73.669,233.225 73.669,177.568 256.54,10.6 177.031,177.568 "/>
<polygon style="fill:#FCC062;" points="439.41,233.225 336.048,233.225 336.048,177.568 256.54,10.6 439.41,177.568 "/>
<rect x="136.778" y="170.709" width="240.053" height="15.656"/>
<rect x="161.827" y="138.354" width="14.612" height="15.656"/>
<rect x="208.794" y="122.698" width="48.011" height="15.656"/>
<rect x="256.805" y="107.043" width="15.656" height="15.656"/>
<rect x="303.772" y="138.354" width="24.005" height="15.656"/>
<rect x="200.444" y="90.343" width="15.656" height="15.656"/>
<path d="M256.54,0L65.84,174.116v66.937h381.396v-66.937L256.54,0z M431.582,225.397H81.496v-39.035h40.669v-15.656H92.793
	L207.104,66.336h49.699V50.68H224.25L256.539,21.2l67.724,61.836h-20.491v15.656h37.639l17.147,15.656h-6.775v15.656h23.922
	l44.581,40.705h-28.843v15.656h40.139V225.397z"/>
<g>
	<path style="fill:#FF7BAC;" d="M427.484,257.078c6.587,0,11.926,5.34,11.926,11.926l0,0c0,6.587-5.34,11.926-11.926,11.926H85.596
		c-6.587,0-11.926-5.34-11.926-11.926l0,0c0-6.587,5.34-11.926,11.926-11.926L427.484,257.078L427.484,257.078z"/>
	<path style="fill:#FF7BAC;" d="M427.484,352.489c6.587,0,11.926,5.34,11.926,11.926l0,0c0,6.587-5.34,11.926-11.926,11.926H85.596
		c-6.587,0-11.926-5.34-11.926-11.926l0,0c0-6.587,5.34-11.926,11.926-11.926H427.484z"/>
</g>
<path d="M427.484,288.758H85.596c-10.893,0-19.754-8.861-19.754-19.754c0-10.893,8.862-19.754,19.754-19.754h341.888
	c10.893,0,19.754,8.861,19.754,19.754S438.377,288.758,427.484,288.758z M85.596,264.906c-2.261,0-4.099,1.838-4.099,4.099
	c0,2.261,1.839,4.099,4.099,4.099h341.888c2.26,0,4.099-1.838,4.099-4.099c0-2.261-1.839-4.099-4.099-4.099L85.596,264.906
	L85.596,264.906z"/>
<polygon points="240.638,355.607 197.641,312.611 73.668,312.611 73.668,296.955 204.126,296.955 240.638,333.467 277.15,296.955 
	439.41,296.955 439.41,312.611 283.634,312.611 "/>
<g>
	<rect x="74.156" y="322.047" style="fill:#ED1C24;" width="126.289" height="15.656"/>
	<rect x="279.766" y="322.047" style="fill:#ED1C24;" width="158.644" height="15.656"/>
</g>
<g>
	<rect x="74.156" y="393.019" style="fill:#009245;" width="70.972" height="15.656"/>
	<rect x="152.434" y="393.019" style="fill:#009245;" width="104.371" height="15.656"/>
	<rect x="264.111" y="393.019" style="fill:#009245;" width="103.327" height="15.656"/>
	<rect x="376.831" y="393.019" style="fill:#009245;" width="61.579" height="15.656"/>
</g>
<path d="M427.484,384.667H85.596c-11.081,0-20.804-9.439-20.833-20.214l0,0l0,0l0,0c0-0.008,0-0.017,0-0.025
	c0-0.008,0-0.017,0-0.025c0.03-10.52,9.558-19.396,20.833-19.396H216.1v15.656H85.596c-2.554,0-5.155,1.897-5.178,3.768
	c0.023,2.105,2.817,4.582,5.178,4.582h341.888c2.159,0,3.613-2.36,3.621-4.569c-0.007-2.297-1.427-3.78-3.621-3.78H264.111v-15.656
	h163.373c10.798,0,19.259,8.527,19.276,19.419l0,0c0,0.005,0,0.011,0,0.017c0,0.006,0,0.011,0,0.017
	C446.741,375.605,438.101,384.667,427.484,384.667z"/>
<polygon points="351.95,474.631 308.954,431.634 74.156,431.634 74.156,415.979 315.438,415.979 351.95,452.491 388.462,415.979 
	438.41,415.979 438.41,431.634 394.947,431.634 "/>
<polygon points="446.76,512 64.762,512 64.762,439.984 303.772,439.984 303.772,455.64 80.418,455.64 80.418,496.344 
	431.104,496.344 431.104,455.64 391.443,455.64 391.443,439.984 446.76,439.984 "/>
</svg>