<?xml version="1.0" encoding="iso-8859-1"?>
<!-- Uploaded to: SVG Repo, www.svgrepo.com, Generator: SVG Repo Mixer Tools -->
<svg version="1.1" id="Layer_1" xmlns="http://www.w3.org/2000/svg" xmlns:xlink="http://www.w3.org/1999/xlink" 
	 viewBox="0 0 512 512" xml:space="preserve">
<g>
	<rect x="111.546" y="199.171" style="fill:#F15A24;" width="288.913" height="28.088"/>
	<rect x="111.546" y="399.81" style="fill:#F15A24;" width="288.913" height="24.075"/>
	<rect x="111.546" y="303.502" style="fill:#F15A24;" width="288.913" height="48.151"/>
</g>
<path style="fill:#FBB03B;" d="M376.378,447.957h48.151l0,0c0,31.026-25.151,56.176-56.176,56.176H143.647
	c-31.026,0-56.176-25.151-56.176-56.176l0,0h226.424c8.39,0,15.191,6.801,15.191,15.191l0,0c0,7.996,5.463,15.406,13.355,16.69
	c10.056,1.636,18.746-6.083,18.746-15.831v-0.859C361.186,454.759,367.988,447.957,376.378,447.957z"/>
<path style="fill:#BC842C;" d="M143.647,447.501H87.47c0,31.463,25.151,56.633,56.177,56.633h56.177
	C168.797,504.134,143.647,478.964,143.647,447.501z"/>
<path style="fill:#FCC062;" d="M368.353,447.501h56.177c0,31.463-25.151,56.633-56.177,56.633h-56.177
	C343.201,504.134,368.353,478.964,368.353,447.501z"/>
<path style="fill:#C1272D;" d="M328.226,464.008c0,9.748,8.69,17.466,18.746,15.831c7.892-1.284,13.355-8.694,13.355-16.689l0,0
	c0-8.39,6.801-15.191,15.191-15.191h40.857v-23.529l-320.881-0.546v24.075h217.541c8.39,0,15.191,6.801,15.191,15.191V464.008z"/>
<path style="fill:#39B54A;" d="M416.503,303.504H304.15v16.05c0,4.432-3.593,8.025-8.025,8.025l0,0
	c-4.432,0-8.025,3.593-8.025,8.025l0,0c0,4.432-3.593,8.025-8.025,8.025h-8.025c-4.432,0-8.025-3.593-8.025-8.025l0,0
	c0-4.432-3.593-8.025-8.025-8.025l0,0c-4.432,0-8.025-3.593-8.025-8.025v-16.05H95.495v-17.099h321.009V303.504z"/>
<path style="fill:#754C24;" d="M304.15,351.655h88.278c13.296,0,24.075,10.779,24.075,24.075l0,0
	c0,13.296-10.779,24.075-24.075,24.075H119.57c-13.296,0-24.075-10.779-24.075-24.075l0,0c0-13.296,10.779-24.075,24.075-24.075
	h128.403"/>
<path style="fill:#806042;" d="M392.428,352.064h-32.101c13.296,0,24.075,10.301,24.075,23.597s-10.779,23.597-24.075,23.597h32.101
	c13.296,0,24.075-10.301,24.075-23.597S405.724,352.064,392.428,352.064z"/>
<path style="fill:#603813;" d="M127.595,375.661c0-13.296,10.779-23.597,24.075-23.597H119.57
	c-13.296,0-24.075,10.301-24.075,23.597s10.779,23.597,24.075,23.597h32.101C138.374,399.258,127.595,388.957,127.595,375.661z"/>
<path style="fill:#754C24;" d="M207.671,224.114h180.744c15.512,0,27.96,11.894,27.96,27.407v0.157
	c0,15.512-12.448,28.021-27.96,28.021H123.583c-15.512,0-28.129-12.599-28.129-28.111v0.058c0-15.512,12.617-27.531,28.129-27.531
	h11.724"/>
<path style="fill:#F7931E;" d="M416.503,199.176H211.86c-11.08,0-20.063,8.983-20.063,20.063v16.05
	c0,11.08-8.983,20.063-20.063,20.063l0,0c-11.08,0-20.063-8.983-20.063-20.063v-16.05c0-11.08-8.983-20.063-20.063-20.063H95.495
	V175.1h321.009V199.176z"/>
<path style="fill:#FBB03B;" d="M424.528,175.871c0-93.34-75.453-168.53-168.529-168.53S87.47,82.531,87.47,175.871H424.528z"/>
<path style="fill:#FDDFB1;" d="M432.107,184.261H79.722v-7.866c0-47.216,18.29-91.55,51.609-124.832
	C164.618,18.312,208.884,0,256.029,0s91.282,18.312,124.569,51.564c33.319,33.283,51.509,77.616,51.509,124.832V184.261z
	 M95.522,168.53h320.954c-1.91-40.05-18.382-77.381-46.867-105.837C339.292,32.409,298.945,15.731,256,15.731
	S172.707,32.409,142.39,62.693C113.904,91.148,97.433,128.48,95.522,168.53z"/>
<path style="fill:#BC842C;" d="M280.075,8.87C272.19,7.74,264.196,7.148,256,7.148c-93.076,0-168.53,75.382-168.53,168.722h48.151
	C135.621,90.921,198.435,20.581,280.075,8.87z"/>
<path style="fill:#603813;" d="M127.595,251.907c0-15.512,12.576-27.792,28.088-27.792H135.62h-12.038
	c-15.512,0-28.088,12.28-28.088,27.792s12.576,27.792,28.088,27.792h32.101C140.171,279.699,127.595,267.419,127.595,251.907z"/>
<path style="fill:#806042;" d="M380.39,251.907c0-15.512-12.576-27.792-28.088-27.792h20.063h12.038
	c15.512,0,28.088,12.28,28.088,27.792s-12.576,27.792-28.088,27.792h-32.101C367.814,279.699,380.39,267.419,380.39,251.907z"/>
<path style="fill:#FCC062;" d="M231.923,8.87c7.885-1.131,15.879-1.722,24.075-1.722c93.076,0,168.53,75.382,168.53,168.722h-48.151
	C376.378,90.921,313.563,20.581,231.923,8.87z"/>
<path id="SVGCleanerId_0" d="M432.107,184.261H79.722v-7.866c0-47.216,18.29-91.55,51.609-124.832
	C164.618,18.312,208.884,0,256.029,0s91.282,18.312,124.569,51.564c33.319,33.283,51.509,77.616,51.509,124.832V184.261z
	 M95.522,168.53h320.954c-1.91-40.05-18.382-77.381-46.867-105.837C339.292,32.409,298.945,15.731,256,15.731
	S172.707,32.409,142.39,62.693C113.904,91.148,97.433,128.48,95.522,168.53z"/>
<g>
	<path id="SVGCleanerId_0_1_" d="M432.107,184.261H79.722v-7.866c0-47.216,18.29-91.55,51.609-124.832
		C164.618,18.312,208.884,0,256.029,0s91.282,18.312,124.569,51.564c33.319,33.283,51.509,77.616,51.509,124.832V184.261z
		 M95.522,168.53h320.954c-1.91-40.05-18.382-77.381-46.867-105.837C339.292,32.409,298.945,15.731,256,15.731
		S172.707,32.409,142.39,62.693C113.904,91.148,97.433,128.48,95.522,168.53z"/>
</g>
<path d="M171.735,263.218c-15.4,0-27.929-12.529-27.929-27.929v-16.05c0-6.726-5.471-12.197-12.197-12.197H95.495V191.31h36.114
	c15.4,0,27.929,12.529,27.929,27.929v16.05c0,6.726,5.471,12.197,12.197,12.197c6.726,0,12.197-5.471,12.197-12.197v-16.05
	c0-15.4,12.529-27.929,27.929-27.929h204.643v15.731H211.86c-6.726,0-12.197,5.471-12.197,12.197v16.05
	C199.663,250.689,187.135,263.218,171.735,263.218z"/>
<g>
	<rect x="119.58" y="134.965" style="fill:#FDDFB1;" width="15.731" height="15.731"/>
	<rect x="135.311" y="111.893" style="fill:#FDDFB1;" width="16.78" height="15.731"/>
	<rect x="224.456" y="134.965" style="fill:#FDDFB1;" width="14.683" height="15.731"/>
	<rect x="183.554" y="120.283" style="fill:#FDDFB1;" width="15.731" height="15.731"/>
	<rect x="239.139" y="79.381" style="fill:#FDDFB1;" width="16.78" height="15.731"/>
	<rect x="295.772" y="120.283" style="fill:#FDDFB1;" width="16.78" height="15.731"/>
	<rect x="335.625" y="72.04" style="fill:#FDDFB1;" width="16.78" height="15.731"/>
	<rect x="281.089" y="55.264" style="fill:#FDDFB1;" width="14.683" height="15.731"/>
	<rect x="360.795" y="134.965" style="fill:#FDDFB1;" width="15.731" height="15.731"/>
	<rect x="392.258" y="95.112" style="fill:#FDDFB1;" width="16.78" height="15.731"/>
	<rect x="272.699" y="160.136" style="fill:#FDDFB1;" width="14.683" height="15.731"/>
	<rect x="176.213" y="55.264" style="fill:#FDDFB1;" width="15.731" height="15.731"/>
	<rect x="119.58" y="72.04" style="fill:#FDDFB1;" width="15.731" height="15.731"/>
	<rect x="191.944" y="79.381" style="fill:#FDDFB1;" width="15.731" height="15.731"/>
	<rect x="224.456" y="23.801" style="fill:#FDDFB1;" width="14.683" height="15.731"/>
</g>
<path d="M280.075,351.495h-8.025c-8.762,0-15.891-7.128-15.891-15.891c0-0.088-0.071-0.159-0.159-0.159
	c-8.762,0-15.891-7.128-15.891-15.891v-8.185H95.495v-15.731H255.84v23.916c0,0.088,0.071,0.159,0.159,0.159
	c8.762,0,15.891,7.128,15.891,15.891c0,0.088,0.071,0.159,0.159,0.159h8.025c0.087,0,0.159-0.071,0.159-0.159
	c0-8.762,7.128-15.891,15.891-15.891c0.088,0,0.159-0.071,0.159-0.159v-23.916h120.219v15.731H312.016v8.185
	c0,8.762-7.128,15.891-15.891,15.891c-0.088,0-0.159,0.071-0.159,0.159C295.966,344.367,288.837,351.495,280.075,351.495z"/>
<g>
	<rect x="95.458" y="320.596" style="fill:#8CC63F;" width="39.853" height="15.731"/>
	<rect x="143.701" y="320.596" style="fill:#8CC63F;" width="39.853" height="15.731"/>
	<rect x="191.944" y="320.596" style="fill:#8CC63F;" width="39.853" height="15.731"/>
	<rect x="328.283" y="320.596" style="fill:#8CC63F;" width="39.853" height="15.731"/>
	<rect x="376.527" y="320.596" style="fill:#8CC63F;" width="39.853" height="15.731"/>
</g>
<path d="M368.353,512H143.647c-35.313,0-64.042-28.729-64.042-64.042v-7.866h234.29c12.714,0,23.057,10.344,23.057,23.057
	c0,4.389,2.966,8.31,6.752,8.926c2.482,0.403,4.87-0.245,6.729-1.827c1.835-1.561,2.888-3.835,2.888-6.24v-0.859
	c0-12.714,10.344-23.057,23.057-23.057h56.018v7.866C432.394,483.27,403.665,512,368.353,512z M95.976,455.823
	c3.767,22.91,23.709,40.444,47.671,40.444h224.706c23.961,0,43.903-17.534,47.671-40.444h-39.645c-4.04,0-7.326,3.287-7.326,7.326
	v0.859c0,7.027-3.072,13.669-8.428,18.223c-5.354,4.553-12.444,6.511-19.446,5.371c-11.378-1.851-19.958-12.364-19.958-24.453
	c0-4.04-3.286-7.326-7.326-7.326H95.976z"/>
<rect x="95.458" y="417.083" width="320.922" height="15.731"/>
<rect x="239.139" y="248.232" width="16.78" height="15.731"/>
<rect x="376.527" y="248.232" width="15.731" height="15.731"/>
<path d="M388.415,216.773H207.671v15.731h88.096v6.293h15.731v-6.293h76.916c11.34,0,19.57,7.998,19.57,19.017v0.157
	c0,11.402-8.779,20.68-19.57,20.68h-37.063v-8.39h-15.731v8.39H135.307v-8.39h-15.731v7.979
	c-9.419-1.926-16.766-10.449-16.78-20.329c0.017-10.719,9.142-19.113,20.788-19.113h11.724v-15.731h-11.724
	c-20.458,0-36.489,15.287-36.519,34.815c0,0.009,0,0.019,0,0.028s0,0.02,0,0.029c0.033,19.761,16.744,36.443,36.519,36.443h264.833
	c19.465,0,35.301-16.333,35.301-36.411v-0.157C423.717,231.712,408.54,216.773,388.415,216.773z"/>
<rect x="119.58" y="368.84" width="15.731" height="15.731"/>
<rect x="239.139" y="368.84" width="16.78" height="15.731"/>
<path d="M392.428,343.789H304.15v15.731h31.47v8.274h15.731v-8.274h41.076c8.938,0,16.21,7.272,16.21,16.21
	s-7.272,16.21-16.21,16.21h-1.223v-8.414h-15.731v8.414H190.891v-8.414H175.16v8.414h-55.589c-8.939,0-16.211-7.272-16.211-16.21
	c0-8.939,7.272-16.21,16.211-16.21h128.403v-15.731H119.571c-17.613,0-31.942,14.329-31.942,31.941s14.329,31.941,31.942,31.941
	h272.857c17.612,0,31.941-14.329,31.941-31.941C424.369,358.118,410.04,343.789,392.428,343.789z"/>
</svg>