<?xml version="1.0" encoding="iso-8859-1"?>
<!-- Uploaded to: SVG Repo, www.svgrepo.com, Generator: SVG Repo Mixer Tools -->
<svg version="1.1" id="Layer_1" xmlns="http://www.w3.org/2000/svg" xmlns:xlink="http://www.w3.org/1999/xlink" 
	 viewBox="0 0 512 512" xml:space="preserve">
<ellipse style="fill:#8CC63F;" cx="255.836" cy="40.635" rx="40.635" ry="24.381"/>
<ellipse style="fill:#009245;" cx="255.836" cy="40.635" rx="40.635" ry="24.381"/>
<path style="fill:#8CC63F;" d="M255.832,16.254c-4.277,0-8.319,0.506-12.19,1.241c16.445,3.122,28.445,12.241,28.445,23.141
	s-12,20.019-28.445,23.141c3.871,0.735,7.914,1.241,12.19,1.241c22.442,0,40.635-10.916,40.635-24.381
	S278.274,16.254,255.832,16.254z"/>
<path style="fill:#FCC062;" d="M475.26,390.095H231.448l-40.633,32.508l-40.637-32.508H36.403l0,0
	c0,62.838,50.939,113.778,113.777,113.778h211.302C424.32,503.873,475.26,452.933,475.26,390.095L475.26,390.095z"/>
<path style="fill:#FDCD81;" d="M393.99,389.927c0,62.723-50.94,113.946-113.778,113.946h81.27
	c62.838,0,113.778-51.224,113.778-113.946H393.99z"/>
<path style="fill:#BD904A;" d="M117.673,389.927c0,64.814,50.94,113.946,113.778,113.946h-81.27
	c-62.838,0-113.778-49.133-113.778-113.946H117.673z"/>
<rect x="44.53" y="227.558" style="fill:#FFBE78;" width="422.605" height="121.902"/>
<polygon style="fill:#F7931E;" points="467.133,390.095 231.45,390.095 190.815,422.603 150.18,390.095 44.53,390.095 
	44.53,351.556 467.133,352.431 "/>
<path style="fill:#A67C52;" d="M345.734,292.706h92.954c20.198,0,36.673,16.306,36.673,36.504v0.05
	c0,20.198-16.475,36.622-36.673,36.622H81.102c-20.198,0-36.437-16.457-36.437-36.655v0.025c0-20.198,16.239-36.546,36.437-36.546
	h20.014"/>
<path d="M438.689,374.246H81.102c-24.694,0-44.785-20.182-44.8-44.993l0,0l0,0l0,0c0-0.004,0-0.008,0-0.013s0-0.008,0-0.013
	c0.015-24.75,20.106-44.884,44.8-44.884h20.014v16.726H81.102c-15.476,0-28.067,12.636-28.074,28.171
	c0.006,15.595,12.598,28.28,28.074,28.28h357.587c15.61,0,28.31-12.676,28.31-28.259c0-15.568-12.699-28.192-28.31-28.192h-92.954
	v-16.726h92.954c24.833,0,45.036,20.128,45.036,44.867C483.725,354.066,463.522,374.246,438.689,374.246z"/>
<polygon style="fill:#F15A24;" points="272.085,268.663 308.657,305.234 345.228,268.663 466.999,268.663 466.999,243.574 
	44.665,243.574 44.665,268.663 "/>
<polygon style="fill:#F7931E;" points="466.999,243.574 190.815,243.574 133.927,300.462 77.038,243.574 44.665,243.574 
	44.665,219.53 466.999,219.53 "/>
<path style="fill:#FCC062;" d="M475.26,219.428H36.403l0,0c0-62.838,50.94-113.778,113.778-113.778h211.302
	C424.32,105.651,475.26,156.591,475.26,219.428L475.26,219.428z"/>
<path style="fill:#FDCD81;" d="M361.482,105.583h-73.143c62.838,0,113.778,51.224,113.778,113.946h73.143
	C475.26,156.807,424.32,105.583,361.482,105.583z"/>
<path style="fill:#BD904A;" d="M150.18,105.583h73.143c-62.838,0-113.778,49.133-113.778,113.946H36.403
	C36.403,154.716,87.343,105.583,150.18,105.583z"/>
<path d="M361.482,512H150.18c-67.219,0-121.905-54.686-121.905-121.905v-8.127h124.754l37.786,30.227l37.782-30.227h254.789v8.127
	C483.388,457.314,428.701,512,361.482,512z M44.839,398.223c4.163,54.474,49.82,97.523,105.342,97.523h211.301
	c55.522,0,101.178-43.051,105.342-97.523H234.299l-43.483,34.788l-43.489-34.788L44.839,398.223L44.839,398.223z"/>
<polygon points="133.927,312.29 73.574,251.937 44.665,251.937 44.665,235.211 80.503,235.211 133.927,288.636 187.352,235.211 
	466.999,235.211 466.999,251.937 194.28,251.937 "/>
<rect x="44.665" y="260.3" width="32.407" height="16.726"/>
<polygon points="308.657,317.062 268.622,277.026 191.018,277.026 191.018,260.3 275.55,260.3 308.657,293.407 341.765,260.3 
	466.999,260.3 466.999,277.026 348.693,277.026 "/>
<path d="M361.482,97.524h-97.287V72.677c23.222-2.574,40.4-15.72,40.4-32.043s-17.178-29.468-40.4-32.041V0h-16.726v8.593
	c-23.222,2.574-40.4,15.72-40.4,32.042s17.178,29.469,40.4,32.043v24.846h-97.287c-67.219,0-121.905,54.687-121.905,121.905v8.127
	h446.985h8.127v-8.127C483.388,152.21,428.701,97.524,361.482,97.524z M223.324,40.635c0-7.673,13.902-16.254,32.508-16.254
	c18.606,0,32.508,8.582,32.508,16.254S274.437,56.89,255.832,56.89S223.324,48.307,223.324,40.635z M44.839,211.302
	c4.163-54.474,49.82-97.524,105.342-97.524h211.301c55.522,0,101.178,43.051,105.342,97.525L44.839,211.302z"/>
<rect x="264.199" y="32.407" style="fill:#FF1D25;" width="15.681" height="16.726"/>
<rect x="68.709" y="187.123" width="60.632" height="16.726"/>
<rect x="137.708" y="187.123" width="24.044" height="16.726"/>
<rect x="223.429" y="187.123" width="88.857" height="16.726"/>
<rect x="85.439" y="333.476" width="32.407" height="16.726"/>
<rect x="117.846" y="316.75" width="15.681" height="16.726"/>
<rect x="182.659" y="333.476" width="49.133" height="16.726"/>
<polygon points="272.558,284.343 165.929,284.343 165.929,301.069 230.743,301.069 230.743,308.387 247.469,308.387 
	247.469,301.069 272.558,301.069 "/>
<rect x="264.199" y="325.113" width="24.044" height="16.726"/>
<path d="M438.689,284.343h-92.954v16.726h92.954c7.313,0,13.988,2.771,19.017,7.318h-23.114v16.726h32.098
	c0.201,1.354,0.308,2.739,0.308,4.148c0,15.582-12.699,28.259-28.31,28.259h-84.591v-8.363H337.37v8.363H81.102
	c-15.476,0-28.067-12.685-28.074-28.28c0.006-15.535,12.598-28.171,28.074-28.171h20.014v-16.726H81.102
	c-24.694,0-44.785,20.134-44.8,44.884c0,0.004,0,0.008,0,0.013s0,0.008,0,0.013c0.015,24.811,20.106,44.993,44.8,44.993h357.587
	c24.833,0,45.036-20.18,45.036-45.036C483.725,304.471,463.522,284.343,438.689,284.343z"/>
<rect x="353.056" y="333.476" width="40.77" height="16.726"/>
<rect x="245.382" y="405.607" width="122.309" height="16.726"/>
<rect x="383.372" y="405.607" width="24.044" height="16.726"/>
<rect x="231.792" y="439.06" width="40.77" height="16.726"/>
</svg>