<?xml version="1.0" encoding="iso-8859-1"?>
<!-- Uploaded to: SVG Repo, www.svgrepo.com, Generator: SVG Repo Mixer Tools -->
<svg version="1.1" id="Layer_1" xmlns="http://www.w3.org/2000/svg" xmlns:xlink="http://www.w3.org/1999/xlink" 
	 viewBox="0 0 512 512" xml:space="preserve">
<path style="fill:#F2F2F2;" d="M240.244,378.104v66.96c0,10.877-8.817,19.695-19.695,19.695l0,0
	c-10.877,0-19.695,8.817-19.695,19.695l0,0c0,10.877,8.817,19.695,19.695,19.695h15.755c10.877,0,19.695-8.817,19.695-19.695v-3.939
	v3.939c0,10.877,8.817,19.695,19.695,19.695h15.755c10.877,0,19.695-8.817,19.695-19.695l0,0c0-10.877-8.817-19.695-19.695-19.695
	l0,0c-10.877,0-19.695-8.817-19.695-19.695v-66.96"/>
<path style="fill:#CCCCCC;" d="M240.292,386.369v58.695c0,10.877-4.903,19.695-15.779,19.695c-10.877,0-17.736,8.817-17.736,19.695
	c0,8.947,6.982,16.414,15.153,18.813c-0.517-1.762,0.101-3.59,0.101-5.519c0-10.877,6.108-19.695,16.985-19.695
	c10.877,0,16.985-8.818,16.985-19.695v-77.224"/>
<path style="fill:#BB7E36;" d="M254.229,7.87c-52.041,0.952-92.762,45.601-92.762,97.651v146.541
	c0,41.142,26.33,76.047,63.021,89.038v19.285c0,9.787,7.934,17.721,17.721,17.721h27.581c9.787,0,17.721-7.934,17.721-17.721
	v-19.285c36.692-12.991,63.021-47.896,63.021-89.038V102.385C350.532,49.588,307.248,6.9,254.229,7.87z"/>
<path style="fill:#AA5E04;" d="M255.999,360.384v-8.787c0-6.07-3.585-11.554-9.131-14.022c-33.881-15.082-53.89-47.658-53.89-85.515
	V105.52c0-47.598,33.338-88.897,78.959-96.36c-5.516-0.892-11.539-1.397-17.332-1.291c-52.041,0.952-93.139,45.601-93.139,97.651
	v146.541c0,41.142,26.33,76.047,63.021,89.038v19.284c0,9.787,7.934,17.721,17.721,17.721h27.581c0.415,0,1.557-0.094,1.965-0.123
	C262.543,377.348,255.999,369.755,255.999,360.384z"/>
<circle style="fill:#FFFFFF;" cx="295.386" cy="488.396" r="7.878"/>
<path style="fill:#CC9E68;" d="M287.365,346.594c36.692-12.991,62.876-53.39,62.876-94.532V102.385
	c0-52.798-43.139-95.485-96.158-94.516c-3.304,0.061-6.936,0.304-10.14,0.707c47.064,5.416,83.261,45.294,83.261,93.809v149.676
	c0,41.142-0.225,73.664-39.614,86.655"/>
<rect x="184.798" y="236.633" width="47.121" height="15.707"/>
<g>
	<rect x="256.003" y="259.67" style="fill:#FFFFFF;" width="15.707" height="15.707"/>
	<rect x="193.175" y="275.377" style="fill:#FFFFFF;" width="15.707" height="15.707"/>
	<rect x="287.418" y="205.218" style="fill:#FFFFFF;" width="15.707" height="15.707"/>
</g>
<rect x="231.919" y="141.343" width="48.168" height="15.707"/>
<rect x="280.088" y="157.05" width="47.121" height="15.707"/>
<rect x="256.003" y="299.461" width="47.121" height="15.707"/>
<rect x="200.505" y="78.511" width="31.414" height="15.707"/>
<rect x="256.003" y="62.804" width="39.791" height="15.707"/>
<g>
	<rect x="224.589" y="31.389" style="fill:#FFFFFF;" width="15.707" height="15.707"/>
	<rect x="184.798" y="109.929" style="fill:#FFFFFF;" width="15.707" height="15.707"/>
	<rect x="311.502" y="86.888" style="fill:#FFFFFF;" width="15.707" height="15.707"/>
	<rect x="264.38" y="109.929" style="fill:#FFFFFF;" width="15.707" height="15.707"/>
</g>
<path d="M327.727,29.324c-19.764-19.406-45.9-29.807-73.641-29.307C198.685,1.031,153.614,48.359,153.614,105.52v146.541
	c0,41.357,25.102,78.619,63.022,94.426v13.897c0,10.624,6.513,19.753,15.755,23.611v61.069c0,6.529-5.311,11.841-11.841,11.841
	c-15.19,0-27.548,12.358-27.548,27.548S205.361,512,220.55,512h15.755c7.709,0,14.689-3.183,19.695-8.304
	c5.004,5.121,11.984,8.304,19.695,8.304h15.755c15.19,0,27.548-12.358,27.548-27.548s-12.358-27.548-27.548-27.548
	c-6.529,0-11.841-5.312-11.841-11.841v-61.069c9.242-3.858,15.755-12.987,15.755-23.611v-13.897
	c37.92-15.807,63.022-53.069,63.022-94.426V102.385C358.385,74.682,347.497,48.736,327.727,29.324z M291.449,472.612
	c6.529,0,11.841,5.312,11.841,11.841c0,6.529-5.311,11.841-11.841,11.841h-15.755c-6.529,0-11.841-5.312-11.841-11.841v-3.939
	h-15.707v3.939c0,6.529-5.311,11.841-11.841,11.841h-15.755c-6.529,0-11.841-5.312-11.841-11.841
	c0-6.529,5.311-11.841,11.841-11.841c15.19,0,27.548-12.358,27.548-27.548v-59.107h15.803v59.107
	C263.901,460.254,276.259,472.612,291.449,472.612z M342.678,102.595h-15.473v15.707h15.473v125.657h-15.473v15.707h15.125
	c-2.964,33.467-25.29,62.648-57.441,74.031l-5.233,1.852v24.835c0,5.441-4.426,9.867-9.866,9.867h-27.582
	c-5.44,0-9.866-4.426-9.866-9.867v-5.429h15.28v-15.707h-15.28v-3.7l-5.233-1.852c-29.436-10.422-50.634-35.764-56.282-65.653
	h13.966v-15.707h-15.467c0-0.091-0.005-0.182-0.005-0.273v-55.225h39.557v-15.707h-39.558v-15.707h8.143v-15.707h-8.143V105.52
	c0-48.657,38.155-88.941,85.052-89.798c23.505-0.426,45.617,8.381,62.351,24.811c16.736,16.434,25.954,38.4,25.954,61.853
	L342.678,102.595L342.678,102.595z"/>
</svg>