<?xml version="1.0" encoding="iso-8859-1"?>
<!-- Uploaded to: SVG Repo, www.svgrepo.com, Generator: SVG Repo Mixer Tools -->
<svg version="1.1" id="Layer_1" xmlns="http://www.w3.org/2000/svg" xmlns:xlink="http://www.w3.org/1999/xlink" 
	 viewBox="0 0 512 512" xml:space="preserve">
<path style="fill:#FF1D25;" d="M414.755,182.23c1.335-14.015,1.386-28.205-1.04-42.073C400.562,64.969,334.954,7.821,256,7.821
	S111.438,64.969,98.286,140.157c-2.426,13.868-2.374,28.058-1.04,42.073l30.662,321.948h256.185L414.755,182.23z"/>
<polyline style="fill:#FBB03B;" points="248.053,223.673 248.053,72.465 272.037,72.465 272.037,223.673 "/>
<g>
	<polyline style="fill:#FABE78;" points="272.037,223.673 272.037,40.138 296.022,40.138 296.022,223.673 	"/>
	<polyline style="fill:#FABE78;" points="176.099,223.673 176.099,151.719 200.083,151.719 200.083,223.673 	"/>
</g>
<polyline style="fill:#F7931E;" points="200.083,223.673 200.083,47.438 224.068,47.438 224.068,223.673 "/>
<path style="fill:#BF161C;" d="M163.573,140.157C174.86,75.636,224.817,24.519,288.644,11.279
	C278.091,9.089,267.202,7.821,256,7.821c-78.954,0-144.562,57.147-157.714,132.336c-2.426,13.868-2.374,28.063-1.04,42.079
	l30.662,321.954h65.287l-30.662-321.954C161.199,168.22,161.148,154.025,163.573,140.157z"/>
<polyline style="fill:#FBB03B;" points="151.071,184.046 151.071,72.465 176.099,72.465 176.099,223.673 "/>
<polyline style="fill:#F7931E;" points="128.129,168.404 128.129,112.092 151.071,112.092 151.071,184.046 "/>
<polygon style="fill:#FFFFFF;" points="415.946,200.731 384.093,200.731 352.069,256 159.931,256 127.908,200.731 95.802,200.731 
	95.802,168.404 135.914,168.404 175.942,223.673 336.058,223.673 368.08,168.404 415.946,168.404 "/>
<polyline style="fill:#F7931E;" points="320.007,223.673 320.007,63.08 343.991,63.08 343.991,208.031 "/>
<rect x="119.903" y="448.138" style="fill:#FFFFFF;" width="264.186" height="24.016"/>
<polyline style="fill:#FBB03B;" points="369.019,168.404 369.019,103.749 391.961,103.749 391.961,168.404 "/>
<rect x="183.399" y="279.985" style="fill:#FFFFFF;" width="144.951" height="15.642"/>
<rect x="215.727" y="312.312" width="80.297" height="15.642"/>
<g>
	<rect x="143.773" y="408.251" style="fill:#FFFFFF;" width="16.685" height="15.642"/>
	<rect x="167.757" y="408.251" style="fill:#FFFFFF;" width="15.642" height="15.642"/>
	<rect x="191.742" y="408.251" style="fill:#FFFFFF;" width="16.685" height="15.642"/>
	<rect x="215.727" y="408.251" style="fill:#FFFFFF;" width="15.642" height="15.642"/>
</g>
<polygon points="183.398,136.077 167.756,136.077 167.756,79.765 159.414,79.765 159.414,95.407 143.772,95.407 143.772,64.123 
	183.398,64.123 "/>
<path d="M421.418,138.81c-6.724-38.441-26.906-73.593-56.825-98.98C334.322,14.145,295.756,0,256,0s-78.321,14.145-108.593,39.83
	c-29.919,25.386-50.101,60.538-56.825,98.98c-2.321,13.271-2.688,27.716-1.121,44.162L120.797,512h270.408l31.335-329.028
	C424.107,166.526,423.738,152.08,421.418,138.81z M105.989,141.504c6.096-34.848,24.399-66.721,51.538-89.748
	c27.448-23.289,62.42-36.115,98.473-36.115s71.025,12.826,98.474,36.115c14.517,12.318,26.502,27.168,35.446,43.65h-29.244v69.674
	l-8.342,14.67V55.78h-40.67v160.593h-7.3V31.795h-40.67V55.78h15.642v-8.342h9.385v168.936h-9.385V64.123h-38.584v152.251h-9.385
	V40.138h-38.584v95.939h15.642V55.78h7.3v160.593h-7.3v-72.997h-40.67v50.599l-8.342-14.67v-74.513H120.83v55.269h-16.625
	C104.373,153.523,104.964,147.365,105.989,141.504z M383.618,111.049v49.012h-7.3v-49.012
	C376.319,111.049,383.618,111.049,383.618,111.049z M336.692,71.422v135.836l-5.184,9.115h-4.201V71.422
	C327.306,71.422,336.692,71.422,336.692,71.422z M263.695,79.765v136.608h-7.3V79.765C256.395,79.765,263.695,79.765,263.695,79.765
	z M192.784,159.018v57.355h-9.385v-57.355H192.784z M143.772,120.434v39.627h-7.3v-39.627
	C136.472,120.434,143.772,120.434,143.772,120.434z M131.196,456.22h249.608l-0.795,8.342H131.991L131.196,456.22z M135.019,496.358
	l-1.538-16.153H378.52l-1.538,16.153H135.019z M382.294,440.578H129.707L107.56,208.031h15.799l32.023,56.312H356.62l32.024-56.312
	h15.798L382.294,440.578z M406.968,181.488l-1.038,10.901h-26.387L347.519,248.7H164.481l-32.023-56.312H106.07l-1.038-10.901
	c-0.187-1.963-0.341-3.888-0.468-5.784h34.806l32.023,56.312h169.216l32.023-56.312h34.805
	C407.309,177.6,407.156,179.526,406.968,181.488z M399.261,160.061v-43.877c2.968,8.197,5.236,16.666,6.75,25.321
	c1.025,5.861,1.616,12.018,1.784,18.557H399.261z"/>
</svg>