<?xml version="1.0" encoding="iso-8859-1"?>
<!-- Uploaded to: SVG Repo, www.svgrepo.com, Generator: SVG Repo Mixer Tools -->
<svg version="1.1" id="Layer_1" xmlns="http://www.w3.org/2000/svg" xmlns:xlink="http://www.w3.org/1999/xlink" 
	 viewBox="0 0 512 512" xml:space="preserve">
<path style="fill:#FCC062;" d="M23.558,223.542v-15.57c0-26.526,21.807-48.299,48.332-48.299h368.218
	c26.526,0,48.332,21.773,48.332,48.299v15.57"/>
<path style="fill:#BD904A;" d="M135.929,159.673H71.89c-26.526,0-48.332,21.773-48.332,48.299v15.57h63.869v-15.57
	C87.427,181.446,109.404,159.673,135.929,159.673z"/>
<path style="fill:#FDD9A1;" d="M376.071,159.673h64.038c26.526,0,48.332,21.773,48.332,48.299v15.57h-63.869v-15.57
	C424.573,181.446,402.596,159.673,376.071,159.673z"/>
<path style="fill:#FCC062;" d="M23.558,288.458v15.57c0,26.526,21.807,48.299,48.332,48.299h368.218
	c26.526,0,48.332-21.773,48.332-48.299v-15.57"/>
<path style="fill:#BD904A;" d="M135.929,352.327H71.89c-26.526,0-48.332-21.773-48.332-48.299v-15.57h63.869v15.57
	C87.427,330.554,109.404,352.327,135.929,352.327z"/>
<path style="fill:#FDD9A1;" d="M376.071,352.327h64.038c26.526,0,48.332-21.773,48.332-48.299v-15.57h-63.869v15.57
	C424.573,330.554,402.596,352.327,376.071,352.327z"/>
<path style="fill:#F14950;" d="M456.119,304.029H55.881c-26.526,0-48.029-21.503-48.029-48.029l0,0
	c0-26.526,21.503-48.029,48.029-48.029h400.237c26.526,0,48.029,21.503,48.029,48.029l0,0
	C504.147,282.526,482.644,304.029,456.119,304.029z"/>
<g>
	<circle style="fill:#8CC63F;" cx="256" cy="223.982" r="16.009"/>
	<circle style="fill:#8CC63F;" cx="95.908" cy="223.982" r="16.009"/>
	<circle style="fill:#8CC63F;" cx="215.972" cy="288.018" r="16.009"/>
	<circle style="fill:#8CC63F;" cx="416.092" cy="223.982" r="16.009"/>
</g>
<path style="fill:#ED1C24;" d="M63.886,256c0-26.526,21.503-48.164,48.029-48.164H55.881c-26.526,0-48.029,21.638-48.029,48.164
	c0,26.526,21.503,48.164,48.029,48.164h56.033C85.389,304.164,63.886,282.526,63.886,256z"/>
<path style="fill:#F4777C;" d="M448.114,256c0-26.526-21.503-48.164-48.029-48.164h56.033c26.526,0,48.029,21.638,48.029,48.164
	c0,26.526-21.503,48.164-48.029,48.164h-56.033C426.611,304.164,448.114,282.526,448.114,256z"/>
<path style="fill:#FBB03B;" d="M336.048,272.519c-7.54,0-15.079-2.516-21.371-7.549l-7.094-5.674
	c-6.805-5.446-16.314-5.446-23.118,0l-7.094,5.674c-12.583,10.066-30.159,10.066-42.741,0l-7.094-5.675
	c-6.807-5.445-16.315-5.444-23.121,0l-7.089,5.672c-12.583,10.067-30.16,10.067-42.743,0.002l-7.094-5.675
	c-6.806-5.445-16.314-5.444-23.121,0.001l-7.091,5.674c-12.584,10.066-30.161,10.066-42.743,0l-23.558-18.847l9.811-12.264
	l23.558,18.847c6.806,5.445,16.314,5.445,23.122,0l7.091-5.673c12.583-10.066,30.159-10.067,42.743-0.001l7.094,5.675
	c6.806,5.445,16.314,5.445,23.121-0.001l7.089-5.672c12.583-10.068,30.16-10.068,42.743-0.001l7.094,5.675
	c6.806,5.445,16.315,5.445,23.12,0l7.094-5.674c12.581-10.066,30.159-10.067,42.741,0l7.093,5.674c6.806,5.445,16.314,5.446,23.12,0
	l7.092-5.674c12.585-10.067,30.161-10.067,42.743,0l7.092,5.674c6.806,5.446,16.314,5.446,23.12,0l23.558-18.847l9.812,12.264
	l-23.558,18.847c-12.583,10.067-30.159,10.067-42.743,0l-7.092-5.674c-6.807-5.446-16.313-5.445-23.12,0l-7.092,5.674
	C351.127,270.002,343.588,272.519,336.048,272.519z"/>
<g>
	<rect x="47.64" y="280.082" style="fill:#AE7418;" width="16.753" height="15.706"/>
	<rect x="128.262" y="271.706" style="fill:#AE7418;" width="15.706" height="15.706"/>
	<polygon style="fill:#AE7418;" points="176.425,231.918 176.425,224.589 159.673,224.589 159.673,240.294 176.425,240.294 
		176.425,247.624 192.131,247.624 192.131,231.918 	"/>
	<rect x="328.245" y="224.589" style="fill:#AE7418;" width="15.706" height="15.706"/>
	<rect x="383.738" y="271.706" style="fill:#AE7418;" width="16.753" height="15.706"/>
	<rect x="455.984" y="271.706" style="fill:#AE7418;" width="15.706" height="15.706"/>
	<rect x="280.082" y="280.082" style="fill:#AE7418;" width="15.706" height="15.706"/>
	<rect x="295.787" y="264.376" style="fill:#AE7418;" width="16.753" height="15.706"/>
</g>
<rect x="119.885" y="176.425" width="32.458" height="15.706"/>
<rect x="343.951" y="319.869" width="39.787" height="15.706"/>
<path d="M495.771,216.669v-8.698c0-30.674-24.97-55.628-55.661-55.628H71.89c-30.692,0-55.661,24.954-55.661,55.628v8.698
	C6.205,226.775,0,240.676,0,256c0,15.324,6.205,29.225,16.229,39.331v8.698c0,30.674,24.97,55.628,55.661,55.628H440.11
	c30.692,0,55.661-24.954,55.661-55.628v-8.698C505.795,285.225,512,271.324,512,256S505.795,226.775,495.771,216.669z
	 M71.89,168.049h32.289v8.376h15.706v-8.376h256.524v8.376h15.706v-8.376h47.995c21.194,0,38.579,16.576,39.87,37.433
	c-7.241-3.434-15.329-5.363-23.861-5.363H55.881c-8.532,0-16.621,1.929-23.861,5.363C33.311,184.625,50.696,168.049,71.89,168.049z
	 M424.251,223.981c0,4.498-3.658,8.156-8.156,8.156s-8.156-3.659-8.156-8.156c0-4.497,3.658-8.156,8.156-8.156
	S424.251,219.484,424.251,223.981z M264.156,223.981c0,4.498-3.658,8.156-8.156,8.156c-4.498,0-8.157-3.659-8.157-8.156
	c0-4.497,3.659-8.156,8.157-8.156C260.498,215.824,264.156,219.484,264.156,223.981z M104.062,223.981
	c0,4.498-3.659,8.156-8.157,8.156c-4.497,0-8.156-3.659-8.156-8.156c0-4.497,3.659-8.156,8.156-8.156
	C100.403,215.824,104.062,219.484,104.062,223.981z M440.11,343.951H192.131v-15.706h-15.706v-8.376h-16.753v15.706h16.753v8.376
	H71.89c-21.194,0-38.579-16.576-39.87-37.433c7.241,3.434,15.329,5.363,23.861,5.363h400.237c8.532,0,16.621-1.929,23.861-5.363
	C478.689,327.375,461.304,343.951,440.11,343.951z M207.82,288.019c0-4.498,3.659-8.156,8.157-8.156
	c4.497,0,8.156,3.659,8.156,8.156c0,4.497-3.659,8.156-8.156,8.156C211.479,296.176,207.82,292.516,207.82,288.019z M495.41,264.376
	c-3.865,18.145-20.01,31.799-39.291,31.799H238.401c0.929-2.546,1.437-5.293,1.437-8.156c0-13.158-10.705-23.862-23.862-23.862
	c-13.158,0-23.863,10.705-23.863,23.862c0,2.864,0.508,5.611,1.437,8.156H55.881c-19.28,0-35.426-13.654-39.291-31.799h15.344
	v-15.706H16.387c3.456-18.663,19.844-32.847,39.494-32.847H73.48c-0.929,2.546-1.437,5.293-1.437,8.156
	c0,13.158,10.705,23.862,23.862,23.862c13.158,0,23.863-10.705,23.863-23.862c0-2.864-0.508-5.611-1.437-8.156h115.244
	c-0.929,2.546-1.437,5.293-1.437,8.156c0,13.158,10.705,23.862,23.863,23.862c13.157,0,23.862-10.705,23.862-23.862
	c0-2.864-0.508-5.611-1.437-8.156h115.245c-0.929,2.546-1.437,5.293-1.437,8.156c0,13.158,10.705,23.862,23.862,23.862
	s23.862-10.705,23.862-23.862c0-2.864-0.508-5.611-1.437-8.156h17.599c19.65,0,36.038,14.183,39.494,32.847h-15.551v15.706
	L495.41,264.376L495.41,264.376z"/>
<rect x="392.115" y="176.425" width="15.706" height="15.706"/>
<g>
	<rect x="368.033" y="288.458" style="fill:#AE7418;" width="15.706" height="15.706"/>
	<rect x="40.311" y="207.836" style="fill:#AE7418;" width="15.706" height="24.082"/>
</g>
</svg>