<?xml version="1.0" encoding="iso-8859-1"?>
<!-- Uploaded to: SVG Repo, www.svgrepo.com, Generator: SVG Repo Mixer Tools -->
<svg version="1.1" id="Layer_1" xmlns="http://www.w3.org/2000/svg" xmlns:xlink="http://www.w3.org/1999/xlink" 
	 viewBox="0 0 512 512" xml:space="preserve">
<rect x="136.429" y="79.479" style="fill:#B20209;" width="63.742" height="24.034"/>
<polyline style="fill:#FF1D25;" points="151.833,79.456 159.846,7.315 175.871,7.315 183.884,79.443 "/>
<rect x="111.768" y="103.523" style="fill:#FF4A51;" width="112.186" height="40.063"/>
<rect x="111.768" y="103.523" style="fill:#FF1D25;" width="88.141" height="40.063"/>
<rect x="111.768" y="103.523" style="fill:#B20209;" width="16.025" height="40.063"/>
<rect x="95.738" y="143.586" style="fill:#FF4A51;" width="144.234" height="360.581"/>
<rect x="95.738" y="143.586" style="fill:#FF1D25;" width="112.186" height="360.581"/>
<polyline style="fill:#FFFFFF;" points="239.88,352.148 167.778,352.148 167.778,440.969 239.88,440.969 "/>
<rect x="95.738" y="143.586" style="fill:#B20209;" width="24.034" height="360.581"/>
<rect x="312.095" y="79.479" style="fill:#AA5E04;" width="63.632" height="24.034"/>
<polyline style="fill:#F7931E;" points="328.116,79.456 336.129,7.315 352.155,7.315 360.168,79.443 "/>
<rect x="288.051" y="103.523" style="fill:#F9A94B;" width="112.186" height="40.063"/>
<rect x="288.051" y="103.523" style="fill:#F7931E;" width="88.141" height="40.063"/>
<rect x="288.051" y="103.523" style="fill:#AA5E04;" width="16.025" height="40.063"/>
<rect x="272.021" y="143.586" style="fill:#F9A94B;" width="144.234" height="360.581"/>
<rect x="272.021" y="143.586" style="fill:#F7931E;" width="112.186" height="360.581"/>
<rect x="272.021" y="143.586" style="fill:#AA5E04;" width="24.034" height="360.581"/>
<polyline style="fill:#FFFFFF;" points="95.677,352.148 136.43,352.148 136.43,440.969 95.677,440.969 "/>
<polygon points="231.52,127.484 215.846,127.484 215.846,110.765 119.71,110.765 119.71,127.484 104.036,127.484 104.036,95.09 
	231.52,95.09 "/>
<path d="M190.793,71.057L182.885,0h-30.051l-7.921,71.057h-8.483v15.674h63.742V71.057H190.793z M166.857,15.674h2.001l6.163,55.382
	h-14.338L166.857,15.674z"/>
<path d="M87.905,135.746V512h159.906V135.746H87.905z M103.58,407.53v-48.068h24.49v73.146h-24.49v-9.405h16.131V407.53H103.58z
	 M103.58,496.326v-48.043h40.165V343.788H103.58V151.42h128.558v192.368h-72.719v104.495h72.719v48.043H103.58z M232.138,391.856
	v8.36h-16.292v15.674h16.292v16.719h-57.045v-73.146h57.045v16.719h-31.966v15.674H232.138z"/>
<g>
	<rect x="111.35" y="463.957" style="fill:#FFFFFF;" width="48.068" height="15.674"/>
	<rect x="167.777" y="463.957" style="fill:#FFFFFF;" width="15.674" height="15.674"/>
	<rect x="152.103" y="168.237" style="fill:#FFFFFF;" width="63.742" height="15.674"/>
	<rect x="127.024" y="168.237" style="fill:#FFFFFF;" width="16.719" height="15.674"/>
	<polyline style="fill:#FFFFFF;" points="272.273,352.148 344.374,352.148 344.374,440.969 272.273,440.969 	"/>
	<polyline style="fill:#FFFFFF;" points="416.476,352.148 375.723,352.148 375.723,440.969 416.476,440.969 	"/>
</g>
<polygon points="408.116,127.484 392.442,127.484 392.442,110.765 296.307,110.765 296.307,127.484 280.633,127.484 280.633,95.09 
	408.116,95.09 "/>
<path d="M367.087,71.057L359.167,0h-30.051l-7.908,71.057h-9.227v15.674h63.742V71.057H367.087z M343.141,15.674h2.001l6.175,55.382
	h-14.338L343.141,15.674z"/>
<path d="M264.189,135.746V512h159.905V135.746H264.189z M279.863,400.215v-8.36h32.118v-15.674h-32.118v-16.719h57.196v73.146
	h-57.196V415.89h16.443v-15.674H279.863z M279.863,496.326v-48.043h72.871V343.788h-72.871V151.42H408.42v192.368h-40.013v104.495
	h40.013v48.043H279.863z M408.42,423.204v9.405h-24.339v-73.146h24.339v48.068h-17.024v15.674H408.42z"/>
<g>
	<rect x="296.306" y="463.957" style="fill:#FFFFFF;" width="87.776" height="15.674"/>
	<polygon style="fill:#FFFFFF;" points="303.621,240.338 287.947,240.338 287.947,168.237 311.981,168.237 311.981,183.911 
		303.621,183.911 	"/>
	<rect x="287.946" y="256.013" style="fill:#FFFFFF;" width="15.674" height="15.674"/>
</g>
</svg>