<svg height="511pt" viewBox="-112 0 511 512" width="511pt" xmlns="http://www.w3.org/2000/svg">
  <path d="M132 20c-1-4-6-4-7 0-4 41-4 88 1 138l6 46 26-49c-5-50-14-96-26-135zm0 0" fill="#bee891"/>
  <path d="M157 231l9-66c5-49 6-96 2-137-1-4-6-5-7-1-12 40-22 85-27 135l-3 46zm0 0" fill="#cdf5a0"/>
  <path d="M168 242c-4-1-8-5-7-9-13-29-30-38-40-40-3-1-6 3-4 6 7 13 9 26 11 34 0 4-3 8-7 9C57 251 8 299 8 356c0 48 34 89 83 107 9 3 17 10 22 18 3 5 8 7 13 7h37c5 0 10-2 12-7 6-8 13-15 23-18 49-18 83-59 83-107 0-57-49-105-113-114zm0 0" fill="#ffaa5f"/>
  <path d="M168 242c-4-1-8-5-7-9-5-12-11-20-17-26v281h19c5 0 10-2 12-7 6-8 13-15 23-18 49-18 83-59 83-107 0-57-49-105-113-114zm0 0" fill="#ffc369"/>
  <path d="M181 244c-4-1-18-4-19-9-7-25-32-40-41-42-3-1-6 3-5 6 8 13 10 26 12 34 0 4-3 8-7 9C57 251 8 299 8 356c0 48 34 89 83 107 9 3 17 10 22 18 3 5 8 7 13 7h37c5 0 10-2 12-7 6-8 13-15 23-18 49-18 83-59 83-107 0-53-42-98-100-112zm0 0" fill="#ffaa5f"/>
  <path d="M123 241l-2 1C57 251 8 299 8 356c0 48 34 89 83 107l9 5 44-15V241zm0 0" fill="#ff8c5a"/>
  <path d="M144 244v243c53 0 96-60 96-127s-43-117-96-117zm0 0" fill="#ffd164"/>
  <path d="M144 238v243c-53 0-96-54-96-121s43-122 96-122zm0 0" fill="#ffaa5f"/>
  <path d="M184 360c0 67-18 121-40 121s-40-54-40-121 18-122 40-122c24 0 40 55 40 122zm0 0" fill="#ffc369"/>
  <path d="M171 235c-2-1-3-1-2-2 1-7 4-19 13-28a8 8 0 00-11-10l-4 4a807 807 0 004-192 8 8 0 00-14-2l-13 42-12-42a7 7 0 00-15 2 705 705 0 002 178l-8-1a8 8 0 00-5 12c10 15 13 30 14 38h-1C51 245 1 296 1 356c0 50 34 95 87 114 8 3 14 8 19 15 4 6 10 10 17 11l-2 5a8 8 0 0013 7l6-12h7l6 12a7 7 0 1013-7l-3-5c7-1 14-5 18-11 4-7 11-12 19-15 53-19 87-64 87-114 0-59-49-110-117-121zm-31-76c4-39 11-77 20-112a735 735 0 01-9 156l-14-12 3-32zM129 47l8 34-8 44c-2-27-2-53 0-78zM16 356c0-37 22-71 57-90l-12 16c-13 22-20 49-20 78 0 30 8 58 23 81-30-20-48-51-48-85zm209 85a151 151 0 0018-119c-1-4-4-7-9-6-4 1-6 5-5 9 3 11 4 23 4 35a123 123 0 01-46 100c-8 4-14 10-18 17-2 2-4 4-6 4h-37c-2 0-5-2-6-4a53 53 0 00-19-17c-28-21-45-59-45-100 0-49 24-93 59-108-13 23-22 63-22 108 0 28 4 55 10 78a8 8 0 0010 5c4-2 5-6 4-10-6-21-9-47-9-73 0-51 12-98 29-112 2-2 3-5 2-8s-3-5-5-16l-7-21c6 3 14 10 22 22l5 13 2 5c3 3 7 6 11 6h1c20 7 37 23 49 46a7 7 0 0011 3c3-3 4-7 2-11-4-8-9-15-14-21 35 19 57 53 57 90 0 34-18 65-48 85zm0 0"/>
  <path d="M187 331c-4 0-8 4-7 8a332 332 0 01-5 79 8 8 0 0015 3 315 315 0 005-83c-1-4-4-8-8-7zm0 0M183 313h2c4-1 6-5 6-9l-3-11a7 7 0 10-14 3l2 11c1 3 4 6 7 6zm0 0"/>
</svg>