<svg xmlns="http://www.w3.org/2000/svg" viewBox="0 0 128 128"><path fill="#cedbdd" d="M104 88c10 1 16 4 16 7 0 5-25 10-56 10S8 101 8 95c0-3 6-5 16-7Z"/><path fill="#f4b042" d="M37 45 23 92c0 5 18 8 41 8s41-4 41-8a2 2 0 0 0 0-1L91 45Z"/><path fill="#ed9135" d="M101 79c-6 3-20 5-37 5s-31-2-37-4l-4 12c0 5 18 8 41 8s41-4 41-8a2 2 0 0 0 0-1Z"/><path fill="#592d23" d="M91 45H37l-2 6c1 2 13 4 29 4a3 3 0 0 1 3 3v8a3 3 0 0 0 3 3 3 3 0 0 0 3-3v-7a3 3 0 0 1 3-3 3 3 0 0 1 3 3v2a3 3 0 0 0 3 3 3 3 0 0 0 3-3v-5a3 3 0 0 1 2-3l6-2Z"/><path fill="#663628" d="M91 45c0-3-12-5-27-5s-27 2-27 5 12 5 27 5 27-3 27-5Z"/><path d="M104 87 92 44c-3-4-18-5-28-5h-1a112 112 0 0 0-18 1c-8 2-9 3-9 5L24 87c-11 2-17 5-17 8s6 6 17 8 24 3 39 3h1c28 0 57-4 57-11 0-4-6-6-17-8Zm-80 5 12-39c4 3 18 3 28 3a2 2 0 0 1 1 1 2 2 0 0 1 1 1v8a4 4 0 0 0 4 4 4 4 0 0 0 4-4v-7a2 2 0 0 1 2-2 2 2 0 0 1 2 2v2a4 4 0 0 0 4 4 4 4 0 0 0 4-4v-5a2 2 0 0 1 1-2 17 17 0 0 0 5-2l12 40c0 3-16 7-40 7a168 168 0 0 1-29-2c-9-2-11-4-11-5Zm13-45 8 2a112 112 0 0 0 18 2h1c9 0 22-1 27-4l1 3-5 2a4 4 0 0 0-3 4v5a2 2 0 0 1-2 2 2 2 0 0 1-2-2v-2a4 4 0 0 0-1-3 4 4 0 0 0-3-1 4 4 0 0 0-4 4v7a2 2 0 0 1-2 2 2 2 0 0 1-2-2v-8a4 4 0 0 0-4-4c-17 0-27-2-28-3Zm26-6h1c16 0 25 2 26 4-1 1-10 4-26 4h-1c-16 0-25-3-25-4s9-4 25-4Zm1 63c-15 0-29-1-39-3-12-2-16-4-16-6 0-1 4-4 14-6l-1 2a3 3 0 0 0 0 1c0 1 0 4 13 7a169 169 0 0 0 28 2h1c17 0 42-3 42-9a3 3 0 0 0 0-1l-1-2c10 2 14 4 14 6 0 4-21 9-55 9Z"/></svg>