<svg xmlns="http://www.w3.org/2000/svg" viewBox="0 0 470 470" width="512" height="512">
  <path fill="#fd7555" d="M433 345l-30 40 30 40h30v-80z"/>
  <path fill="#fda162" d="M8 345h425v80H8z"/>
  <path d="M463 403c-115 0-173-6-229-11-55-4-113-9-226-9a7 7 0 110-15c114 0 172 5 228 10 55 4 113 9 227 9a7 7 0 110 16z" fill="#fefdca"/>
  <path fill="#fdce6e" d="M403 45l-30 135 30 135h30V45z"/>
  <path d="M38 45v105a45 45 0 110 90v75h135l45-15 45 15h140V45H38z" fill="#fdfa7b"/>
  <path d="M373 210l-10 30 10 30a30 30 0 100-60z" fill="#fda162"/>
  <path d="M343 240c0 17 13 30 30 30v-60c-17 0-30 13-30 30z" fill="#fdce6e"/>
  <path d="M218 270l15 45h30c0-25-21-45-45-45z" fill="#fda162"/>
  <path d="M218 270c-25 0-45 20-45 45h60c0-25-7-45-15-45z" fill="#fdce6e"/>
  <path d="M143 165l-10 30 10 30a30 30 0 100-60z" fill="#fda162"/>
  <path d="M113 195c0 17 13 30 30 30v-60c-17 0-30 13-30 30z" fill="#fdce6e"/>
  <path d="M258 75v90a45 45 0 100-90z" fill="#fda162"/>
  <path d="M273 120c0-25-7-45-15-45a45 45 0 100 90c8 0 15-20 15-45z" fill="#fdce6e"/>
  <path d="M463 338H8c-5 0-8 3-8 7v80c0 4 3 8 8 8h455c4 0 7-4 7-8v-80c0-4-3-7-7-7zm-8 15v34c-108 0-165-5-219-9-55-5-112-10-221-10v-15h440zM15 418v-35c108 0 165 5 219 9 55 5 112 10 221 10v16H15zM258 173a53 53 0 10-23-100 8 8 0 006 13c5-2 11-3 17-3a38 38 0 11-34 21 8 8 0 00-14-7 53 53 0 0047 75z"/>
  <path d="M38 323h395c4 0 7-4 7-8V45c0-4-3-7-7-7H38c-5 0-8 3-8 7v105c0 4 3 8 8 8a38 38 0 010 75c-5 0-8 3-8 7v75c0 4 3 8 8 8zm143-15a38 38 0 0173 0h-73zM45 247a53 53 0 000-104V53h380v255H269a53 53 0 00-103 0H45v-61z"/>
  <circle cx="375" cy="112.5" r="7.5"/>
  <circle cx="345" cy="142.5" r="7.5"/>
  <circle cx="105" cy="97.5" r="7.5"/>
  <circle cx="290" cy="247.5" r="7.5"/>
  <path d="M373 278a38 38 0 10-10-74 8 8 0 004 14 23 23 0 0128 22 23 23 0 11-44-6 8 8 0 00-15-4 38 38 0 0037 48zM180 195a38 38 0 00-47-36 8 8 0 004 14 23 23 0 0128 22 23 23 0 11-44-6 8 8 0 00-15-4 38 38 0 1074 10z"/>
</svg>