<svg height="512" width="512" xmlns="http://www.w3.org/2000/svg">
  <g data-name="Filled outline">
    <path d="M290 104c4-6 8-72 54-72s43 43 71 64c31 25 66 16 65 64-1 41-55 38-63 62s13 44-10 68c-25 25-85-10-109 16-47 48-110 105-149 64s16-104 63-137c41-28-2-60 15-96 16-33 47-8 63-33z" fill="#809e39"/>
    <path d="M112 440l-48 48-40-40 14-14 12-12 22-22z" fill="#f2dec2"/>
    <path d="M103 406c-16-21 0-48 15-65s55-24 63-48-1-61 31-85c38-29 60-8 84-14 32-8 49-60 89-48 34 10 29 36 44 69 15 30 59 31 59 70 0 56-46 53-87 48-35-4-25 37-67 57-44 20-69-22-90-8-23 16-93 88-141 24z" fill="#85a33e"/>
    <path d="M105 403c20 15 65 17 84 6 55-31 55-71 70-86 23-23 56-15 71-40 23-39-22-55-16-78 8-31 53-36 45-80-6-34-35-28-67-43-30-15-31-58-69-58-55 0-52 46-47 85 4 35-36 25-55 66-19 43 22 68 8 89-16 23-86 91-24 139z" fill="#8bab43"/>
    <path d="M252 289c-44 9-47 71-81 92-30 19-69 19-108 11 0 0 32 72 118 63a177 177 0 0030-5c13 8 21 30 44 30 39 0 44-32 67-32 19 0 32 40 71 40 31 0 34-28 39-40s55 0 55-48c0-20-12-32-31-36-13-3-42 6-47-13l-1-10c-1-7-2-14-5-20a30 30 0 00-18-16c-23-8-31 8-63 8-26 0-31-32-70-24z" fill="#94b54a"/>
    <path d="M199 189c0-32 16-39 8-63a30 30 0 00-17-18c-6-3-12-4-19-4l-11-2c-19-4-9-34-12-47-4-19-16-31-37-31-47 0-35 50-47 55s-40 8-40 39c0 39 40 52 40 71 0 23-32 23-32 63 0 23 22 35 30 49-46 92 49 140 49 140-8-39 1-71 19-101 21-33 84-37 93-81 8-39-24-44-24-70z" fill="#9bbc50"/>
    <path d="M459 357a41 41 0 00-9-1c-7 0-14 2-21 0s-14-7-12-14c23 7 50 1 66-17s19-47 5-67c-13-18-38-26-50-45 18-5 35-17 44-34s9-39-4-54c-15-18-42-21-60-36-15-14-21-37-36-51a53 53 0 00-85 18l14 7c8-20 37-29 55-17 19 13 23 39 39 54 11 10 25 14 38 20s27 15 30 30c2 11-3 23-12 31s-19 13-30 17l-9-28a96 96 0 0030-11l-9-14c-7 7-19 9-29 6s-19-8-28-14l20-19-12-12-25 27a110 110 0 01-9-66l-13-7a87 87 0 00-6 29c-18-4-38-8-52-20s-22-31-37-42c-16-13-40-15-58-5s-30 30-28 51h16a38 38 0 0160-35c15 11 21 32 35 44 12 10 29 12 43 17s31 15 33 30c2 16-11 30-23 41s-25 23-24 40c0 18 19 31 22 49a30 30 0 01-16 31 19 19 0 01-10 2c-5-1-9-3-13-6-20-10-45-7-62 6-22 18-28 49-47 71a77 77 0 01-61 25 91 91 0 0131-56c16-14 37-21 54-34s32-32 28-53a136 136 0 0057-17l-8-14a116 116 0 01-53 15c-7-18 4-36 14-52a159 159 0 0086-28l-9-13a143 143 0 01-70 25l28-62-15-6-14 30a78 78 0 01-20-65l-16-4c-5 31 6 64 29 85l-30 63c-6-9-5-21-2-31s8-21 8-31c1-23-19-44-41-44-7 0-15 1-18-5-2-3-2-6-2-9 1-13 1-26-3-38a46 46 0 00-33-28c-29-6-52 16-56 43-1 4-1 8-3 11-4 4-9 5-14 6a45 45 0 00-31 35c-4 23 11 46 28 62 5 4 11 9 11 16 1 9-8 16-15 22a56 56 0 002 79c4 3 8 6 9 10l-2 9c-18 49 4 109 49 134l-34 34-29-29 9-9 14 15 12-12-15-14 7-7-11-11-31 30c-2 2-4 4-4 7 0 4 2 7 5 9l35 36 7 4c4 0 7-3 10-5l39-40a131 131 0 0086 10c3-1 6-2 10-1 5 1 9 6 12 10 19 21 54 23 75 5 10-9 20-22 32-17 4 1 7 4 9 7 15 15 33 31 55 32 19 1 38-12 44-30l4-11c5-7 17-8 26-11 20-7 35-30 31-51-3-19-19-34-37-37zM322 207c2-10 10-17 19-25s18-16 23-28a28 28 0 015-2 31 31 0 0114 1c10 3 16 7 20 14 4 6 6 13 9 22 7 27 18 44 42 60 14 10 26 18 26 36 0 16-4 26-11 33-12 11-33 11-55 9a50 50 0 00-2-9 39 39 0 00-24-20c-15-6-26-2-36 2-8 2-16 5-29 5a21 21 0 01-5-1l47-31a135 135 0 0063 16 92 92 0 0019-2l-4-16s-28 6-62-8l37-25-10-14c0 1-14 11-36 25-9-35 6-59 7-60l-7-4-6-4c-1 1-22 33-8 78l-14 9c3-18-7-31-14-41-6-9-10-15-8-20zM75 401a91 91 0 01-3-102 111 111 0 0088-26l-10-12a95 95 0 01-73 22l13-31 3-6 7-4a169 169 0 0077-73l-14-8a159 159 0 01-64 63 161 161 0 005-48v-7a14 14 0 014-4 116 116 0 0035-51l-16-5a102 102 0 01-26 41 413 413 0 00-14-50l-15 5c24 57 19 125-13 178a41 41 0 01-12-55c8-12 22-20 25-34 1-9-3-18-9-25l-19-20c-7-8-12-17-12-28s4-21 13-26 21-5 27-13c3-3 4-7 5-11 3-9 5-24 11-31s20-10 29-8a31 31 0 0122 20c3 9 1 19 1 28s2 19 9 25c11 10 31 3 43 13 9 6 10 19 7 30s-7 22-8 33a47 47 0 005 27c6 11 16 19 19 32 5 18-7 36-23 47s-33 18-48 29c-33 24-45 68-43 109a91 91 0 01-26-24zm373 32c-10 2-19 4-22 12l-3 8c-5 16-10 27-29 27-20 0-32-12-43-23-9-9-17-17-28-17-13 0-22 8-30 15-9 9-18 17-37 17-12 0-19-7-26-16l-4-4 16-6c31-13 64-27 105-21a340 340 0 0160 15l2-8 3-7s-9-4-23-7c9-12 19-17 19-17l-6-15c-1 1-18 8-30 28l-23-4a153 153 0 00-40-1c15-46 46-55 47-56l-2-7-2-8c-1 0-44 12-61 74-16 4-31 9-46 15-7-44 27-94 27-94l-6-5-7-4c-2 2-39 58-29 109l-24 10a175 175 0 01-25 4c-23 3-44-1-63-10a130 130 0 01-1-32c23-1 43-6 59-17 16-10 26-28 35-45 11-22 22-42 43-46 19-4 28 3 38 11 8 6 18 13 31 13 16 0 26-3 34-6 10-4 16-6 26-2a22 22 0 0114 12c2 4 3 10 3 17l1 1a50 50 0 001 11c5 19 26 18 40 18h13c17 4 25 13 25 29 0 25-16 29-32 32z"/>
  </g>
</svg>