<svg xmlns="http://www.w3.org/2000/svg" viewBox="0 0 512 512">
  <path d="M256 9h195c12 0 21 9 21 21v376c0 12-5 24-14 32l-91 62-15 3h-96V9z" fill="#916d42"/>
  <path d="M471 23l-95 65-24 152H84l-14-85H40v-42C40 55 86 9 143 9h308c9 0 17 5 20 14z" fill="#bc9a5e"/>
  <path d="M82 503c-23 0-42-19-42-42V122c0-23 19-42 42-42h267c24 0 43 19 43 42v339c0 23-19 42-43 42H82z" fill="#caa661"/>
  <path d="M319 437H117c0-14 3-27 11-37l62-84c15-20 40-20 56 0l62 84c7 10 11 23 11 37z" fill="#ddc98b"/>
  <path d="M479 20a30 30 0 00-2-4l-1-2-1-2c-6-7-13-11-22-12H143A112 112 0 0031 113v348c0 13 5 26 15 36s22 15 36 15h271c12-1 23-6 31-14l79-53 1-1c11-10 17-24 17-38V30l-2-10zm-336-3h308c3 0 6 1 8 4l-83 57c-8-4-17-7-27-7H82c-10 0-19 3-27 8 13-36 48-62 88-62zM58 485c-6-7-10-15-9-24V122c-1-9 3-17 9-24 7-6 15-10 24-10h267c19 0 34 16 34 34v339c0 19-15 34-34 34H82c-9 0-17-4-24-10zm395-54l-53 36V122c0-12-4-23-11-32l75-52v368c0 9-4 18-11 25zm-138-36l-63-84c-9-12-21-18-34-18s-26 6-35 18l-62 84c-8 11-13 26-13 42 0 5 4 8 9 8h202a9 9 0 009-9c0-15-5-30-13-41zm-189 33c1-9 4-17 9-23l62-83c6-8 13-12 21-12s15 4 21 12l62 83c5 6 8 14 9 23H126zm83-197c0-5 3-8 8-8h2c4 0 8 3 8 8s-4 9-8 9h-2c-5 0-8-4-8-9zm22-51c0-5 4-9 8-9h2c5 0 8 4 8 9s-3 9-8 9h-2c-4 0-8-4-8-9zm-4 166c0 5-4 9-8 9h-2c-5 0-8-4-8-9s3-8 8-8h2c4 0 8 4 8 8zm-41-207c0-5 4-9 9-9h1c5 0 9 4 9 9s-4 9-9 9h-1c-5 0-9-4-9-9zm63 253c0 5-3 8-8 8h-2c-4 0-8-3-8-8s4-9 8-9h2c5 0 8 4 8 9zm-44 0c0 5-4 8-9 8h-1c-5 0-9-3-9-8s4-9 9-9h1c5 0 9 4 9 9z"/>
</svg>