<svg version="1.0" xmlns="http://www.w3.org/2000/svg" width="682.7" height="682.7" viewBox="0 0 512 512">
  <path d="M247 3c-7 2-16 7-21 12-6 8-8 14-8 26v10l-5-3c-12-7-29-1-36 11-3 6-3 18 0 24l31 31c2 1 3 3 2 3 0 1-3 0-7-3-9-6-13-8-21-8-20 0-33 20-24 39 2 4 5 8 27 26l23 22c-1 1-5-3-12-9-14-14-18-16-30-16-8 0-10 0-14 2-12 6-18 17-18 29 0 13 6 20 23 31l4 3-2 3c-10 13-10 28-1 39 6 6 9 8 23 11 14 4 30 10 38 16 7 6 14 15 19 25 8 16 7 10 8 98v79l3 2c4 5 10 5 15 0l2-2v-77c1-88 0-81 9-100 11-21 28-34 56-41 14-4 17-5 23-11 9-11 9-26-1-39l-2-3 4-3c17-11 23-18 23-31 0-12-6-23-18-29-4-2-6-2-13-2-13 0-17 2-31 16-7 6-11 10-12 9l24-22c21-18 24-22 27-26 8-19-5-39-25-39-8 0-12 2-20 8-5 3-7 4-8 3a256 256 0 0033-35c3-5 3-17 0-23-6-12-24-18-36-11l-4 3-1-10c0-7 0-11-2-15-5-13-19-23-34-23h-11zm19 22l6 6c2 4 3 10 0 36-1 19-1 21 3 25 2 2 7 3 11 1l11-13 11-14c5-2 11 3 9 7l-15 15-17 17c-9 14-1 31 16 33 6 0 10-1 19-7l10-5c4 0 7 3 7 7 0 3-3 5-24 24-27 23-30 27-30 36s6 17 15 20c4 2 14 1 18-2l14-12c12-12 15-13 21-11 7 3 9 11 5 16l-22 15-21 15c-2 3-2 7 0 11s7 5 13 3 9-1 13 3c3 3 3 7 0 11-2 2-5 3-15 5-23 6-35 13-49 27l-9 8V146l-3-3c-4-4-10-4-14 0l-2 3-1 77v77l-5-5a102 102 0 00-52-28c-11-2-14-4-16-6-3-3-3-7 0-11 4-3 8-4 13-2 7 2 11 1 14-3v-11l-20-13c-22-14-24-16-26-20-1-3-1-4 1-7 2-5 8-8 13-7 3 1 6 4 14 12 15 14 16 14 25 14 7 0 8 0 12-2 9-7 13-17 8-27-3-5-7-9-27-27-22-19-25-22-25-24 0-4 3-7 7-7l10 5c9 6 13 7 19 7 13-2 22-13 20-25-1-6-6-11-21-25l-15-15c-2-4 4-9 9-7l11 14 12 13c3 2 8 1 10-1 4-4 4-6 3-25-3-26-2-32 0-36 4-6 12-9 19-8l7 2z"/>
  <path d="M53 130c-13 2-25 10-33 22-5 7-8 16-8 26 0 15 4 24 15 37l5 5-6 1c-7 1-13 3-18 8-13 14-9 37 8 45 2 1 11 4 19 5 25 6 24 6 12 7s-19 4-26 11c-5 6-9 16-9 23 0 10 5 21 13 27 11 8 19 9 45 4 13-2 16-2 17-1 1 2 0 3-11 8-18 9-23 14-23 27 0 11 7 20 18 24 7 2 11 1 30-5 23-7 29-8 41-8 19 0 37 8 50 22s23 43 25 73c1 13 2 16 7 18s11 0 13-4c3-7-1-41-8-63l-9-22c-8-15-10-21-10-32-1-10 1-20 8-34 5-9 5-11 5-14-2-8-13-11-18-4-6 6-11 19-15 33l-1 3-21-32-24-34c-3-3-8-2-12 0-3 4-4 7-3 11a620 620 0 0040 62l-6-2c-8-2-26-3-36-1l-27 7-23 6c-3-1-5-3-3-6l13-8c16-8 21-13 21-24 0-12-10-22-22-22l-21 2c-18 3-20 4-25 1s-7-7-7-12c0-4 1-6 3-8 4-5 7-6 17-6 9 0 13-1 18-7 9-9 7-25-5-32-2-1-11-4-23-6-16-4-19-5-21-8-3-4-3-8 2-11h15c11 1 12 1 16-1s8-9 8-12c0-4-3-9-14-21-14-15-16-19-17-28 0-8 2-16 9-22s14-8 23-8c6 0 9 1 14 3 8 5 12 10 17 27 6 17 8 20 11 21 4 3 8 2 11-1 5-4 4-8-2-25-6-18-8-23-15-31a52 52 0 00-47-14zM438 131c-15 3-28 13-34 25-5 10-12 32-12 37 0 4 0 5 3 7 3 3 7 4 11 2 3-2 4-4 11-22 5-17 9-22 17-26 5-3 8-4 14-4 9 0 15 2 22 8s10 14 10 22c-1 9-4 13-17 28-11 12-14 17-14 21s4 10 8 12 4 2 16 1h15c5 3 5 7 2 12-2 2-5 3-22 7-11 2-20 5-23 7-11 6-14 22-4 32 5 5 8 6 17 6 10 0 14 1 18 6 5 6 4 16-4 20-5 3-7 3-25 0l-21-3c-12 0-22 10-22 22 0 11 4 16 21 24l13 8c2 3 0 5-3 6l-23-6-27-7a120 120 0 00-42 3l9-15c25-37 30-45 30-49 0-6-3-9-9-9-4 0-5 1-8 3l-23 34-19 30-2-8c-2-9-9-22-13-27s-8-6-12-3c-7 3-8 8-2 19 7 12 8 19 8 30 0 13-1 18-9 35l-10 24c-7 21-11 55-8 62 4 6 14 6 18 0l2-15c2-21 7-42 15-59 11-21 35-35 60-35 12 0 17 1 41 8 19 6 23 7 30 5 11-4 18-13 18-24 0-13-5-18-23-27-11-5-12-6-11-7 1-2 4-2 17 1 26 4 34 3 45-5 8-6 13-17 13-27 0-7-4-17-9-23-7-7-14-10-26-11s-13 0 12-6l19-6c6-2 11-7 14-14 2-4 2-6 2-12-1-8-3-14-8-19-5-4-11-7-18-8h-6l5-6c11-12 15-22 15-36 0-11-3-19-8-27a52 52 0 00-54-21z"/>
  <path d="M113 272c-10 5-6 19 4 19 4 0 9-4 9-8 1-3-1-8-3-10s-8-2-10-1zM391 272c-3 1-5 6-5 10s4 9 9 9 10-4 10-10c0-7-7-12-14-9z"/>
</svg>