<svg xmlns="http://www.w3.org/2000/svg" viewBox="0 0 512 512">
  <path d="M401 360c0 90-73 144-163 144l-13-1c-83-5-149-60-148-145 1-45 19-84 48-113 13-13 21-29 23-47l1-1c8-45 45-79 90-79a94 94 0 0190 80c3 18 11 35 24 48 30 29 48 69 48 114z" fill="#a3e261"/>
  <path d="M239 118l-1 35s-15 11-17 40c-5 76-64 103-64 180s28 107 68 130c-83-5-149-60-148-145 1-45 19-84 48-113 13-13 21-29 23-47l1-1c8-45 45-79 90-79z" fill="#93cc52"/>
  <path d="M393 84l42-44-56-26c-34-15-74 2-87 37l-7 18 13 14c25 28 69 29 95 1z" fill="#2fcc6e"/>
  <path d="M322 476c-24 13-54 19-84 19-48 0-89-16-117-45-24-24-36-56-36-92 1-41 17-79 46-107a89 89 0 0026-52c4-21 14-39 29-52a8 8 0 10-11-13 109 109 0 00-35 63c-2 16-10 31-21 42-32 31-50 73-51 118 0 41 14 77 41 105a179 179 0 00130 50c33 0 64-7 91-21a8 8 0 00-8-15zM266 80c5 0 11 0 16-2l10 11c13 15 33 24 53 24h1c20 0 39-8 53-23l42-44a8 8 0 00-2-14L383 7a73 73 0 00-99 41l-5 14c-29 6-42-11-44-13-4-7-8-13-13-18a8 8 0 10-12 12c16 16 21 44 21 67l-27 6a8 8 0 006 16l21-5-1 19-5-3a8 8 0 10-12 12 35 35 0 0050 0 8 8 0 10-12-12l-4 3 1-19a87 87 0 0173 72c3 20 12 38 26 53 29 29 45 67 45 108 0 42-16 77-47 101a8 8 0 0010 14c35-28 54-69 54-115 0-45-18-88-50-120a79 79 0 01-22-45c-8-46-45-80-89-85 0-10-1-22-4-34 6 2 14 4 22 4zm34-26c5-15 16-27 31-33 14-6 30-6 45 1l45 21-34 35a55 55 0 01-42 18c-15 0-30-7-41-19l-9-10 5-13z"/>
</svg>