<svg height="512" width="512" xmlns="http://www.w3.org/2000/svg">
  <path d="M371 133v371H29c-11 0-20-8-20-19V64c0-11 9-20 20-20h254c0 49 39 89 88 89z" fill="#f1d333"/>
  <path d="M81 505H29c-11 0-20-9-20-20V64c0-11 9-20 20-20h52c-11 0-20 9-20 20v421c0 11 9 19 20 19z" fill="#e7a52e"/>
  <path d="M363 8l37 80c-45 21-97 1-117-44z" fill="#f1d333"/>
  <path d="M172 462H86c-14 0-25-11-25-25V163c0-13 11-24 25-24h208c14 0 25 11 25 24v126" fill="#f9f6f9"/>
  <path d="M481 325a299 299 0 01-1 28c-6 62-31 116-67 151H205a247 247 0 01-68-179z" fill="#61a2f9"/>
  <path d="M481 325a299 299 0 01-1 28H138a300 300 0 01-1-28z" fill="#4073c8"/>
  <path d="M266 505h-61c-42-42-68-107-68-180h101c0 73 11 138 28 180z" fill="#4073c8"/>
  <path d="M133 289h352a18 18 0 010 36H133a18 18 0 010-36z" fill="#61a2f9"/>
  <path d="M242 325H133a18 18 0 110-36h109a18 18 0 00-18 18c0 10 8 18 18 18z" fill="#4073c8"/>
  <g>
    <path d="M510 307c0-14-11-26-25-26H379V133c0-4-4-8-8-8-33 0-61-19-74-48a96 96 0 00106 18c4-2 6-6 4-10L370 4c-1-3-6-5-10-3l-79 36H102a8 8 0 000 15h173c4 47 42 84 89 88v141h-37V163c0-18-15-32-33-32H86c-18 0-32 14-32 32v274c0 18 14 32 32 32h82c6 10 12 19 20 28H29c-7 0-12-5-12-12V64c0-7 5-12 12-12h43a8 8 0 000-15H29C14 37 2 49 2 64v421c0 15 12 27 27 27h384l5-2c12-12 22-25 31-40a7 7 0 00-12-8c-8 13-17 25-27 35H208c-19-20-35-45-46-73-11-29-17-60-18-92h329c-1 37-9 73-23 105a7 7 0 1014 6c15-33 23-72 24-111 13-2 22-12 22-25zM360 17l30 67a81 81 0 01-97-36zM159 454H86c-10 0-17-7-17-17V163c0-9 7-17 17-17h208c10 0 18 8 18 17v118H133a25 25 0 00-4 51 287 287 0 0030 122zm326-137H133a10 10 0 010-21h352a10 10 0 010 21z"/>
    <path d="M259 241c4 0 8-3 8-7v-25l19 28c2 3 6 5 9 4 4-2 6-5 6-9l-1-47c0-4-3-7-7-7s-8 3-8 7l1 25-21-29a8 8 0 00-13 4v49c0 4 3 7 7 7zM130 235l2-3a7 7 0 10-11-10l-1 2c-2 2-5 2-9 2a17 17 0 1110-30 7 7 0 108-13c-5-3-11-5-18-5a32 32 0 000 63c7 0 14-2 19-6zM209 241c5 0 8-3 8-7v-10l13 15a7 7 0 0011 1c3-3 3-8 0-11l-11-12c8-3 13-11 13-19 0-11-9-20-21-20h-13c-4 0-7 3-7 7v49c0 4 3 7 7 7zm13-48c3 0 6 2 6 5s-2 5-6 5h-5a1353 1353 0 010-10h5z"/>
    <path d="M166 241a32 32 0 100-63 32 32 0 000 63zm0-48a17 17 0 110 34 17 17 0 010-34z"/>
  </g>
</svg>