<svg xmlns="http://www.w3.org/2000/svg" viewBox="0 0 576 512">
  <path fill="currentColor" d="M567 169L407 9c-20-20-55-6-55 23v73c-142 3-264 38-264 181 0 85 50 134 79 156 25 17 58-5 50-35-29-102 8-123 135-126v71c0 29 35 43 55 23l160-160c12-13 12-33 0-46zM384 352V248c-142 1-241 15-198 168-31-23-66-65-66-130 0-134 132-149 264-150V32l160 160-160 160zm37 52l7-5c8-8 20-2 20 8v57c0 27-21 48-48 48H48c-27 0-48-21-48-48V112c0-27 21-48 48-48h172c7 0 12 5 12 12 0 5-4 10-9 11a327 327 0 00-31 9H48c-9 0-16 7-16 16v352c0 9 7 16 16 16h352c9 0 16-7 16-16v-50c0-4 2-8 5-10z"/>
</svg>