<svg xmlns="http://www.w3.org/2000/svg" viewBox="0 0 448 512">
  <path fill="currentColor" d="M296 432h16a8 8 0 008-8V152a8 8 0 00-8-8h-16a8 8 0 00-8 8v272a8 8 0 008 8zm-160 0h16a8 8 0 008-8V152a8 8 0 00-8-8h-16a8 8 0 00-8 8v272a8 8 0 008 8zM440 64H336l-34-45a48 48 0 00-38-19h-80a48 48 0 00-38 19l-34 45H8a8 8 0 00-8 8v16a8 8 0 008 8h24v368a48 48 0 0048 48h288a48 48 0 0048-48V96h24a8 8 0 008-8V72a8 8 0 00-8-8zM171 38a16 16 0 0113-6h80a16 16 0 0113 6l19 26H152zm213 426a16 16 0 01-16 16H80a16 16 0 01-16-16V96h320zm-168-32h16a8 8 0 008-8V152a8 8 0 00-8-8h-16a8 8 0 00-8 8v272a8 8 0 008 8z"/>
</svg>