<svg xmlns="http://www.w3.org/2000/svg" viewBox="0 0 512 512">
  <path d="M434 78c65 64 88 147 50 184-37 37-119 15-184-50S213 65 250 28s120-15 184 50zm26 160c9-9 11-27 5-49-8-29-28-61-55-87-26-27-58-47-87-55-22-6-40-4-49 5s-10 27-4 49c7 29 27 60 54 87s59 47 87 55c22 5 41 4 49-5z" fill="#efbb6a"/>
  <path d="M465 189c6 22 4 40-5 49-8 9-27 10-49 5-28-8-60-28-87-55s-47-58-54-87c-6-22-5-40 4-49s27-11 49-5c29 8 61 28 87 55 27 26 47 58 55 87z" fill="#f97c64"/>
  <path d="M300 212c65 65 147 87 184 50-106 107-235 155-309 121a93 93 0 01-46-46c-34-74 15-203 121-309-37 37-15 119 50 184z" fill="#d88948"/>
  <path d="M222 383a93 93 0 01-46-46c-27-57-3-148 59-236-6-30-2-56 15-73C144 134 95 263 129 337a92 92 0 0046 46c22 10 49 13 78 9-11-2-22-5-31-9z" fill="#c4783f"/>
  <path d="M175 383l-55 55a39 39 0 11-67 21 39 39 0 1122-67l54-55a92 92 0 0046 46z" fill="#e6e6e6"/>
  <path d="M87 482c-9-9-13-22-11-34a39 39 0 01-34-66l1-1c-9 1-17 5-23 12a39 39 0 0033 66 39 39 0 0066 34c-11 1-23-2-32-11z" fill="#ccc"/>
  <path d="M507 177c-10-36-33-74-66-106-32-33-70-56-106-66-38-10-70-5-91 16-26 26-50 55-70 85a9 9 0 0015 10c11-16 22-32 35-47-1 13 1 27 5 42 10 36 33 74 65 107 33 32 71 55 107 65a136 136 0 0042 5c-41 34-85 61-128 78-54 21-102 23-136 8a84 84 0 01-41-41c-20-45-8-114 32-186a9 9 0 00-16-9c-42 75-54 146-35 196l-45 45a48 48 0 10-30 88 48 48 0 0048 45 48 48 0 0041-74l27-28a9 9 0 10-12-13l-33 34-17 16a9 9 0 1013 13l9-9c5 11 3 25-6 34a30 30 0 01-51-25 9 9 0 00-11-11c-9 2-18-1-25-8a30 30 0 0134-49l-9 9a9 9 0 1013 13l16-17 47-46a100 100 0 0044 39c17 8 36 12 58 12 27 0 59-7 91-19 58-23 118-63 170-115 21-21 26-53 16-91zm-28 78c-16 16-42 19-73 11-34-9-69-31-99-61s-52-65-61-99c-8-31-5-57 11-73 10-10 25-15 43-15 9 0 19 1 30 4 34 9 69 31 99 61s52 65 61 99c8 31 4 57-11 73z"/>
  <path d="M417 95c-27-28-61-49-91-57-25-7-46-5-58 7-11 11-13 32-6 57 8 30 29 64 56 92 28 27 62 48 92 56a113 113 0 0018 4 9 9 0 001-18l-15-3c-27-7-57-26-83-52s-45-56-52-83c-5-19-4-34 2-41 6-6 22-7 40-2 28 8 58 27 84 52 25 26 44 56 52 84 5 18 4 34-2 40a9 9 0 1012 13c12-12 14-33 7-58-8-30-29-64-57-91z"/>
  <path d="M347 110a9 9 0 00-13 13 197 197 0 0055 55 9 9 0 0013-13 197 197 0 00-55-55z"/>
  <circle cx="279.1" cy="350.2" r="8.9"/>
  <circle cx="243.3" cy="361.2" r="8.9"/>
  <circle cx="209.9" cy="190.4" r="8.9"/>
  <circle cx="172.6" cy="189.6" r="8.9"/>
  <circle cx="194.8" cy="157.8" r="8.9"/>
</svg>