<svg xmlns="http://www.w3.org/2000/svg" viewBox="0 0 512 512">
  <path d="M505 202c0-78-112-142-249-142S8 124 8 202c0 73 46 137 116 173l-2 10c0 37 60 67 134 67s134-30 134-67l-2-10c70-36 117-100 117-173z" fill="#feda44"/>
  <g fill="#f91">
    <path d="M169 385l1-10C100 339 54 275 54 202c0-74 99-135 225-141l-23-1C119 60 8 124 8 202c0 73 46 137 116 173l-2 10c0 37 60 67 134 67l23-1c-62-6-110-33-110-66z"/>
    <ellipse cx="256" cy="202.1" rx="200.6" ry="101.4"/>
  </g>
  <path d="M93 261c36 26 96 42 163 42s127-16 163-42c11-11 16-24 16-37 0-50-80-91-179-91S77 174 77 224c0 13 5 26 16 37z" fill="#ff5023"/>
  <path d="M153 261a56 56 0 01-15-37c0-45 64-82 148-90l-30-1c-99 0-179 41-179 91 0 13 5 26 16 37 36 26 96 42 163 42l30-1c-54-4-102-19-133-41z" fill="#d80029"/>
  <path d="M401 124c-39-20-90-31-145-31s-106 11-145 31c-41 20-63 48-63 78s22 58 63 78c39 20 90 31 145 31s106-11 145-31c41-20 63-48 63-78s-22-58-63-78zm-283 13c36-19 86-29 138-29s102 10 138 29c36 18 55 41 55 65 0 8-2 16-6 24v-2c0-27-20-53-57-71-35-18-81-27-130-27s-95 9-130 27c-37 18-57 44-57 71v2c-4-8-6-16-6-24 0-24 19-47 55-65zm276 130c-36 19-86 29-138 29a316 316 0 01-158-41c-9-10-14-20-14-31 0-22 18-42 49-58 33-16 76-25 123-25s90 9 123 25c31 16 49 36 49 58 0 11-5 21-14 31l-20 12z"/>
  <g fill="#fff">
    <path d="M475 202c0 13-4 27-13 39l13 9c10-15 15-31 15-48 0-31-19-61-56-85l-8 13c32 20 49 46 49 72zM427 112l-22-11-7 14 21 10 8-13z"/>
  </g>
  <path d="M512 202c0-41-27-79-77-107-48-27-111-43-179-43S125 68 77 95C27 123 0 161 0 202c0 28 7 56 19 81l14 24c20 29 48 54 82 72v6c0 42 62 75 141 75s141-33 141-75v-6c34-18 62-43 82-72 22-32 33-68 33-105zM385 369h-1l-31 14 5 14 24-10c-3 31-59 58-126 58s-123-27-126-58a297 297 0 00203 18l-4-15a290 290 0 01-201-21h-1c-14-8-27-16-39-26 26 14 57 24 91 31l2-15c-70-13-126-44-149-83v-1c12 12 27 24 45 34 48 28 111 43 179 43 65 0 127-14 175-40l-7-13c-46 24-105 38-168 38-65 0-126-15-172-41-44-25-69-59-69-94 0-12 3-24 8-35h24v-15H32c12-16 30-31 52-44 46-26 107-41 172-41s126 15 172 41c44 26 69 59 69 94 0 29-17 57-48 81l9 12c8-7 16-13 22-20-18 38-51 71-95 94z"/>
  <path d="M315 193c-16-8-37-13-59-13-23 0-44 5-60 14l7 13c14-7 33-12 53-12 42 0 70 17 70 32h15c0-13-9-25-26-34zM256 259c-42 0-70-17-70-32h-15c0 14 9 26 26 35 16 8 37 12 59 12 27 0 51-6 67-17l-8-13c-14 10-36 15-59 15z"/>
  <g fill="#fff">
    <path d="M332 166c-11-4-22-6-33-8l-3 15c11 1 22 4 31 7l5-14zM348 172l-6 13c29 12 45 29 45 47h15c0-24-20-46-54-60z"/>
  </g>
</svg>