<svg xmlns="http://www.w3.org/2000/svg" viewBox="0 0 512 512">
  <path d="M397 0H115C88 0 66 22 66 49v414c0 27 22 49 49 49h282c27 0 49-22 49-49V49c0-27-22-49-49-49zM133 85c0-8 7-15 15-15h216c8 0 15 7 15 15v30c0 8-7 15-15 15H148c-8 0-15-7-15-15V85zm51 337c0 8-7 15-15 15h-21c-8 0-15-7-15-15v-14c0-9 7-15 15-15h21c8 0 15 6 15 15v14zm0-89c0 8-7 15-15 15h-21c-8 0-15-7-15-15v-14c0-8 7-15 15-15h21c8 0 15 7 15 15v14zm98 89c0 8-6 15-15 15h-20c-8 0-15-7-15-15v-14c0-9 7-15 15-15h20c9 0 15 6 15 15v14zm0-89c0 8-6 15-15 15h-20c-8 0-15-7-15-15v-14c0-8 7-15 15-15h20c9 0 15 7 15 15v14zm0-89c0 9-6 15-15 15H148c-8 0-15-6-15-15v-14c0-8 7-15 15-15h119c9 0 15 7 15 15v14zm99 178c0 8-7 15-15 15h-20c-9 0-15-7-15-15v-14c0-9 6-15 15-15h20c8 0 15 6 15 15v14zm0-89c0 8-7 15-15 15h-20c-9 0-15-7-15-15v-14c0-8 6-15 15-15h20c8 0 15 7 15 15v14zm0-89c0 9-7 15-15 15h-20c-9 0-15-6-15-15v-14c0-8 6-15 15-15h20c8 0 15 7 15 15v14z"/>
</svg>