<svg aria-hidden="true" data-prefix="fal" data-icon="burger-soda" xmlns="http://www.w3.org/2000/svg" viewBox="0 0 640 512" class="svg-inline--fa fa-burger-soda fa-w-20 fa-3x">
  <path fill="currentColor" d="M640 376a56 56 0 00-18-41 59 59 0 007-78c-35-49-106-81-181-81s-146 32-181 81a59 59 0 007 78 55 55 0 00-4 77 44 44 0 00-14 32 68 68 0 0068 68h248a68 68 0 0068-68 44 44 0 00-14-32 55 55 0 0014-36zM293 276c27-38 86-68 155-68s128 30 155 68c13 18 0 44-23 44H316c-23 0-36-26-23-44zm279 204H324a36 36 0 01-36-36 12 12 0 0112-12h296a12 12 0 0112 12 36 36 0 01-36 36zm12-80H312a24 24 0 010-48h272a24 24 0 010 48zM448 272a16 16 0 10-16-16 16 16 0 0016 16zm80 16a16 16 0 10-16-16 16 16 0 0016 16zm-160 0a16 16 0 10-16-16 16 16 0 0016 16zM96 479L64 160h280a8 8 0 008-8v-16a8 8 0 00-8-8H213l24-96h43a8 8 0 008-8V8a8 8 0 00-8-8h-43a32 32 0 00-32 24l-25 104H8a8 8 0 00-8 8v16a8 8 0 008 8h24v2l32 320a32 32 0 0032 30h155a100 100 0 01-20-32z"/>
</svg>