<svg xmlns="http://www.w3.org/2000/svg" viewBox="0 0 640 512">
  <g class="fa-group">
    <path fill="currentColor" d="M336 128H207l20-80h45a16 16 0 0016-16V16a16 16 0 00-16-16h-51a40 40 0 00-39 30l-25 98H16a16 16 0 00-16 16v32a16 16 0 0016 16h320a16 16 0 0016-16v-32a16 16 0 00-16-16zm-45 96H38l26 258a32 32 0 0032 30h160a32 32 0 0014-3 80 80 0 01-14-45 48 48 0 0117-37 64 64 0 015-91 64 64 0 01-14-18 65 65 0 013-67l24-27z" class="fa-secondary"/>
    <path fill="currentColor" d="M624 448H304a16 16 0 00-16 16 48 48 0 0048 48h256a48 48 0 0048-48 16 16 0 00-16-16zM319 320h290c25 0 40-29 25-51-29-43-94-77-170-77s-141 34-170 77c-15 22 0 51 25 51zm225-80a16 16 0 11-16 16 16 16 0 0116-16zm-80-16a16 16 0 11-16 16 16 16 0 0116-16zm-80 16a16 16 0 11-16 16 16 16 0 0116-16zm-64 176h288a32 32 0 000-64H320a32 32 0 000 64z" class="fa-primary"/>
  </g>
</svg>