<svg viewBox="0 0 512 512">
  <path fill="currentColor" d="M416 32a95 95 0 00-58 20 127 127 0 00-204 0A96 96 0 000 128c0 42 64 224 64 224v128a32 32 0 0032 32h320a32 32 0 0032-32V352s64-182 64-224a96 96 0 00-96-96zm0 448H96v-96h320zm0-128h-44l12-151a8 8 0 00-7-8l-16-2h-1a8 8 0 00-8 8l-12 153h-69V200a8 8 0 00-8-8h-16a8 8 0 00-8 8v152h-67l-12-153a8 8 0 00-8-8h-1l-16 2a8 8 0 00-7 8l12 151H96S32 151 32 128a64 64 0 0164-64 63 63 0 0138 13l26 20 19-26a95 95 0 01154 0l19 26 26-20a63 63 0 0138-13 64 64 0 0164 64c0 23-64 224-64 224z"/>
</svg>