<svg xmlns="http://www.w3.org/2000/svg" viewBox="0 0 512 512">
  <path d="M343 97c-4-13-23-70-92-76-3 0-6 3-5 6 2 20 16 83 96 73l1-3z" fill="#3bbc56"/>
  <path d="M266 27v-4l-15-2c-3 0-6 3-5 6 2 20 16 80 90 74-57-5-68-56-70-74z" fill="#30aa44"/>
  <path d="M349 125c9-28 27-64 58-89 3-3 3-8 0-11l-21-15c-4-4-11-3-14 2-10 18-31 62-34 113h11z" fill="#93603e"/>
  <path d="M387 18l5-4-6-4c-4-4-11-3-14 2-10 18-31 62-34 113h11l6-15c7-42 23-77 32-92z" fill="#7f573c"/>
  <path d="M492 379v-10c-2-33-16-141-96-226a72 72 0 00-101 0 385 385 0 00-96 236c0 69 65 125 146 125 82 0 147-56 147-125z" fill="#30aa44"/>
  <path d="M335 369c-2-28-12-114-68-193a395 395 0 00-68 203c0 45 27 84 68 106 41-22 68-61 68-106v-10z" fill="#269e35"/>
  <path d="M315 379v-10c-2-33-16-141-95-226a72 72 0 00-102 0 385 385 0 00-96 236c0 69 66 125 147 125s146-56 146-125z" fill="#bad362"/>
  <path d="M42 379v-10c3-33 16-141 96-226 10-12 25-19 41-21-22-3-46 4-61 21a385 385 0 00-96 236c0 69 66 125 147 125h10c-77-4-137-59-137-125z" fill="#9ab748"/>
  <circle cx="168.7" cy="369.3" r="75" fill="#93603e"/>
  <path d="M114 369c0-38 28-69 65-74l-10-1a75 75 0 1010 150c-37-5-65-37-65-75z" fill="#7f573c"/>
  <path d="M85 369a83 83 0 00163 20 7 7 0 10-15-4c-7 31-34 52-66 52a68 68 0 1166-83 7 7 0 0015-4c-9-37-42-63-81-63-45 0-82 37-82 82z"/>
  <path d="M288 137l-32 41c-9-14-20-27-32-41a80 80 0 00-113 0c-82 88-95 200-97 232C3 481 150 552 256 488c20 12 44 20 68 23a8 8 0 002-15c-20-2-39-8-56-18 29-22 49-54 51-91 3-38-13-124-56-195 10-16 22-31 34-44 23-25 68-25 91 0 56 60 87 141 93 222 6 64-49 120-124 126a7 7 0 002 15c37-3 72-18 98-42 26-25 40-57 40-90l-1-10c-2-32-15-144-97-232a74 74 0 00-40-21c8-23 24-52 50-74 7-6 7-17 0-22L391 4c-9-7-21-4-26 5-7 13-17 35-25 63-12-23-38-54-89-58-8-1-14 6-13 14 1 13 8 44 33 64 18 14 40 18 62 17v6c-18 2-33 10-45 22zm18 233c7 69-58 127-139 127-80 0-140-56-139-118 1-44 19-151 94-231 23-25 68-25 91 0 56 60 86 141 93 222zm72-354l3-1 20 16c-22 18-40 44-52 75 4-32 15-64 29-90zm-98 64a81 81 0 01-27-51c54 5 74 45 81 65-22 1-40-3-54-14z"/>
  <path d="M199 349a7 7 0 00-2-4 8 8 0 00-12 2 7 7 0 000 6 7 7 0 002 2 8 8 0 0012-2 8 8 0 000-4zM199 387a7 7 0 00-2-3 8 8 0 00-12 3 7 7 0 000 5 7 7 0 002 2 8 8 0 0012-2 7 7 0 000-5zM220 365l-1-1a8 8 0 00-12 3 7 7 0 001 7l1 1a8 8 0 0011-1 7 7 0 001-6 7 7 0 00-1-3z"/>
</svg>