<svg height="512" width="512" xmlns="http://www.w3.org/2000/svg">
  <path d="M242 73c-49 9-83-20-118 28-40 58 32 164 151 135 113-26 138-141 78-181-41-27-68 11-111 18z" fill="#ffeca1"/>
  <path d="M259 161l-1 1c-2 2-5 1-7-1a72 72 0 00-45-22c-33-5-57 14-83 37 21 43 78 78 152 60 46-11 78-36 95-65-44-14-77-38-111-10z" fill="#ffdf85"/>
  <path d="M242 73c14-2 26-7 37-13 8 17 11 42-32 49-39 7-46-15-45-35 12 1 26 2 40-1z" fill="#cc624e"/>
  <path d="M281 65c-1 11-10 22-36 26-26 5-38-3-43-14-1 19 7 39 45 32 39-7 40-28 34-44z" fill="#bc574a"/>
  <path d="M376 191c-50-5-75-43-121-6-55 44-15 166 107 172 116 6 172-97 125-152-31-38-67-9-111-14z" fill="#ffeca1"/>
  <path d="M503 242c-4 36-32 73-79 89-2-28-16-54-41-71-55-36-79 8-130 24-12-17-20-35-21-54-6 53 39 122 130 127 93 5 148-61 141-115z" fill="#ffdf85"/>
  <path d="M376 191c14 2 27 0 39-2 3 18-1 43-44 38-40-5-41-27-33-46 11 4 23 9 38 10z" fill="#cc624e"/>
  <path d="M373 209c-25-3-35-13-36-25-6 18-4 39 34 43 41 4 46-17 45-35-5 11-16 20-43 17z" fill="#bc574a"/>
  <path d="M108 217c43-25 50-69 107-54 68 17 81 145-28 200C83 415-9 344 11 274c13-46 58-35 97-57z" fill="#ffeca1"/>
  <path d="M267 235c-1 16-6 33-15 49-53 10-94-14-125 41-7 12-10 25-11 38-58 0-102-36-107-78-7 50 42 97 108 96 22 0 46-6 70-18 61-31 84-84 80-128z" fill="#ffdf85"/>
  <path d="M108 217c-13 7-25 11-38 14 5 17 19 38 56 17 35-21 26-42 12-56-8 9-18 18-30 25z" fill="#cc624e"/>
  <path d="M141 194c3 12-1 25-24 39-23 13-37 10-45 2 6 16 20 33 54 12 33-19 27-38 15-53z" fill="#bc574a"/>
  <path d="M255 301c49-12 68-53 119-23 60 36 38 163-82 185-115 22-184-72-145-133 26-42 66-18 108-29z" fill="#ffeca1"/>
  <path d="M292 445c-88 17-149-34-156-87-7 58 58 124 156 105 82-15 119-80 114-130-4 46-41 98-114 112z" fill="#ffdf85"/>
  <path d="M255 301c-13 3-26 3-39 3 0 18 7 42 49 32 39-10 37-33 27-50-11 6-22 11-37 15z" fill="#cc624e"/>
  <path d="M294 289c0 12-8 24-33 30-26 7-39 0-45-11 1 18 10 37 49 28 37-10 37-30 29-47z" fill="#bc574a"/>
  <path d="M494 200c-24-28-50-24-76-19a150 150 0 01-47 2c7-10 13-21 16-32a8 8 0 00-14-5c-4 12-10 23-18 33l-20-7c-25-10-49-20-82 6a70 70 0 00-36-23c-42-11-61 8-80 28l-1 1c-18-27-21-57-6-79 20-28 39-26 65-24 0 12 4 21 11 27 8 8 20 10 31 9l12-1c19-3 33-11 39-22 4-9 4-19 1-30 22-11 38-18 60-3 18 12 29 33 29 58a8 8 0 1015 0c0-30-13-55-36-71-30-20-54-8-78 3-12 6-24 12-38 15-16 2-30 1-44 0-27-2-54-5-79 31a72 72 0 00-12 51c2 16 9 32 19 46-6 6-13 12-22 16-12 8-25 11-38 14-26 7-52 14-62 48-4 16-4 33 2 48 1 4 6 6 10 5 3-2 5-6 4-10-5-12-5-26-1-39 7-25 24-30 47-36 5 11 12 18 20 22 4 2 8 2 13 2 9 0 20-3 32-10 17-10 26-21 28-34 1-9-2-18-10-28 19-18 32-31 65-22 17 4 31 17 40 36 11 26 9 60-6 89-11 2-23 2-35 2-26-1-53-2-72 29-9 14-13 30-12 47-38 4-74-9-95-34a8 8 0 10-12 10 123 123 0 00110 39c2 11 7 21 14 31 14 20 34 36 58 45 17 7 36 10 56 10a184 184 0 0089-23 8 8 0 10-7-13c-15 9-32 15-51 18-29 6-57 4-81-6-22-8-40-22-52-39-17-26-19-54-4-77 14-23 32-23 56-22 1 11 5 21 13 26 6 5 14 8 24 8l21-3c19-5 31-13 36-24 4-9 3-19-1-30 22-13 39-21 68-4 16 9 26 26 28 47 4 30-9 64-34 88a8 8 0 0010 11c21-20 34-45 38-71 46-11 81-41 95-79 10-30 5-59-13-81zM243 81c12-3 22-7 32-11 2 5 2 12-1 17-3 7-13 12-28 14-14 3-25 1-30-4-4-3-6-8-6-15 10 1 21 1 33-1zM143 218c-1 8-8 16-21 23-13 8-24 10-31 7-5-2-9-7-11-12a141 141 0 0058-33c4 5 5 11 5 15zm266-21c0 6-2 12-6 16-5 6-16 8-31 6-14-1-24-5-28-12-2-4-3-10-1-16l32 8c12 1 23 0 34-2zM289 312c-3 8-12 13-26 16-14 4-25 4-32-1-4-4-6-10-7-15a141 141 0 0065-16c2 7 2 12 0 16zm203-36c-11 32-40 58-78 68l-1-14c-3-26-15-46-35-58-37-22-60-9-85 4-8 5-17 10-27 14a119 119 0 00-5-100c26-20 44-14 67-5-3 12-2 22 3 30 7 11 20 17 39 19l11 1c15 0 26-4 33-11s10-17 10-29c24-4 41-6 58 14 15 18 19 42 10 67z"/>
</svg>