<svg xmlns="http://www.w3.org/2000/svg" viewBox="0 0 470 470" width="512" height="512">
  <path d="M355 217h-30v70l60-30v-10c0-16-14-30-30-30z" fill="#fdfa7b"/>
  <path d="M355 247v40l-100-30v-10c0-16 13-30 30-30h40c16 0 30 14 30 30z" fill="#fff"/>
  <path d="M355 257h30c-1 43-5 61-10 86-4 19-9 41-12 74h-30l-18-74 40-86z" fill="#fd7555"/>
  <path d="M255 257h100c-1 43-5 61-10 86-4 19-9 41-12 74h-56c-3-33-8-55-12-74-5-25-9-43-10-86zM176 23h-26l-10 40 36-10z" fill="#fda162"/>
  <path fill="#fdfa7b" d="M124 23v30l26 10V23z"/>
  <path d="M215 209c0-26-16-49-39-59l-11 59 20 223h30V313l-15-52 15-52z" fill="#975d50"/>
  <path d="M176 150V53h-52v97a65 65 0 00-39 59l30 62-30 62v84l100 15V209c0-26-4-49-9-59z" fill="#b1786b"/>
  <path fill="#fda162" d="M215 209v124h-30l-22-62 22-62z"/>
  <path fill="#fdfa7b" d="M85 209h100v124H85z"/>
  <path d="M403 417l-30 30h30c16 0 30-13 30-30h-30z" fill="#5ca8d3"/>
  <path d="M403 417H38c0 17 13 30 30 30h305c16 0 30-13 30-30z" fill="#66c6fe"/>
  <path d="M463 410h-92c3-29 7-48 11-65l1-6c5-22 9-41 9-82v-10c0-21-16-37-37-37h-70c-21 0-38 16-38 37 0 48 5 68 10 92a2590 2590 0 0112 71h-46V209c0-27-16-52-39-64V23c0-4-4-8-8-8h-52c-4 0-7 4-7 8v122a73 73 0 00-39 64v178a7 7 0 1015 0v-46h115v69H8a7 7 0 100 15h23c3 17 18 30 37 30h335c18 0 33-13 36-30h24a7 7 0 100-15zM169 30v15h-37V30h37zm-42 126c3-1 5-3 5-6V60h37v90c0 3 1 5 4 6 19 9 31 26 34 46H93c3-20 15-37 34-46zM93 326V217h115v109H93zm180 16l-2-7c-5-23-9-42-9-88 0-12 11-22 23-22h70c12 0 22 10 22 22v3h-92a7 7 0 100 15h92a332 332 0 01-10 77c-4 17-8 38-11 68h-72c-3-30-8-51-11-68zm130 98H68c-10 0-19-7-22-15h378c-3 8-12 15-21 15z"/>
</svg>