<svg xmlns="http://www.w3.org/2000/svg" viewBox="0 0 512 512">
  <path d="M332 153c-21-3-44-4-69-4h-41c-23 1-45 4-64 7l-38 9C42 188 7 233 8 283c2 74 171 81 248 81s246-7 248-81c1-54-39-100-127-122l-45-8z" fill="#ffb969"/>
  <g fill="#ffa561">
    <path d="M158 272c11 0 19-8 19-19 0-37-9-71-19-97l-38 9c9 23 19 55 19 88 0 11 9 19 19 19zM267 272c10 0 19-8 19-19 0-41-12-79-23-104a738 738 0 00-41 0c10 21 26 62 26 104 0 11 8 19 19 19zM376 272c10 0 19-8 19-19 0-34-9-67-18-92l-45-8c10 22 24 60 24 100 0 11 9 19 20 19z"/>
  </g>
  <path d="M63 283c-1-50 34-95 112-118l38-9c19-3 40-6 64-7h9-64c-23 1-45 4-64 7l-38 9C42 188 7 233 8 283c2 74 171 81 248 81l27-1c-83-2-219-14-220-80z" opacity=".1"/>
  <path d="M53 207a8 8 0 10-10-13c-29 24-44 55-43 89 1 37 35 62 102 76 40 8 92 13 154 13 61 0 112-4 152-13a8 8 0 10-3-16c-39 8-89 12-149 12-61 0-111-4-151-12-58-12-88-32-89-60 0-29 13-55 37-76z"/>
  <path d="M264 140a750 750 0 00-43 1 520 520 0 00-103 16c-17 5-32 11-46 18a8 8 0 008 15c11-6 22-11 35-15 8 21 16 49 16 78a27 27 0 0055 0c0-34-9-67-17-90 15-3 31-4 48-5 9 21 23 57 23 95a27 27 0 0054 0c0-36-9-71-18-96 17 0 35 2 51 4 8 20 21 55 21 92a27 27 0 0055 0c0-25-5-52-13-80 34 10 60 24 78 43 19 19 28 41 28 67-1 21-20 39-56 51a8 8 0 005 16c44-15 66-38 67-67s-10-57-32-79c-23-23-57-40-101-51a418 418 0 00-115-13zm-95 113a11 11 0 01-22 0c0-31-8-60-16-82l22-5c13 38 16 68 16 87zm202-85c10 30 15 59 15 85a11 11 0 01-21 0c0-33-10-65-19-89l25 4zm-93 85a11 11 0 01-22 0c0-37-12-73-22-96h24c9 24 20 59 20 96z"/>
</svg>