<svg height="512" width="512" xmlns="http://www.w3.org/2000/svg">
  <path d="M361 243c0 107-79 194-176 194S8 350 8 243 87 26 185 26s176 110 176 217z" fill="#cd8e50"/>
  <path d="M111 245v54c0 52 19 99 50 136 128 19 239-116 187-268l-27-1c-116 0-210 35-210 79z" fill="#ba8050"/>
  <path d="M212 44c23 0 46 7 66 18-27-22-59-36-93-36C87 26 8 136 8 243c0 76 40 141 97 173-20-17-37-39-50-64-8-18-9-38-2-56 2-6 4-13 4-19 0-10-7-19-10-28-4-9-11-29-3-52 24-83 90-153 168-153z" fill="#dda450"/>
  <path d="M321 486c-101 0-183-82-183-183v-47h366v47c0 101-82 183-183 183z" fill="#cd8e50"/>
  <path d="M476 256v36a183 183 0 01-235 176 183 183 0 00263-165v-47z" fill="#ba8050"/>
  <path d="M504 256c0-37-82-68-183-68s-183 31-183 68c0 31 56 58 132 66 11 1 21 7 27 16l12 16c6 9 19 9 25 0l13-18c6-7 18-9 25-3l21 17c8 6 19 5 25-3l27-35c4-5 9-8 14-11 28-12 45-28 45-45z" fill="#e6e9df"/>
  <ellipse cx="321.1" cy="254.5" fill="#fff" rx="124.7" ry="35.6"/>
  <path d="M53 213c-1 4-1 8 2 11 2 3 6 3 9 2 7-3 11-11 8-18-1-5-7-9-12-9-7 1-7 8-7 14z" fill="#dda450"/>
  <g fill="#231f20">
    <path d="M324 441c-53 0-99-29-124-71a8 8 0 00-13 8c27 47 78 79 137 79a8 8 0 000-16z"/>
    <path d="M512 256c0-22-21-41-59-56-26-9-57-16-92-18-22-84-90-164-176-164C80 18 0 134 0 243c0 116 89 207 193 202a190 190 0 00319-142zm-56 38c-7 3-13 7-17 13l-27 35c-3 4-9 5-14 2l-21-17c-11-9-27-7-36 5l-13 17c-4 4-10 4-13 0l-11-16c-8-11-20-18-33-19-29-3-65-10-92-23-13-7-33-19-33-35 0-14 18-29 49-41 68-25 182-26 253 0 60 23 65 54 8 79zM16 243c0-99 73-209 169-209 77 0 138 72 159 146-49-2-106 3-152 19-27 10-62 29-62 57 2 33-7 72 16 124 8 18 19 34 31 49-89-4-161-86-161-186zm480 60a175 175 0 01-350 5v-20c29 26 85 38 123 42 9 1 17 6 22 13l11 16c10 12 29 13 38 0l14-18c3-4 9-5 13-1l21 16c11 9 28 7 37-4l18-24c7-8 9-15 20-20s24-11 33-20v15z"/>
    <path d="M231 222c-28 8-43 19-43 33s15 24 43 32c75 22 223 11 223-32 0-14-14-25-42-33a8 8 0 00-5 15c23 6 31 14 31 18s-8 11-31 17c-47 13-125 13-172 0-22-6-31-14-31-17s9-12 31-18c37-11 89-12 128-8a8 8 0 102-16c-41-4-95-3-134 9zM136 89a8 8 0 0012-11 8 8 0 00-12 11zM185 81a8 8 0 100-16 8 8 0 000 16zM173 116a8 8 0 10-3-15 8 8 0 003 15zM191 350a8 8 0 10-13-9 8 8 0 0013 9z"/>
  </g>
</svg>