<svg xmlns="http://www.w3.org/2000/svg" viewBox="0 0 512 512">
  <path d="M491 21c-32-32-133 13-207 64-24 16-46 34-66 53l-67 222 220-64c19-19 38-42 54-65 52-75 99-178 66-210z" fill="#fee377"/>
  <path d="M371 296c-60-18-144-6-220 64 59-64 86-143 75-196-7-32-23-61-44-82 13 19-1 75-79 160-58 64-70 126-58 168l-29 30c-8 7-8 20 0 28l28 28c8 8 21 8 28 0l29-29c45 12 108-2 164-54 87-82 145-96 164-83-14-15-34-27-58-34z" fill="#48bd80"/>
  <path d="M256 355a10 10 0 1014 14 10 10 0 00-14-14zM226 380c-45 39-88 45-111 39a10 10 0 10-6 19c7 2 15 3 24 3 11 0 23-2 35-5 25-8 49-22 71-41a10 10 0 00-13-15z"/>
  <path d="M400 12a575 575 0 00-179 110c-8-18-19-34-32-47a10 10 0 00-15 13c3 5 4 21-7 45-8 21-28 55-71 102S20 346 34 407L9 432a30 30 0 000 43l28 28c12 12 31 12 42 0l26-25c58 13 122-17 166-58 49-46 85-66 106-75 25-11 41-11 46-7a10 10 0 0013-15c-13-13-29-23-47-31a578 578 0 00110-179c18-48 17-81-1-99-17-18-50-19-98-2zM65 489c-4 4-10 4-14 0l-28-28c-4-4-4-10 0-14l18-19c4 10 10 18 16 25 5 5 15 13 26 18l-18 18zm304-163c-33 15-71 42-111 79-69 64-150 70-186 35-8-8-14-19-17-32-14-47 7-106 56-159 35-39 61-77 75-108 4-10 7-19 8-27 11 16 18 34 22 52 5 25 1 56-11 88-12 35-34 70-61 100a10 10 0 0014 14c64-59 143-82 210-62l28 11-27 9zm111-220a557 557 0 01-112 179c-56-15-117-2-169 27 32-51 46-107 36-150l-5-21A554 554 0 01407 31c38-13 66-15 77-3 12 11 10 39-4 78z"/>
  <path d="M285 185c4-3 4-10 0-14l-14-14a10 10 0 00-15 14l15 14c3 4 10 4 14 0zM341 228a10 10 0 00-14 14l14 14a10 10 0 0014-14l-14-14zM348 193c4-4 4-11 0-15l-14-14a10 10 0 00-14 14l14 15c4 3 10 3 14 0zM278 221a10 10 0 00-15 14l15 14a10 10 0 0014-14l-14-14zM405 136c4-4 4-10 0-14l-14-14a10 10 0 00-14 14l14 14c4 4 10 4 14 0zM433 65a10 10 0 00-14 14l14 15a10 10 0 0014-15l-14-14zM341 129c4-4 4-10 0-14l-14-14a10 10 0 00-14 14l14 14c4 4 10 4 14 0zM398 171a10 10 0 00-14 14l14 15a10 10 0 0014-15l-14-14z"/>
</svg>