<svg height="512" width="512" xmlns="http://www.w3.org/2000/svg">
  <path d="M330 504H182c-21 0-37-17-37-37h222c0 20-16 37-37 37z" fill="#e0e0e0"/>
  <path d="M349 467c0 20-16 37-37 37h18c21 0 37-17 37-37z" fill="#ccc"/>
  <path d="M437 109H75a16 16 0 110-31h362a16 16 0 110 31z" fill="#e0e0e0"/>
  <path d="M437 78h-18a16 16 0 110 31h18a16 16 0 100-31z" fill="#ccc"/>
  <path d="M373 467H139c-10 0-18-8-19-18L85 109h342l-35 340c-1 10-9 18-19 18z" fill="#73cdff"/>
  <path d="M409 109l-35 340c-1 10-9 18-19 18h18c10 0 18-8 19-18l35-340z" fill="#40c5ff"/>
  <path d="M415 223h-94c-13-31-38-51-65-51s-52 20-65 51H97l12 122h82c13 31 38 51 65 51s52-20 65-51h82z" fill="#ffeca1"/>
  <path d="M397 223l-12 122h18l12-122z" fill="#ffdf85"/>
  <path d="M438 70C246 51 106 1 104 0a8 8 0 00-5 15c1 0 91 32 224 55H75a23 23 0 000 46h3l34 334c1 13 12 24 26 25 3 21 22 37 44 37h148c22 0 41-16 44-37 14-1 25-12 26-25l34-334h3a23 23 0 001-46zm-53 378c0 7-6 12-12 12H224a8 8 0 100 15h135c-3 12-15 22-29 22H182c-14 0-26-10-29-22h41a8 8 0 000-15h-55c-6 0-12-5-12-12l-10-95h69c16 32 42 51 70 51 10 0 20-3 30-8a8 8 0 10-7-13c-7 4-15 6-23 6-24 0-46-18-59-47-1-3-4-4-7-4h-74l-11-108h85c3 0 6-2 7-4 13-30 35-47 59-47s45 17 59 47c1 2 4 4 7 4h85l-11 108h-74c-3 0-6 1-7 4-4 9-9 17-15 24-2 3-2 7 0 10 3 3 9 3 11 0 6-7 11-15 15-23h69zm52-347H211a8 8 0 000 15h208l-10 99h-83c-16-32-42-51-70-51s-54 19-70 51h-83l-10-99h88a8 8 0 000-15H75a8 8 0 010-16h362a8 8 0 010 16z"/>
</svg>