<svg xmlns="http://www.w3.org/2000/svg" viewBox="0 0 470 470" width="512" height="512">
  <path d="M147 309H97l-17-17a25 25 0 10-35 35l11 12 91 20v-50z" fill="#fff"/>
  <path d="M245 191c-65 0-118 53-118 118v30l188 20V191h-70z" fill="#fd7555"/>
  <path d="M315 191l-30 168 144-20c2-10 4-20 4-30 0-65-54-118-118-118z" fill="#fdfa7b"/>
  <path d="M197 309l3 30 114 20V191c-64 0-117 53-117 118z" fill="#fefdca"/>
  <path d="M315 221v138l82-20c4-9 6-19 6-30 0-49-40-88-88-88z" fill="#fe9f88"/>
  <path d="M373 309c0 11-2 21-4 30l-55 20-82-20c-4-9-6-19-6-30 0-49 40-88 88-88 32 0 59 39 59 88z" fill="#fec8bb"/>
  <path d="M315 279a30 30 0 100 60 30 30 0 000-60z" fill="#fff"/>
  <path d="M408 354l-52 65h30c16 0 34-13 39-28l13-37h-30z" fill="#fdce6e"/>
  <path d="M33 354l12 37c5 15 23 28 39 28h272c16 0 34-13 39-28l13-37H33z" fill="#fdfa7b"/>
  <path d="M448 339H23a15 15 0 000 30h425a15 15 0 000-30z" fill="#fefdca"/>
  <path d="M448 332h-10a125 125 0 00-123-148h-70c-66 0-121 52-125 118h-20l-15-15a32 32 0 00-45 0 32 32 0 00-2 44H23a23 23 0 000 46h9l6 16c6 19 26 34 46 34h302c20 0 40-15 46-34l6-16h10a23 23 0 000-45zm-23-23l-2 23h-16a95 95 0 00-148-101 7 7 0 109 12 81 81 0 01124 88H237a80 80 0 0112-68 7 7 0 10-13-9 95 95 0 00-14 78h-16a110 110 0 01109-133c60 0 110 49 110 110zM245 199h10a126 126 0 00-64 133h-56v-23c0-61 49-110 110-110zM50 322a17 17 0 010-25 17 17 0 0125 0l17 17c1 2 3 3 5 3h23v15H60l-10-10zm398 40h-15H98a7 7 0 100 15h324l-4 11c-4 13-19 24-32 24H84c-13 0-28-11-32-24l-4-11h20a7 7 0 100-15H37 22a8 8 0 011-15h425a8 8 0 010 15z"/>
  <path d="M285 317c4 0 7-4 7-8a23 23 0 0145 0 7 7 0 1015 0 38 38 0 00-75 0c0 4 3 8 8 8z"/>
  <path d="M210 134c0-12 3-18 7-24 4-8 8-16 8-31 0-16-4-24-8-32a7 7 0 10-14 8c4 6 7 12 7 24 0 11-3 17-7 23-4 8-8 16-8 32 0 15 4 23 8 31a7 7 0 1014-8c-4-6-7-12-7-23zM260 134c0-12 3-18 7-24 4-8 8-16 8-31 0-16-4-24-8-32a7 7 0 10-14 8c4 6 7 12 7 24 0 11-3 17-7 23-4 8-8 16-8 32 0 15 4 23 8 31a7 7 0 1014-8c-4-6-7-12-7-23z" fill="#fec8bb"/>
</svg>