<svg height="512" width="512" xmlns="http://www.w3.org/2000/svg">
  <path d="M405 124c-16 0-30 4-44 10l-1 9c0 12 2 24 5 36a60 60 0 1169 97c7 10 14 21 20 34a99 99 0 00-49-186z" fill="#c6c6c6"/>
  <path d="M376 45H257V27c0-11 8-19 18-19h82c10 0 19 8 19 19v18z" fill="#cc624e"/>
  <path d="M357 8h-24c10 0 19 8 19 19v18h24V27c0-11-9-19-19-19z" fill="#bc574a"/>
  <path d="M243 504c-11 0-22-5-29-13-27-31-49-69-49-111 0-62 34-107 64-134 29-27 46-64 46-103 0-7-2-13-7-18l-17-20c-9-10-14-22-14-35V55c0-5 5-10 10-10h141c5 0 10 5 10 10v15c0 13-5 25-14 35l-17 20c-5 5-7 11-7 18 0 39 17 76 46 103 30 27 64 72 64 134 0 42-22 80-49 111-7 8-18 13-29 13z" fill="#e0e0e0"/>
  <path d="M453 259c-5 7-11 13-19 17 7 10 14 21 20 34 8-5 16-11 23-18-7-12-15-24-24-33zM387 134l1-8c-9 1-18 4-27 8l-1 9c0 12 2 24 5 36 7-6 16-11 26-14-3-10-4-20-4-31z" fill="#bababa"/>
  <path d="M406 246c-29-27-46-64-46-103 0-7 2-13 7-18l17-20c9-10 14-22 14-35V55c0-5-5-10-10-10h-27c5 0 10 5 10 10v15c0 13-5 25-14 35l-17 20c-5 5-7 11-7 18 0 39 17 76 46 103 30 27 64 72 64 134 0 42-22 80-49 111-7 8-18 13-29 13h27c11 0 22-5 29-13 27-31 49-69 49-111 0-62-34-107-64-134z" fill="#ccc"/>
  <path d="M406 246c-7-6-13-13-18-20H247c-5 7-11 14-18 20-30 27-64 72-64 134 0 42 22 80 49 111 7 8 18 13 29 13h149c11 0 22-5 29-13 27-31 49-69 49-111 0-62-34-107-64-134z" fill="#ffaa5c"/>
  <path d="M406 246c-7-6-13-13-18-20h-27c5 7 11 14 18 20 30 27 64 72 64 134 0 42-22 80-49 111-7 8-18 13-29 13h27c11 0 22-5 29-13 27-31 49-69 49-111 0-62-34-107-64-134z" fill="#ff9838"/>
  <ellipse cx="137" cy="441.4" fill="#348021" rx="46.3" ry="62.6"/>
  <ellipse cx="59" cy="443.7" fill="#348021" rx="62.6" ry="46.3" transform="rotate(-63 59 444)"/>
  <path d="M87 388c-2-2-5-3-8-3 12 14 14 38 0 66-16 32-40 44-61 38 3 4 8 8 13 11 23 11 51 0 69-36 18-35 10-65-13-76zM137 379l-14 2c19 7 33 28 33 60 0 33-14 54-33 61l14 2c25 0 46-23 46-63s-21-62-46-62z" fill="#2e701b"/>
  <path d="M55 342c-21-21-17-59-17-59s39-5 60 16 17 60 17 60-39 4-60-17z" fill="#98db7c"/>
  <path d="M71 325a68 68 0 01-16-43l-17 1s-4 38 17 59 60 17 60 17v-17c-13-1-31-4-44-17z" fill="#82d361"/>
  <path d="M49 487c4 0 8-1 10-5 4-7-1-14-10-19-6-3-17-5-21 3-3 6 1 14 10 19 4 2 8 2 11 2zM137 463c-11 0-18 5-18 12s7 12 18 12 17-5 17-12-7-12-17-12z"/>
  <path d="M512 224a107 107 0 00-130-105l8-9c10-11 15-26 15-40V54c0-9-7-17-17-17h-5V26c0-14-11-26-26-26h-82c-14 0-26 12-26 26v11h-2c-9 0-17 8-17 17v16c0 14 5 29 15 40l18 20c3 3 5 8 5 13 0 4 3 7 7 7s8-3 8-7c0-9-3-17-9-23l-18-20c-7-9-11-19-11-30V54l2-2h141l2 2v16c0 11-4 21-11 30l-18 20c-5 6-8 14-8 23 0 27 7 53 21 76H261c8-14 14-28 18-44a8 8 0 00-15-3c-6 26-20 50-40 68-30 27-65 73-66 136l-14-4c-1-12 1-39 17-61l4-5a8 8 0 00-12-9l-4 5-28 36c-1-14-6-32-18-44-23-24-64-19-66-19-4 1-6 3-7 7 0 1-4 42 19 66 14 14 35 18 50 19l-11 13c-23-10-48-2-67 23a8 8 0 1012 9c14-19 34-26 50-17 21 10 25 37 10 66-8 18-20 30-33 34-9 3-18 2-26-2-18-9-24-31-14-57a8 8 0 10-14-5c-13 33-4 63 21 76 12 6 25 7 37 2 12-3 22-11 30-21 10 15 25 24 43 24 15 0 29-7 38-19 6-7 10-15 12-24l21 27c9 10 22 16 35 16h149c14 0 26-6 35-16 25-28 40-56 47-85a8 8 0 10-15-3c-6 26-20 52-43 78-6 7-15 11-24 11H243c-9 0-18-4-24-11-11-13-21-27-28-41l-1-11a78 78 0 00-17-46v-8c0-60 33-103 61-129l17-17h134l16 17c28 26 62 69 62 129a8 8 0 1015 0c0-25-6-48-14-67 30-20 48-54 48-89zM264 26c0-6 5-11 11-11h82c6 0 11 5 11 11v11H264zM130 351l-1 21c-9 2-17 6-24 11zm-70-14c-14-13-15-36-15-47 11 0 34 1 47 15 14 13 15 36 15 47-11 0-34-1-47-15zm116 105c0 33-16 55-39 55-15 0-26-9-33-23l3-6c9-18 12-37 9-52-1-6-3-11-6-16 7-9 16-13 27-13 23 0 39 22 39 55zm235-202c-18-16-30-36-37-58 9-7 20-11 31-11a53 53 0 0131 95c-8-10-17-18-25-26zm47 59l-13-21a68 68 0 00-75-112 130 130 0 01-2-27c12-5 24-7 37-7a92 92 0 0153 167z"/>
</svg>