<svg xmlns="http://www.w3.org/2000/svg" viewBox="0 0 480.2 480.2">
  <path d="M176 72v384c0 9 7 16 16 16h208c9 0 16-7 16-16V72H176z" fill="#e9e4e3"/>
  <path d="M176 8a112 112 0 00-79 191l79-79h112C288 58 238 8 176 8z" fill="#ffdb8b"/>
  <g fill="#ffc261">
    <path d="M176 120h112c0-16-4-33-11-48H176v48z"/>
    <path d="M176 40a80 80 0 00-56 137l56-57h80c0-44-36-80-80-80z"/>
  </g>
  <path d="M176 120h80c0-17-5-34-16-48h-64v48z" fill="#f3b05f"/>
  <path d="M416 152H176v256c0 18 15 32 32 32h176c18 0 32-14 32-32V152z" fill="#ffc261"/>
  <path d="M97 207c2 0 4 0 6-2l22-23 43-42v316c0 13 11 24 24 24h208c13 0 24-11 24-24V72c0-4-3-8-8-8H282A120 120 0 1091 205c2 2 4 2 6 2zm183-95h-16c-1-11-4-22-9-32h17c4 10 7 21 8 32zm-32 0h-64V80h52c6 10 10 21 12 32zm-72-48c-4 0-8 4-8 8v45l-48 48A72 72 0 01221 64h-45zm232 344c0 13-11 24-24 24H208c-13 0-24-11-24-24V160h224v248zm-8 56H192c-4 0-8-3-8-8v-16c7 5 16 8 24 8h176c9 0 17-3 24-8v16c0 5-3 8-8 8zm8-384v64H184v-16h104c5 0 8-3 8-8 0-13-2-27-7-40h119zM176 16c36 0 69 18 88 48h-20a88 88 0 10-135 113l-12 11a104 104 0 0179-172z"/>
  <path d="M384 376c5 0 8-3 8-8v-56a8 8 0 00-16 0v56c0 5 4 8 8 8zM384 416c5 0 8-3 8-8v-8a8 8 0 00-16 0v8c0 5 4 8 8 8z"/>
</svg>