<svg height="512" width="512" xmlns="http://www.w3.org/2000/svg">
  <path d="M389 188c80 22 128 99 109 173s-101 117-181 96c-17-5-32-12-46-21l-65-39-27-13c-59-22-93-82-77-140a119 119 0 01149-80c36 10 72 16 109 19l29 5z" fill="#ffcd69"/>
  <path d="M288 312c0 83-62 150-139 150S10 395 10 312c0-17 3-34 8-49l21-73c3-10 4-20 5-30 6-62 56-110 116-110a119 119 0 01115 123c0 37 4 74 10 110 2 10 3 19 3 29z" fill="#ffda8f"/>
  <path d="M499 269c-12-29-35-55-64-72a10 10 0 00-10 17c52 32 78 90 63 145-9 33-31 60-63 77s-69 21-105 11a150 150 0 01-44-19l-16-10a166 166 0 0035-136c-6-34-9-67-10-99a613 613 0 0059 9 10 10 0 001-20c-20-2-41-6-60-10-5-68-59-122-125-122-32 0-62 12-85 34-23 23-38 53-41 85 0 9-2 19-5 28L8 260c-5 17-8 34-8 52 0 89 67 160 149 160 37 0 71-15 97-39l20 12a170 170 0 00168 9 141 141 0 0065-184zM149 452c-71 0-129-63-129-140a150 150 0 017-46l21-73 6-32c6-58 51-101 106-101 58 0 105 51 105 113 0 0 0-1 0 0 0 35 3 74 10 112l3 27c0 77-58 140-129 140z"/>
  <path d="M338 383c-5 3-7 9-4 14l3 6a10 10 0 1018-10l-4-6c-3-5-9-6-13-4zM406 286l7 2a10 10 0 0012-7c1-5-2-11-7-12l-7-2a10 10 0 10-5 19zM418 348c-5 3-6 9-4 14l3 4a10 10 0 1017-10l-2-4c-3-5-9-7-14-4zM341 291l-5 3a10 10 0 0010 18l5-3c5-3 7-9 4-14s-9-6-14-4zM198 131a10 10 0 00-14 14l11 10c2 2 4 3 7 3s5-1 7-3c4-4 4-10 0-14zM112 169l-11 12a10 10 0 0014 14l11-11a10 10 0 00-14-15zM96 281c0-6-4-10-10-10H73a10 10 0 000 20h13c6 0 10-5 10-10zM203 261l-10-9a10 10 0 00-13 15l10 9a10 10 0 0014-1c4-4 3-10-1-14zM104 362l-9-8a10 10 0 00-14 15l10 8a10 10 0 0014 0c4-5 3-11-1-15zM145 305l-6 6a10 10 0 0014 14l6-6a10 10 0 00-14-14zM184 378h-12a10 10 0 000 20h12a10 10 0 000-20zM389 198a10 10 0 0010-10 10 10 0 00-10-10c-3 0-5 1-7 3a10 10 0 000 14c2 2 4 3 7 3z"/>
</svg>