<svg xmlns="http://www.w3.org/2000/svg" viewBox="0 0 470 470" width="512" height="512">
  <path fill="#fec8bb" d="M139 8h30v365h-30zM79 8h30v365H79z"/>
  <path d="M360 166l-9 1a73 73 0 00-61-36v153l138-20c3-8 5-16 5-25 0-40-33-73-73-73z" fill="#84b044"/>
  <path d="M351 167a46 46 0 00-13 0c-10-21-28-35-48-36h-1c-11 0-21 2-30 7l-38 64 31 62v20l147-20c2-8 3-16 3-25 0-37-22-68-51-72z" fill="#a2c352"/>
  <path d="M259 108V78a90 90 0 100 180v-30l-20-60 20-60z" fill="#ef431d"/>
  <path d="M199 168c0 33 27 60 60 60V108c-33 0-60 26-60 60z" fill="#fd7555"/>
  <path d="M228 258l-115 25 20-120c52 0 95 42 95 95z" fill="#99d9ff"/>
  <path d="M38 258l95 25V163c-53 0-95 42-95 95z" fill="#ccecff"/>
  <path d="M133 193l-10 85 75-20c0-36-30-65-65-65z" fill="#ccecff"/>
  <path d="M68 258l65 25v-90c-36 0-65 29-65 65z" fill="#edf8ff"/>
  <path d="M168 258l-55 25 20-60c19 0 35 15 35 35z" fill="#99d9ff"/>
  <path d="M133 223v55l-35-20c0-20 15-35 35-35z" fill="#ccecff"/>
  <path d="M403 273L228 463h30c96 0 175-79 175-175v-15h-30z" fill="#fdce6e"/>
  <path d="M403 288v-15H38v15c0 96 78 175 175 175h15c96 0 175-79 175-175z" fill="#fefdca"/>
  <path d="M448 258H23a15 15 0 000 30h425a15 15 0 000-30z" fill="#fff"/>
  <path d="M448 250h-9l1-11a81 81 0 00-85-80 81 81 0 00-89-32V78c0-5-3-8-7-8-35 0-66 18-83 46V8c0-5-3-8-7-8h-30c-5 0-8 3-8 8v125a7 7 0 1015 0V15h15v144a102 102 0 00-45-3V8c0-5-3-8-7-8H79c-5 0-8 3-8 8v137a7 7 0 1015 0V15h15v145c-39 12-68 48-71 90h-7a23 23 0 000 45h7c4 97 84 175 183 175h45c98 0 178-78 182-175h8a23 23 0 000-45zM289 139c23 0 44 12 56 32 1 2 4 4 7 3h8a66 66 0 0164 76h-68l26-25a7 7 0 10-11-11l-36 36h-39v-72a7 7 0 10-15 0v72h-15V143c7-3 15-4 23-4zm-38-54v15c-28 3-51 23-58 51a8 8 0 0015 4c5-21 22-36 43-39v134h-16c-3-38-26-70-59-85 2-42 34-76 75-80zm-118 85c45 0 83 35 87 80h-15a73 73 0 00-110-54 8 8 0 007 13 57 57 0 0187 41h-15a43 43 0 00-83 0H75c2-8 4-16 9-23a7 7 0 10-13-8c-6 10-9 20-11 31H45c4-45 42-80 88-80zm26 80h-53a28 28 0 0153 0zm289 30H98a7 7 0 100 15h327c-4 89-78 160-167 160h-45c-90 0-164-71-168-160h23a7 7 0 100-15H23a8 8 0 010-15h424a8 8 0 011 15z"/>
</svg>