<svg xmlns="http://www.w3.org/2000/svg" viewBox="0 0 470 470" width="512" height="512">
  <path d="M403 163L228 353h30c96 0 175-79 175-175v-15h-30z" fill="#fdce6e"/>
  <path d="M403 178v-15H38v15c0 96 78 175 175 175h15c96 0 175-79 175-175z" fill="#fefdca"/>
  <path d="M456 46a22 22 0 10-32-32L281 163h54L456 46z" fill="#ccecff"/>
  <path d="M448 148H23a15 15 0 000 30h425a15 15 0 000-30z" fill="#fff"/>
  <path d="M408 398l-52 65h30c16 0 34-13 39-29l12-36h-29z" fill="#fdce6e"/>
  <path d="M33 398l12 36c5 16 23 29 39 29h272c16 0 34-13 39-29l13-36H33z" fill="#fdfa7b"/>
  <path d="M448 383H23a15 15 0 000 30h425a15 15 0 000-30z" fill="#fefdca"/>
  <path d="M210 90c0-12 3-17 7-24s8-15 8-31-4-24-8-31a7 7 0 10-14 7c4 7 7 12 7 24s-3 17-7 24-8 15-8 31 4 24 8 31a7 7 0 1014-7c-4-7-7-12-7-24zM260 90c0-12 3-17 7-24s8-15 8-31-4-24-8-31a7 7 0 10-14 7c4 7 7 12 7 24s-3 17-7 24-8 15-8 31 4 24 8 31a7 7 0 1014-7c-4-7-7-12-7-24z" fill="#ffcfb2"/>
  <path d="M448 140h-79l92-89a30 30 0 000-42 30 30 0 00-42 0L292 140H23a23 23 0 000 45h7c4 97 84 175 183 175h45c98 0 178-78 182-175h8a23 23 0 000-45zM429 19a15 15 0 0122 0 15 15 0 010 22l-103 99h-35L429 19zm19 151H98a8 8 0 000 15h327c-4 89-78 160-167 160h-45c-90 0-164-71-168-160h23a8 8 0 000-15H23a8 8 0 010-15h425a8 8 0 010 15zM448 375H23a23 23 0 000 45h9l6 16c6 19 26 34 46 34h302c20 0 40-15 46-34l6-16h9a23 23 0 001-45zm0 30h-15H98a8 8 0 000 15h324l-4 12c-4 12-19 23-32 23H84c-13 0-28-11-32-23l-4-12h20a8 8 0 000-15H37 23a8 8 0 010-15h425a8 8 0 010 15z"/>
</svg>