<svg xmlns="http://www.w3.org/2000/svg" viewBox="0 0 470 470" width="512" height="512">
  <path d="M463 289c0-126-102-228-228-228l-20 318h248v-90z" fill="#fd7555"/>
  <path d="M8 289v90h227V61A227 227 0 008 289z" fill="#fda162"/>
  <path d="M420 264a30 30 0 00-13-47 30 30 0 00-24-42 30 30 0 00-34-34 30 30 0 00-43-25 30 30 0 00-47-12c-5-8-14-13-24-13l-20 222h205a30 30 0 000-49z" fill="#a2c352"/>
  <path d="M211 104a30 30 0 00-47 12 30 30 0 00-43 25 30 30 0 00-34 34 30 30 0 00-24 42 30 30 0 00-13 47 30 30 0 000 49h185V91c-10 0-19 5-24 13z" fill="#c1d560"/>
  <path d="M235 151l168 258h30c16 0 30-14 30-30 0-126-102-228-228-228z" fill="#fda162"/>
  <path d="M433 379c0-126-89-228-198-228A227 227 0 008 379c0 16 13 30 30 30h365c16 0 30-14 30-30z" fill="#fdce6e"/>
  <path d="M401 123a233 233 0 00-332 0C24 167 0 226 0 289v90c0 20 17 37 38 37a7 7 0 100-15c-13 0-23-10-23-22a220 220 0 01440 0c0 12-10 22-22 22H68a7 7 0 100 15h365c20 0 37-17 37-37v-90c0-63-24-122-69-166zm0 90a233 233 0 00-332 0c-24 24-42 52-54 83v-7a220 220 0 01440 0v7c-12-31-30-59-54-83z"/>
  <path d="M380 144c-7-7-16-11-25-11a38 38 0 00-45-26 38 38 0 00-49-13 38 38 0 00-52 0 38 38 0 00-49 13 38 38 0 00-45 26 38 38 0 00-36 35 8 8 0 1015 1 22 22 0 0126-21 7 7 0 009-7 23 23 0 0132-18 7 7 0 0010-4 23 23 0 0135-9 8 8 0 0011-2 23 23 0 0136 0 7 7 0 0011 2 23 23 0 0135 9 7 7 0 0010 4 23 23 0 0132 18 8 8 0 009 7 23 23 0 0126 21 7 7 0 1015-1c-1-9-5-18-11-24z"/>
  <circle cx="50" cy="341.3" r="7.5"/>
  <circle cx="80" cy="371.3" r="7.5"/>
  <circle cx="395" cy="341.3" r="7.5"/>
  <circle cx="335" cy="281.3" r="7.5"/>
  <circle cx="155" cy="251.3" r="7.5"/>
  <circle cx="305" cy="311.3" r="7.5"/>
</svg>