<svg xmlns="http://www.w3.org/2000/svg" viewBox="0 0 470 470" width="512" height="512">
  <path fill="#fefdca" d="M121 193l6 60-58 30 27-90zM451 193l6 60-58 30 27-90z"/>
  <path d="M460 276l-3-23h-28l-29 90a60 60 0 0060-67zM130 276l-3-23H99l-29 90a60 60 0 0060-67z" fill="#ef431d"/>
  <path fill="#fd7555" d="M235 8h30v30l-40 20z"/>
  <path fill="#fe9f88" d="M235 8v50l-30-20V8z"/>
  <path fill="#ef431d" d="M235 38h30v77l-50 20z"/>
  <path fill="#fd7555" d="M235 38v97l-30-20V38z"/>
  <path d="M310 223c0-31-18-58-45-69l-3 309h18c17 0 30-14 30-30v-90l-16-60 16-60z" fill="#47631c"/>
  <path d="M280 210c0-23-6-42-15-56v-39h-60v39a75 75 0 00-45 68l40 61-40 60v90c0 16 14 30 30 30h72c10 0 18-14 18-30V210z" fill="#668a30"/>
  <path fill="#fec8bb" d="M310 223v120h-30l-30-60 30-60z"/>
  <path fill="#fefdca" d="M160 223h120v120H160z"/>
  <path fill="#fff" d="M426 193l3 60-43 20-43-20 6-60z"/>
  <path d="M430 276v7c0 33-13 60-30 60a60 60 0 01-60-67l3-23h86l1 23z" fill="#fd7555"/>
  <path d="M400 443c-25 0-25 20-51 20h102c-25 0-25-20-51-20z" fill="#fefdca"/>
  <path fill="#fff" d="M96 193l3 60-43 20-43-20 6-60z"/>
  <path d="M100 276v7c0 33-13 60-30 60a60 60 0 01-60-67l3-23h86l1 23z" fill="#fd7555"/>
  <path d="M70 443c-25 0-25 20-51 20h102c-25 0-25-20-51-20z" fill="#fefdca"/>
  <path d="M273 149V45a7 7 0 000-15V8c0-5-4-8-8-8h-60c-4 0-7 3-7 8v22a7 7 0 000 15v104a83 83 0 00-45 74v120c0 4 3 7 7 7h143v83c0 12-11 22-23 22h-90c-12 0-22-10-22-22v-60a7 7 0 10-15 0v60c0 20 16 37 37 37h90c21 0 38-17 38-37V223c0-32-18-60-45-74zM213 45h45v63h-45V45zm45-30v15h-45V15h45zm-50 146c3-2 4-4 4-7v-31h46v31c0 3 1 5 4 7 22 9 37 30 40 54H168c3-24 18-45 40-54zm-40 174V230h135v105H168zM451 455c-10 0-15-4-21-8-5-5-12-10-22-11v-86a68 68 0 0059-75l-2-23-7-60c0-4-3-7-7-7H349c-4 0-7 3-7 7l-9 83v8c0 34 26 63 60 67v86c-11 1-18 6-23 11-6 4-11 8-21 8a7 7 0 100 15h102a7 7 0 100-15zM348 283v-6l8-77h88l5 45h-76a7 7 0 100 15h77l2 17 1 5a53 53 0 01-105 1zm36 172c4-3 8-5 16-5s12 2 16 5h-32zM138 283l-1-8-2-23-7-60c0-4-3-7-7-7H19c-4 0-7 3-7 7l-9 83v8c0 34 26 63 60 67v86c-11 1-18 6-23 11-6 4-11 8-21 8a7 7 0 100 15h102a7 7 0 100-15c-10 0-15-4-21-8-5-5-12-10-22-11v-86c33-4 60-33 60-67zm-120 0v-6l8-77h88l5 45H43a7 7 0 100 15h77l2 17v5a53 53 0 01-104 1zm36 172c4-3 8-5 16-5s12 2 16 5H54z"/>
</svg>