<svg xmlns="http://www.w3.org/2000/svg" viewBox="0 0 512 512">
  <path d="M450 289c0 58-38 139-83 182-21 20-42 32-63 32-13 0-26-2-38-5-15-5-31-5-47 0-11 3-24 5-37 5-22 0-45-13-66-34-45-45-81-123-81-180 0-84 50-134 98-147 22-5 48-2 70 4a159 159 0 0080 0c21-6 47-9 70-4 47 13 97 63 97 147z" fill="#f94848"/>
  <path d="M367 471c-56 10-100 8-132 0-53-13-93-58-99-112-17-136 72-176 72-176 26 12 55 6 55 6-18-19 6-40 6-40-22 4-44 3-66-3s-48-9-70-4c-48 13-98 63-98 147s79 214 147 214c13 0 26-2 37-5 16-5 32-5 47 0 12 3 25 5 38 5 21 0 42-12 63-32z" fill="#dd2c2c"/>
  <path d="M477 14s-12 81-73 105c-59 22-111-39-133-34a9 9 0 00-2 1c0-2 24-72 84-77 62-4 95 24 124 5z" fill="#23b75f"/>
  <path d="M477 14s-38 45-90 45c-46 0-103 21-116 26l-2 1c0-2 24-72 84-77 62-4 95 24 124 5z" fill="#a3e261"/>
  <ellipse transform="rotate(-96 383 254)" cx="382.9" cy="253.8" rx="41.9" ry="27.1" fill="#fc8181"/>
  <path d="M429 203c-4 3-6 8-4 12 11 22 16 47 16 74 0 39-17 90-46 134-29 45-63 72-91 72-12 0-24-2-35-6-17-5-35-5-52 0-11 4-24 6-35 6-28 0-62-27-92-72-28-44-46-95-46-134 0-36 10-69 29-95 16-21 39-37 62-43 17-5 40-3 65 3l9 2a9 9 0 003-17l-7-2c-29-7-54-8-75-3-27 7-52 25-71 50-21 28-32 65-32 105 0 42 18 97 49 143 33 51 71 80 106 80 13 0 27-2 40-6s28-4 42 0c13 4 26 6 40 6 34 0 73-29 106-80 30-46 49-101 49-143 0-30-6-57-18-82-2-4-8-6-12-4z"/>
  <path d="M409 190a9 9 0 1013-11c-18-23-42-38-67-45-20-5-45-4-74 3l-20 4a9 9 0 103 17c7 0 14-2 21-4 26-6 48-8 66-3 21 6 42 19 58 39z"/>
  <path d="M481 7c-2-2-6-2-9 0-13 8-27 5-48 0l-6-1a9 9 0 00-3 17l5 1c16 4 31 7 45 4-7 24-24 67-64 83-34 13-66-6-92-20-10-6-19-11-27-14 9-19 31-56 72-59 12-1 23-1 36 1a9 9 0 002-17c-14-2-26-2-39-1-28 2-53 17-72 43-12 17-19 34-20 38l-23 35-14-33a9 9 0 00-15 9s20 38 24 89c-6-1-13-2-17-5-6-2-8-5-8-5a9 9 0 10-17 0c0 5 2 14 17 21 10 5 22 7 35 7s25-2 34-7c16-7 18-16 18-21a9 9 0 10-18 0s-1 3-7 5c-5 3-12 4-19 5-1-15-4-30-7-43l30-45 6 1c6 2 13 6 20 11 21 12 47 27 76 27 10 0 20-2 31-6 65-25 78-108 78-112 1-3-1-7-4-8z"/>
</svg>