<svg xmlns="http://www.w3.org/2000/svg" viewBox="0 0 512 512">
  <path d="M375 452H102c-24 0-45-17-50-42L26 265h426l-26 145c-5 25-26 42-51 42z" fill="#bf7341"/>
  <path d="M114 452h261c25 0 46-17 51-42l26-145h-56a552 552 0 01-282 187z" fill="#b56d3e"/>
  <path d="M196 230H94V60a51 51 0 01102 0v170z" fill="#c96e23"/>
  <path fill="#b5611d" d="M176 118l-43 34-10-14 42-34z"/>
  <path d="M427 230H324v-17a51 51 0 01102 0v17z" fill="#c96e23"/>
  <g fill="#b5611d">
    <path d="M350 188h17v17h-17zM393 196h17v17h-17z"/>
  </g>
  <path d="M361 230H250l90-193c7-17 25-28 44-28h3c11 0 21 3 30 10 17 14 23 38 14 58l-70 153z" fill="#d68033"/>
  <g fill="#c96e23">
    <path d="M406 76l-60 17-4-16 59-17zM337 150l-5-16 44-14 5 16zM347 196l-54 17-5-16 53-17z"/>
  </g>
  <path d="M26 230h426a17 17 0 010 34H26c-10 1-17-7-17-17 0-9 7-17 17-17z" fill="#bf7341"/>
  <path d="M410 230v-17a171 171 0 00-341 0v17H33v-17a205 205 0 01410 0v17h-34z" fill="#965735"/>
  <path d="M324 230c-2-85-39-153-85-153s-83 68-85 153h170z" fill="#f09e3e"/>
  <path d="M241 181l-45 15c0-20 13-38 33-45l44-14c0 20-13 38-32 44z" fill="#d68033"/>
  <path d="M316 171c-23 25-52 46-84 59h92c0-20-3-40-8-59z" fill="#eb9634"/>
  <g fill="#965735">
    <path d="M341 299h52v17h-52zM256 299h51v17h-51zM171 299h51v17h-51zM85 299h52v17H85zM85 350h52v17H85zM85 401h52v17H85z"/>
  </g>
  <path d="M154 230H51v-17a51 51 0 01102 0v17z" fill="#d68033"/>
  <path d="M154 213c0-15-7-29-19-39-11 24-30 44-54 56h73v-17z" fill="#d97a27"/>
  <g fill="#c96e23">
    <path d="M77 188h17v17H77zM111 196h17v17h-17z"/>
  </g>
  <path d="M444 273H51a9 9 0 010-17h393a9 9 0 010 17z" fill="#965735"/>
  <path d="M503 375c0 15-11 26-25 26v85c0 10-8 17-17 17H205c-10 0-17-7-17-17v-85c-14 0-26-11-26-26 0-14 12-25 26-25h290c14 0 25 11 25 25z" fill="#f09e3e"/>
  <path d="M447 401l-1 1c-23 49-65 82-101 101h116c9 0 17-7 17-17v-85h-31z" fill="#f09235"/>
  <path d="M350 375c0 15-12 26-26 26v85c0 10-7 17-17 17H205c-10 0-17-7-17-17v-85c-14 0-26-11-26-26 0-14 12-25 26-25h136c14 0 26 11 26 25z" fill="#f0dbc2"/>
  <g fill="#d68033">
    <path d="M427 375h17v18h-17zM384 401h17v17h-17zM435 444h17v17h-17zM350 461h17v17h-17z"/>
  </g>
  <path d="M18 272l26 140c5 28 30 49 58 49h60v-17h-60c-20 0-38-15-42-35L36 273h406l-9 50 17 3 10-54a26 26 0 00-8-50v-9c0-36-9-72-27-103l14-29a57 57 0 00-52-81h-3c-19 0-36 9-47 24C288-2 230-7 177 9a60 60 0 00-91 50v7c-39 39-60 92-60 147v9a26 26 0 00-8 50zM384 17h3a40 40 0 0136 56l-9 19-10-14 3-1-5-16-11 3c-12-12-25-22-39-31 8-10 19-16 32-16zm-239 0l8 1c-17 8-34 18-49 30 5-18 22-31 41-31zm94 0c108 0 196 88 196 196v9h-17v-9a179 179 0 00-352-47 60 60 0 00-23 47c0-108 88-196 196-196zm135 205l22-48 4 22h-7v17h8v9h-27zM239 68c-12 0-24 4-34 12V60l-1-5a164 164 0 01111 15l-17 36c-16-24-36-38-59-38zm-51-8v35c-6 6-10 13-14 20l-9-11-42 34 10 14 37-29c-9 17-15 36-19 56a59 59 0 00-63-23c17-46 54-81 100-96zm-86 111c24 0 43 19 43 42v9H60v-9c0-23 19-42 42-42zm137-86c39 0 72 61 76 137H162c5-76 38-137 77-137zm93 137l-1-21 15-5-4-16-14 4c-4-21-10-41-19-60l20-45c17 11 31 25 43 42l-40 12 5 17 44-14 7 14-32 72h-24zM26 239h426a9 9 0 010 17H26a9 9 0 010-17z"/>
  <path d="M278 130c-2-2-5-2-8-2l-44 15c-23 8-38 29-38 53a9 9 0 0011 8l44-14c23-8 39-29 39-53 0-3-2-6-4-7zm-40 43l-31 11c4-12 13-21 24-25l31-10c-3 12-13 21-24 24zM341 299h52v17h-52zM256 299h51v17h-51zM171 299h51v17h-51zM85 299h52v17H85zM85 350h52v17H85zM85 401h52v17H85zM77 188h17v17H77zM111 196h17v17h-17zM478 341H188a34 34 0 00-9 68v77c0 15 12 26 26 26h256c14 0 25-11 25-26v-77a34 34 0 00-8-68zM205 495c-5 0-9-4-9-9v-85c0-5-4-8-8-8a17 17 0 110-35h136a17 17 0 110 35c-4 0-8 3-8 8v85c0 5-4 9-9 9H205zm273-102c-5 0-9 3-9 8v85c0 5-4 9-8 9H331l2-9v-77c15-4 25-18 25-34 0-6-1-11-4-17h124a17 17 0 110 35z"/>
  <path d="M427 375h17v18h-17zM384 401h17v17h-17zM435 444h17v17h-17zM350 461h17v17h-17z"/>
</svg>