<svg xmlns="http://www.w3.org/2000/svg" viewBox="0 0 470 470" width="512" height="512">
  <path fill="#fdfa7b" d="M384 28h-50l-25 75-25-75h-50l-20 170h190z"/>
  <path fill="#fdce6e" d="M204 178l30 60h150l30-60z"/>
  <path fill="#fda162" d="M434 178v60h-50v-60l25-20zM334 178v60h-50v-60l25-20zM234 178v60h-50v-60l25-20z"/>
  <path fill="#fdce6e" d="M384 8h50v170h-50zM284 8h50v170h-50zM184 8h50v170h-50z"/>
  <path d="M434 208h-30l10 255h30l17-226c2-16-11-29-27-29z" fill="#b4462f"/>
  <path d="M404 208c16 0 29 13 27 29l-17 226H174l-18-226c-1-16 11-30 28-30h220z" fill="#ef431d"/>
  <path fill="#b4462f" d="M39 363h295v50H39z"/>
  <path fill="#84b044" d="M39 273h295v50H39z"/>
  <path d="M334 313h-30v60h30c16 0 30-14 30-30s-14-30-30-30z" fill="#975d50"/>
  <path d="M304 313c16 0 30 13 30 30s-14 30-30 30H39c-17 0-30-14-30-30s13-30 30-30h265z" fill="#b1786b"/>
  <path d="M324 403l-60 60h30c33 0 60-27 60-60h-30z" fill="#fd7555"/>
  <path fill="#fdfa7b" d="M354 253v30h-40l-128 60V223z"/>
  <path fill="#fefdca" d="M316 253l-130 90-127-60H19v-30l167-30z"/>
  <path d="M264 123h-30l90 130h30v-45c0-47-41-85-90-85z" fill="#fd7555"/>
  <path d="M19 403h305c0 33-27 60-60 60H79c-34 0-60-27-60-60zM324 208v45H19v-45c0-47 40-85 90-85h125c49 0 90 38 90 85z" fill="#fda162"/>
  <circle cx="116.1" cy="172.5" r="7.5" fill="#fefdca"/>
  <circle cx="151.1" cy="202.5" r="7.5" fill="#fefdca"/>
  <circle cx="221.1" cy="202.5" r="7.5" fill="#fefdca"/>
  <circle cx="186.1" cy="172.5" r="7.5" fill="#fefdca"/>
  <circle cx="256.1" cy="172.5" r="7.5" fill="#fefdca"/>
  <path d="M460 211c-5-5-12-9-19-10V8c0-5-3-8-7-8h-50c-5 0-8 3-8 8v12h-35V8c0-5-3-8-7-8h-50c-5 0-8 3-8 8v12h-35V8c0-5-3-8-7-8h-50c-5 0-8 3-8 8v85a8 8 0 0015 0V15h35v100H109c-54 0-98 41-98 93v45c0 4 3 7 8 7h335c4 0 7-3 7-7v-45c0-22-7-41-20-57V35h35v143a7 7 0 1015 0V15h35v185h-42a7 7 0 100 15h50c5 0 11 2 15 6 3 4 5 10 5 16l-17 218h-76a7 7 0 100 15h83c4 0 7-3 7-7l18-225c1-10-3-20-9-27zM241 35h35v60a7 7 0 1015 0V15h35v122c-17-14-39-22-62-22h-23V35zm105 210H26v-37c0-43 37-78 83-78h155c45 0 82 35 82 78v37z"/>
  <path d="M354 395H19c-5 0-8 3-8 8 0 37 30 67 68 67h215c37 0 67-30 67-67 0-5-3-8-7-8zm-60 60H79c-27 0-49-20-52-45h319c-4 25-26 45-52 45zM1 343c0 20 17 37 38 37h295a38 38 0 000-75h-51l32-15h39a7 7 0 100-15h-40l-4 1-124 58-124-58-3-1H19a8 8 0 000 15h38l32 15H39c-21 0-38 17-38 38zm182 6a7 7 0 006 0l63-29h82a23 23 0 010 45H39a23 23 0 010-45h82l62 29z"/>
</svg>