<svg xmlns="http://www.w3.org/2000/svg" viewBox="0 0 512 512">
  <path d="M285 198h-58c-61 0-111 50-111 111v82c0 61 50 111 111 111h58c61 0 111-50 111-111v-82c0-61-50-111-111-111z" fill="#ffc66c"/>
  <g fill="#62cd4d">
    <path d="M256 202c30-57 93-96 167-96 0 0-51 42-78 103l-89-7zM167 209c-27-61-78-103-78-103 74 0 137 39 167 96l-89 7z"/>
  </g>
  <g fill="#a0e557">
    <path d="M216 100c0-50 29-90 40-90 10 0 40 40 40 90l-40 49-40-49z"/>
    <path d="M181 127c-19-49-52-81-52-81 70 0 127 64 127 143l-75-62zM256 189c0-79 57-143 127-143 0 0-33 32-51 81l-76 62z"/>
  </g>
  <path d="M432 103c-1-4-5-7-9-7-25 0-49 4-72 12 17-33 39-55 39-55a10 10 0 00-7-17c-30 0-58 10-82 30-4-15-9-29-17-41-7-11-17-25-28-25s-22 14-29 25c-7 12-13 26-17 40-23-19-51-29-81-29a10 10 0 00-7 17c1 0 22 22 39 55-22-8-47-12-72-12a10 10 0 00-6 18s12 10 26 26a10 10 0 0015-14l-8-8a193 193 0 0163 19c24 12 44 30 59 51h-11c-19 0-37 4-53 12l-11-20a10 10 0 10-17 10l11 21c-31 22-51 58-51 98v82c0 67 54 121 121 121h58c67 0 121-54 121-121v-82c0-40-20-76-51-98 26-57 73-96 74-97 3-2 5-7 3-11zm-73-44c-11 14-25 35-35 60a194 194 0 00-56 43c10-52 45-93 91-103zm-12 171l-22 22-45-44h5c24 0 45 8 62 22zm-91 231l-56-56 56-56 57 56-57 56zm-70-70l-54-54 56-56 54 54-56 56zm16-124l54-55 55 55-55 54-54-54zm54-246c6 5 22 28 29 61-13 14-22 31-29 49-7-18-16-35-29-49 6-32 22-56 29-61zm-62 101l-6-3c-10-25-24-46-35-61 46 11 82 53 91 105-14-16-31-30-50-41zm38 86l-44 44-23-23c17-13 39-21 62-21h5zm-81 35l23 24-48 47v-5c0-25 9-48 25-66zm-25 116l46 46-34 34c-8-14-12-31-12-48v-32zm24 97l36-37 56 57-16 16c-31 0-58-14-76-36zm135 36h-31l73-73 36 36c-19 23-47 37-78 37zm89-53l-33-34 45-45v31c0 17-4 33-12 48zm12-130v23l-59 59-56-56 54-54 12 12c2 2 5 3 7 3s6-1 7-3c4-4 4-10 0-14l-12-12 23-23c15 17 24 40 24 65zm-48-109c-16-8-34-12-53-12h-11a161 161 0 0164-53c18-9 37-14 57-17-17 18-41 46-57 82z"/>
  <path d="M137 167c2 0 4 0 6-2 4-3 5-9 2-14a10 10 0 10-16 12c2 3 5 4 8 4zM360 302c-2 2-3 4-3 7s1 5 3 7a10 10 0 0014 0c2-2 3-5 3-7s-1-5-3-7a10 10 0 00-14 0zM263 262c-2-2-4-3-7-3s-5 1-7 3a10 10 0 000 14c2 2 4 3 7 3s5-1 7-3 3-5 3-7c0-3-1-5-3-7zM263 400c-2-2-4-3-7-3s-5 1-7 3a10 10 0 000 14c2 2 4 3 7 3s5-1 7-3 3-4 3-7-1-5-3-7zM186 328a10 10 0 00-10 10c0 3 1 6 3 7s4 3 7 3 5-1 7-3a10 10 0 000-14c-2-2-5-3-7-3zM327 328a10 10 0 00-10 10 10 10 0 0010 10c3 0 5-1 7-3s3-4 3-7a10 10 0 00-10-10zM327 452c-3 0-5 1-7 3s-3 4-3 7 1 5 3 7 4 3 7 3a10 10 0 0010-10 10 10 0 00-10-10zM193 455a10 10 0 00-14 0 10 10 0 000 14c2 2 4 3 7 3a10 10 0 0010-10c0-3-1-5-3-7z"/>
</svg>