<svg xmlns="http://www.w3.org/2000/svg" viewBox="0 0 470 470" width="512" height="512">
  <path d="M445 148l-89-34-34-89a227 227 0 00-174 0l-34 89-89 34a227 227 0 000 174l89 34 34 89a227 227 0 00174 0l34-89 89-34a227 227 0 000-174z" fill="#fda162"/>
  <path d="M148 25l87 210-210-87C48 92 92 48 148 25zM235 235l-87 210C92 422 48 378 25 322l210-87zM445 322c-23 56-67 100-123 123l-87-210 210 87zM445 148l-210 87 87-210c56 23 100 67 123 123z" fill="#fdce6e"/>
  <path d="M237 38l92 50-18-35c-23-10-48-15-74-15zM417 159h-34v152h34a196 196 0 000-152zM237 432l92-50-18 35c-23 10-48 15-74 15z" fill="#fdce6e"/>
  <path d="M403 235c0-23-4-45-10-65l-55-37-29-75c-22-13-46-20-72-20h-2c-27 0-52 5-76 15l-32 74-74 32a196 196 0 000 152l74 32 32 74c24 10 49 15 76 15h2c26 0 50-7 72-20l29-75 55-37c6-20 10-42 10-65z" fill="#fdfa7b"/>
  <path d="M393 300l-84 112 2 5c48-20 86-58 106-106l-24-11zM311 53l-3 5 85 112 24-11c-20-48-58-86-106-106z" fill="#fdfa7b"/>
  <path d="M235 235l158 65c-15 50-45 90-85 112l-73-177zM393 170l-158 65 74-177c39 22 69 62 84 112zM235 235l-76 182c-48-20-86-58-106-106l182-76zM159 53l76 182-182-76c20-48 58-86 106-106z" fill="#fefdca"/>
  <circle cx="235" cy="105" r="20" fill="#fd7555"/>
  <circle cx="143.1" cy="143.1" r="20" fill="#ef431d"/>
  <circle cx="105" cy="235" r="20" fill="#fd7555"/>
  <circle cx="143.1" cy="326.9" r="20" fill="#ef431d"/>
  <circle cx="235" cy="365" r="20" fill="#ef431d"/>
  <circle cx="326.9" cy="326.9" r="20" fill="#fd7555"/>
  <circle cx="365" cy="235" r="20" fill="#ef431d"/>
  <circle cx="326.9" cy="143.1" r="20" fill="#fd7555"/>
  <circle cx="270.4" cy="69.6" r="7.5" fill="#668a30"/>
  <circle cx="235" cy="155" r="7.5" fill="#668a30"/>
  <circle cx="143.1" cy="93.1" r="7.5" fill="#84b044"/>
  <circle cx="69.6" cy="199.6" r="7.5" fill="#668a30"/>
  <circle cx="143.1" cy="376.9" r="7.5" fill="#84b044"/>
  <circle cx="376.9" cy="326.9" r="7.5" fill="#84b044"/>
  <circle cx="315" cy="235" r="7.5" fill="#84b044"/>
  <path d="M401 69a233 233 0 00-332 0 233 233 0 000 332 233 233 0 00332 0 233 233 0 000-332zm40 243l-14-6a204 204 0 000-142l14-6a219 219 0 010 154zm-133 99A190 190 0 11163 60a190 190 0 01145 351zm127-267l-14 6c-20-45-56-81-101-101l6-14c48 22 87 61 109 109zM312 29l-6 14a204 204 0 00-142 0l-6-14a219 219 0 01154 0zm-168 6l6 14c-45 20-81 56-101 101l-14-6C57 96 96 57 144 35zM29 158l14 6a204 204 0 000 142l-14 6a219 219 0 010-154zm6 168l14-6c20 45 56 81 101 101l-6 14c-48-22-87-61-109-109zm123 115l6-14a204 204 0 00142 0l6 14a219 219 0 01-154 0zm168-6l-6-14c45-20 81-56 101-101l14 6c-22 48-61 87-109 109z"/>
  <path d="M249 249l138 57a7 7 0 0010-4c1-4-1-8-4-10l-138-57 138-57a7 7 0 00-6-14l-138 57 57-138a7 7 0 10-14-6l-57 138-57-138a7 7 0 00-14 6l57 138-138-57a7 7 0 10-6 14l138 57-138 57a7 7 0 006 14l138-57-57 138a7 7 0 1014 6l57-138 57 138a8 8 0 1014-6l-57-138z"/>
  <path d="M235 133a28 28 0 100-56 28 28 0 000 56zm0-40a13 13 0 110 25 13 13 0 010-25zM143 171a27 27 0 0028-28 27 27 0 00-28-27 27 27 0 00-27 27 27 27 0 0027 28zm-9-37l9-3s7 1 9 3a13 13 0 11-18 0zM133 235a28 28 0 10-56 0 28 28 0 0056 0zm-40 0a13 13 0 1125 0 13 13 0 01-25 0zM163 307a27 27 0 00-39 0 27 27 0 000 39 27 27 0 0039 0 27 27 0 000-39zm-11 29c-2 2-6 3-9 3s-6-1-9-3a13 13 0 1118 0zM235 338a28 28 0 100 55 28 28 0 000-55zm0 40a13 13 0 110-26 13 13 0 010 26zM327 299a27 27 0 00-28 28 27 27 0 0028 27 27 27 0 0027-27 27 27 0 00-27-28zm9 37l-9 3s-7-1-9-3a13 13 0 1118 0zM338 235a28 28 0 1055 0 28 28 0 00-55 0zm40 0a13 13 0 11-26 0 13 13 0 0126 0zM307 163a27 27 0 0039 0 27 27 0 000-39 27 27 0 00-39 0 27 27 0 000 39zm11-29c2-2 6-3 9-3s6 1 9 3a13 13 0 11-18 0z"/>
  <circle cx="93.1" cy="143.1" r="7.5"/>
  <circle cx="155" cy="235" r="7.5"/>
  <circle cx="93.1" cy="326.9" r="7.5"/>
  <circle cx="199.6" cy="400.4" r="7.5"/>
  <circle cx="235" cy="315" r="7.5"/>
  <circle cx="326.9" cy="376.9" r="7.5"/>
  <circle cx="400.4" cy="270.4" r="7.5"/>
  <circle cx="376.9" cy="143.1" r="7.5"/>
  <circle cx="326.9" cy="93.1" r="7.5"/>
</svg>