<svg xmlns="http://www.w3.org/2000/svg" viewBox="0 0 512 512">
  <path d="M278 149l-18 5-6-22c-5-30-3-83 59-117l12-6c8-4 17 1 19 10l3 13c4 35 1 95-69 117z" fill="#368b4c"/>
  <path d="M254 132c-5-30-3-83 59-117l1 3c4 34 1 89-60 114z" fill="#3fa45a"/>
  <path d="M189 205c-50 86-125 54-155 36-8-5-9-15-3-22l15-14a108 108 0 01143 0z" fill="#368b4c"/>
  <path d="M184 201c-48 49-108 23-134 7l-4-3c62-51 120-17 138-4z" fill="#3fa45a"/>
  <path d="M227 186c-82 55-136-5-156-35-5-7-2-17 7-21l18-6c68-18 106 23 122 46l9 16z" fill="#4cba68"/>
  <path d="M218 170c-61 24-103-19-122-46 68-18 106 23 122 46z" fill="#64c37d"/>
  <path d="M230 184c79-60 39-131 17-159-5-7-16-7-21 0l-12 15c-39 59-13 108 4 131l12 13z" fill="#4cba68"/>
  <path d="M218 171c42-51 15-105-4-131-39 59-13 108 4 131z" fill="#64c37d"/>
  <path d="M464 458a70 70 0 01-72 46c-109-9-207-78-207-78-78-52-88-165-18-215l2-2 51-36 53-38c69-50 173-4 197 87 28 107 11 189-6 236z" fill="#c70024"/>
  <path d="M464 458l-4 9c-11 6-25 9-38 8-109-9-208-78-208-78-66-44-83-131-45-188l51-36 53-38c69-50 173-4 197 87 28 107 11 189-6 236z" fill="#ff0c38"/>
  <ellipse transform="rotate(144 185 332)" cx="185.5" cy="331.7" rx="9" ry="16.2"/>
  <ellipse transform="rotate(-36 219 249)" cx="218.5" cy="248.8" rx="9" ry="16.2"/>
  <ellipse transform="rotate(144 300 302)" cx="299.7" cy="302" rx="9" ry="16.2"/>
  <ellipse transform="rotate(-36 415 179)" cx="415.3" cy="178.9" rx="9" ry="16.2"/>
  <ellipse transform="rotate(-126 391 279)" cx="390.9" cy="279.3" rx="16.2" ry="9"/>
  <ellipse transform="rotate(144 442 364)" cx="441.7" cy="364" rx="9" ry="16.2"/>
  <ellipse transform="rotate(-36 330 409)" cx="330.3" cy="409.1" rx="9" ry="16.2"/>
  <ellipse transform="rotate(-36 409 451)" cx="408.5" cy="451" rx="9" ry="16.2"/>
  <ellipse transform="rotate(-36 228 410)" cx="227.5" cy="410" rx="9" ry="16.2"/>
  <ellipse transform="rotate(-36 319 192)" cx="318.6" cy="191.7" rx="9" ry="16.2"/>
  <path d="M485 356c-5-1-8 3-9 7-2 33-9 64-19 93a63 63 0 01-64 41c-106-9-203-77-204-77-25-17-45-43-55-71a8 8 0 00-14 4c11 32 33 60 61 79a493 493 0 00217 80c32 0 62-20 73-51 11-30 18-63 20-97 1-4-2-8-6-8zM122 329c4 0 7-4 6-8l-1-15c0-17 4-33 9-46 14-30 37-44 37-45h1l103-74c66-47 163-3 186 83 10 37 14 74 15 109a8 8 0 0015 0c-1-37-6-75-16-113-16-64-72-110-134-113 6-12 10-24 11-36a7 7 0 10-15-2c-2 15-6 28-14 39-15 1-29 5-43 12l2-8a7 7 0 10-15-2c-1 8-3 16-6 23l-41 29-5-6c-8-14-16-32-16-53 0-25 10-50 30-74 2-2 4-2 5-2 2 0 4 1 5 3 6 7 12 16 17 27 4 8 7 17 9 26a8 8 0 0015-3l-7-22a120 120 0 0156-43c2 0 5 2 6 5l3 21a7 7 0 1015-1l-3-23a22 22 0 00-30-15c-25 11-43 25-54 40l-15-22a21 21 0 00-33 0 128 128 0 00-33 94l-33-46a8 8 0 00-13 9l33 45c-24-11-57-15-99 1-6 3-11 8-13 14s-1 13 3 18c4 6 9 14 16 21-20 7-38 20-56 38-3 4-6 9-6 15 0 7 4 14 11 18l20 11a8 8 0 006-14l-18-10a6 6 0 01-2-10c18-19 37-31 57-36 17 14 36 24 57 27-11 10-20 23-26 37-13 3-27 3-41 0a8 8 0 00-2 15 102 102 0 0037 1 134 134 0 00-5 55c1 4 4 7 9 6zm-8-144l-16-13c-9-9-16-18-21-25v-6l3-4c18-6 34-10 49-10 29 0 54 13 73 35l6 7 1 2-41 30c-18 1-36-4-54-16zM174 215zM174 215zM174 215z"/>
</svg>